<svg xmlns="http://www.w3.org/2000/svg" version="1.1" width="600px" height="600px" viewBox="0 0 200 200" style="overflow:hidden!important;"><g id="svga-group-wrapper"><g id="svga-group-backs-single"><path id="SvgjsPath16543" d="M0 0h200v200H0V0z" fill="#ecf0f1" stroke-width="none" opacity="1"></path></g><g id="svga-group-humanwrap-move" transform="matrix(1,0,0,1,0,0)"><g id="svga-group-humanwrap"><g id="svga-group-hair-back-move" transform="matrix(1,0,0,1,0,0)"><g id="svga-group-hair-back"><path id="SvgjsPath16841" d="M145.2 113.8c3.9-1.4 4.8-8.7-.5-10.6-14.9-5.5-32.1-3.3-47.6-3.1-8.5.1-17 .3-25.5.4-4.2.1-8.5.1-12.7.2-2.8 0-5.6-.1-8 1.6-3.8 2.8-3 6.4-.6 9.1 0 .1 0 .2.1.3 1.7 4.9 1.7 9.8 2.2 14.9.4 4.3 1.2 8.1 5.7 9.5 1.2.4 2.4.7 3.7 1-.1.1-.1.3-.2.4-.3.5-.5 1.1-.4 1.8.2 3 2.8 5.2 5.7 4.4 2.4 1.7 5.8 2 8.4.4.8-.5 1.3-1 1.8-1.6h.3c.1.9.3 1.7.8 2.4.1.1.1.3.2.4.8 1.2 2 1.8 3.3 1.8 1.3.1 2.7-.3 3.7-1.1.9 1.8 3 3.1 5.4 2.8.4-.1.8-.1 1.1-.3 2.1.2 4.2-.8 5.8-2.3.4-.1.7-.3 1.1-.5.1.1.1.2.2.3 1 1.2 2.7 2.2 4.3 2.3 2.3.1 4-1.1 5-2.8.1-.1.3-.2.4-.3.3.6.8 1 1.3 1.4.9 1.6 2.8 2.6 4.7 2.1 2.3-.6 4.6-1.9 5.7-3.9 1.5.8 3.6.7 4.8-.6l.3-.3c1.3.4 2.5.3 3.5-.1.3.3.6.5 1 .7 2.8 1.6 6.5.1 7.2-3.1 0-.1 0-.2.1-.4 2-.1 4-1.5 4.2-4.6.1-.9-.1-1.8-.3-2.5 1.9-2.3 3.3-5 4.2-7.4 1.5-3.9 1.9-8.8-.5-12.2 0-.1 0-.3.1-.5z" fill="#221b23" stroke-width="none" opacity="1"></path><path id="SvgjsPath16842" d="m82.4 113.3-.1-.2c-1 .3-2 1-2.7 1.9-.7.9-1.2 2-1.5 3.1-.2 1.1-.2 2.3.2 3.5.4 1.2 1.1 2 1.5 2.8.2.4.3.9.3 1.3-.1.4-.2.9-.5 1.3-.6.8-1.4 1.6-1.8 2.7-.4 1.1-.5 2.3-.2 3.5.2.7.5 1.4 1 2-.7.4-1.3 1-1.8 1.8-.4.6-.6 1.5-.4 2.3.1.7.4 1.2.5 1.6.1.3.1.8 0 1.2-.1.5-.3 1-.4 1.6-.1.6 0 1.3.2 1.9.2.6.8 1.1 1.4 1.1v-.2c-.5-.2-.7-.7-.7-1.1 0-.5.1-.9.2-1.4.2-.5.5-.9.7-1.5.2-.6.4-1.2.4-2-.1-.7-.3-1.3-.3-1.6 0-.3.1-.6.2-.9.4-.6 1.2-1.2 2.1-1.8l1.4-.9-1.3-.8c-.7-.4-1.2-1.1-1.6-2-.3-.8-.5-1.8-.4-2.7.1-.9.7-1.8 1.3-2.7.3-.5.6-1 .7-1.6.1-.6.1-1.2 0-1.7-.2-1.1-.7-2.1-.8-3-.1-.9-.2-1.8-.1-2.7.2-1.5 1.1-3.3 2.5-4.8zm51.7 26.1c-.2-.2-.5-.4-.8-.5 1.2-1.3 1.8-3.1 1.4-4.9-.2-1.2-.9-2.2-1.8-3-.2-.2-.5-.4-.8-.6 1-.9 1.6-2.2 1.6-3.5 0-1.8-1-3.4-2.4-4.3 1.2-1.6 1.7-3.7 1.1-5.6-.6-2.1-2.4-3.7-4.4-4.3.7-.8 1.3-1.6 1.9-2.4.7-1 1.2-2.2 1.4-3.5.1-1.4-.5-2.7-1.4-3.7-.5-.5-1.1-.9-1.8-1.1.4-.7.8-1.4 1.1-2.2.5-1.5.6-3.1.3-4.6-.3-1.5-1-2.9-2-4.1-1-1.1-2.2-2-3.6-2.5l-.1.2c1.2.8 2.2 1.8 2.9 2.9.7 1.1 1.2 2.4 1.3 3.7.2 1.3 0 2.6-.5 3.8-.4 1.2-1.1 2.3-2 3.2l1.1 1.4c.6-.4 1.5-.2 2.3.3.8.6 1.4 1.6 1.4 2.6.1 1.1-.3 2.2-.9 3.2-.6 1-1.3 1.9-2.1 2.8l-.4.4.6.1c2 .4 3.6 2.2 3.9 4.1.3 1.9-.6 3.9-2.1 4.9l-1.4 1 1.7.5c1.3.4 2.2 1.8 2.1 3.1-.1 1.3-1.2 2.5-2.4 2.8l-6.3 1.3c-.3-.5-.7-.9-1.2-1.2-.4-.3-.8-.5-1.2-.6 1-1.7 1.1-3.8.2-5.4-.6-1.1-1.5-1.9-2.5-2.5-.7-.3-1.4-.6-2.2-.6.8-.5 1.6-1.1 2.3-1.8 1-.9 1.8-2.2 2.2-3.6.2-.7.2-1.5.1-2.3-.2-.8-.5-1.6-1.1-2.1-.6-.6-1.3-1-2.1-1.2h-.2c.6-.9.9-2 1-3 .1-1.8-.4-3.6-1.6-4.8l-.2.1c.7 1.4.9 3 .5 4.5-.3 1.4-1.1 2.7-2.3 3.5l-6.7 4.6 7.6-3.1c.8-.3 1.9 0 2.7.7.7.7 1.1 1.8 1 2.9-.1 1.2-.6 2.3-1.4 3.3-.8 1-1.9 1.7-3 2.4l-1.3.8 1.5-.2c1-.1 2 .2 2.8.7.8.6 1.5 1.3 1.8 2.2.6 1.8-.1 3.8-1.4 4.9l-2.2 1.7h2.8c.6 0 1.2.2 1.7.6.5.4.8 1 1 1.5.3 1.1-.4 2.6-1.4 3.1l.7 1.9c.7-.2 1.5-.1 2.2.3.7.4 1.3 1.1 1.4 1.9.3 1.6-1.2 3.7-3.3 3.8v.2c1.1.3 2.3-.1 3.2-.9.9-.7 1.6-1.9 1.5-3.2 0-1.3-.8-2.5-1.8-3.3-.3-.2-.7-.5-1.1-.6.7-1.1 1-2.4.7-3.7-.1-.5-.3-.9-.6-1.3l6.3.7c.7.1 1.4.4 2 .9s1 1.2 1.2 1.9c.4 1.4-.3 3.3-1.6 4.2l-3.2 2.1 3.6-.7c.5-.1 1.1 0 1.6.4.5.3.9.8 1 1.4.1.6 0 1.3-.3 1.8-.4.6-.9 1-1.6 1.2v.2c.8 0 1.5-.4 2.1-1.1.5-.6.9-1.4.8-2.3.3-1-.2-1.8-.9-2.4zM87.6 78.5c-1.8.4-3.4 1.4-4.6 2.9-1.2 1.5-1.6 3.5-1.5 5.3.1 1.2.4 2.4 1 3.5-1.2 0-2.3.1-3.5.4-1.8.5-3.5 1.5-4.7 2.9-1.2 1.5-1.7 3.4-1.6 5.2.1.9.3 1.8.7 2.6.2.3.4.7.7 1-1.3-.3-2.7-.2-4.1.1-.2 0-.3.1-.4.2.1-.5.2-1 .3-1.4.4-1.5 1.2-3 2.6-4l-.1-.2c-1.7.5-3.1 2.1-3.8 3.7-.4.9-.6 1.8-.8 2.7-1 .6-1.8 1.3-2.5 2.2-1.2 1.6-1.6 3.7-1.4 5.6.1 1.3.6 2.7 1.3 3.8-.7.2-1.4.5-2 .9-1.1.8-2 2-2.2 3.5s.2 2.9 1 4c.4.5.8 1 1.4 1.4-1.5 1.2-2.5 3-2.6 4.9-.2 2.3.8 4.5 2.4 6-.5.4-.9.8-1.2 1.3-.5.8-.7 1.7-.8 2.6 0 .9.2 1.8.5 2.6.4.8 1 1.5 1.8 1.8l.1-.2c-1.4-.9-1.8-2.7-1.6-4.1.1-.8.4-1.5.8-2.1.4-.6 1-1 1.7-1.2l1.3-.4-1.1-.9c-1.6-1.2-2.5-3.4-2.2-5.3.3-1.9 1.7-3.7 3.5-4.3l2.4-.9c0 .3-.1.6-.2.9-.3.7-.8 1.3-1.4 2.2-.6 1-.8 2.1-.7 3.2.2 1.6 1 3.2 2.3 4.2-1.1 1-1.7 2.4-1.7 3.8 0 1 .3 1.9.8 2.7.5.8 1.3 1.4 2.1 1.7l.1-.2c-1.3-1-1.9-2.7-1.7-4.2s1.3-2.6 2.6-3l2.4-.8-2.4-1.1c-1.3-.6-2.2-2-2.4-3.4-.1-.7 0-1.4.3-2.1.3-.7 1-1.5 1.3-2.6.2-.6.2-1.2.2-1.7-.1-.6-.3-1.1-.5-1.5-.4-.9-1-1.7-1.5-2.4-.4-.7-.7-1.6-.7-2.4 0-.5.2-1 .5-1.3l1.8.2-.8-.7v-.2c-.1-1.7.1-3.4.2-5.1.1-1.7.1-3.4.1-5.1 0-.8 0-1.6.1-2.4.3-.1.5-.2.8-.3 1.6-.6 3.5-.6 5 .1l.3-.6c-1.4-.8-2.2-2.5-2.2-4.1-.1-1.6.6-3.3 1.7-4.4 1.1-1.1 2.7-1.8 4.2-2.1 1.6-.3 3.2-.3 4.8 0l2.7.4-1.9-2c-2.1-2.1-2.5-5.9-.8-8.5.8-1.3 2.2-2.3 3.7-2.8 1.5-.6 3.2-.6 4.9-.1l.1-.2c-1.2-.4-3.1-.6-4.9-.2zm-20.1 42.7c.5 1.1 1 2.2 1.2 3.2l-2.6-.6c-.8-.2-1.6-.7-2.1-1.5-.5-.7-.8-1.7-.7-2.5.1-.8.6-1.7 1.3-2.2s1.6-.9 2.5-.8h.4c-.3.4-.4.9-.5 1.3-.1 1.2.1 2.2.5 3.1zm.6-10c.2 1.6.4 3.2.5 4.8l-.8-.7c-1.2-1-1.9-2.5-2.2-4.1-.2-1.6 0-3.3.8-4.7.3-.6.8-1.1 1.3-1.6 0 .4 0 .8-.1 1.2.1 1.7.3 3.4.5 5.1z" fill="#1b141c" stroke-width="none" opacity="1"></path></g></g><g id="svga-group-humanbody-back"><path id="SvgjsPath16615" d="M77.8 105.9s4.8 37.7 10 55.8c0 0-6.4 8.8-14.5 11.9-28.7 11.2-35 11.2-39.6 15.2-2.4 2.1.2 11.1 1.8 17.2 1.3 5 1.7 13.2 1.7 13.2h132.2s1.6-33-.6-39.8-7.1-2.9-21.9-4.5c-14.8-1.6-28.7-10.3-31-13.2l.3-60-38.4 4.2z" fill="#8c5537" stroke-width="none" opacity="1"></path></g><g id="svga-group-chinshadow-single"><path id="SvgjsPath16611" d="M85.6 152.8c6.6 3.5 10.7 3.5 10.7 3.5s8 0 19.6-9.5l.2-45.2-38.4 4.2c.1.1 3.6 27.7 7.9 47z" fill="#6d3415" stroke-width="none" opacity="1"></path></g><g id="svga-group-humanbody-front"><path id="SvgjsPath16616" d="M72.1 183.1s14.6-.2 20.4 2.6c5.8 2.9 12.7 2.4 16.1-1s21.6-7 21.6-7-19.7 1.9-25 4.6c-5.3 2.7-22.3-2.8-33.1.8z" fill="#6d3415" stroke-width="none" opacity="1"></path><path id="SvgjsPath16617" d="M74.2 173.2c6.7-1.3 14.7-6.4 14.7-6.4l6.2 5.5c-4.3-7.9-12.7-41.1-12.7-41.1l-.7.7c1.7 10.5 3.9 21.9 6.1 29.7 0 0-6 8.2-13.6 11.6z" fill="#6d3415" stroke-width="none" opacity="1"></path><path id="SvgjsPath16618" d="M170.7 188.5c-.1-2.1-.2-4.1-.4-6.2-.1-1-.3-2.1-.6-3.2-.2-.5-.4-1-.6-1.6-.2-.5-.6-1-1-1.5s-.9-.9-1.5-1.1c-.6-.3-1.1-.4-1.7-.6-1.1-.2-2.2-.2-3.2-.2-2.1 0-4.1.1-6.1.1s-4-.1-6-.2-4-.4-6-.7c-1-.2-2-.4-2.9-.6l-1.5-.4c-.5-.1-1-.3-1.4-.4-3.8-1.1-7.6-2.6-11.2-4.4l-1.3-.7-1.3-.7c-.4-.2-.9-.5-1.3-.8s-.9-.5-1.3-.8-.8-.5-1.3-.8l-1.2-.9-.6-.5-.3-.2-.3-.2c-.2-.2-.4-.3-.5-.5l-.2-.3v-44.6l-.1-15v-.6l-.6.1c-6.4.8-12.9 1.5-19.3 2.3l-19.1 2.3v.5l.1.4.1.9.2 1.8c.1 1.2.3 2.3.4 3.5l.9 7c.6 4.7 1.3 9.4 2.1 14 .8 4.7 1.5 9.3 2.5 14 .9 4.5 1.8 9 3 13.5-1.1 1.4-2.3 2.7-3.6 4-1.3 1.3-2.8 2.6-4.3 3.8-1.5 1.1-3.1 2.2-4.8 3l-1.3.6c-.4.2-.9.3-1.3.5l-2.7 1c-7.2 2.7-14.5 5.3-21.8 7.7l-5.5 1.8c-1.8.6-3.7 1.3-5.5 2.2-.4.2-.9.5-1.3.7-.4.3-.9.5-1.3.9l-.6.5c-.2.2-.5.5-.6.8-.3.5-.4 1.1-.5 1.6-.2 1.1-.1 2.1 0 3.1s.3 2 .4 2.9c.4 1.9.8 3.8 1.3 5.7l.8 2.8c.3.9.5 1.8.7 2.8.4 1.9.7 3.8.9 5.7s.4 3.8.5 5.7v.8h133.4v-.8c.2-4.1.4-8.2.5-12.3s.2-8.2.2-12.3c0-1.8-.1-3.8-.1-5.9zm-67.4 30.3H70.2l-16.5-.1-16-.1c-.1-1.8-.2-3.5-.4-5.3-.2-1.9-.4-3.9-.8-5.8-.2-1-.4-1.9-.7-2.9l-.7-2.8c-.5-1.9-.9-3.7-1.2-5.6-.2-.9-.3-1.9-.4-2.8-.1-.9-.1-1.9 0-2.7.1-.4.2-.8.4-1.1.1-.2.2-.3.3-.4l.5-.4c.3-.3.7-.5 1.1-.8.4-.2.8-.5 1.2-.7 1.7-.8 3.5-1.4 5.3-2l5.5-1.8c7.3-2.4 14.6-5 21.8-7.8l2.7-1c.5-.2.9-.3 1.4-.5l1.4-.6c1.8-.9 3.4-2 5-3.2s3-2.5 4.4-3.9 2.7-2.9 3.8-4.5l.2-.3-.1-.3c-1.3-4.5-2.3-9.1-3.3-13.7s-1.9-9.3-2.7-13.9c-.8-4.6-1.6-9.3-2.4-14l-2.2-13.9 19.3-1.8c6.2-.6 12.3-1.2 18.5-1.8l-.2 14.4-.2 15-.3 30v.4l.2.2.6.7.6.6.3.3.3.2.6.5c.4.3.9.6 1.3.9.4.3.9.6 1.3.9.4.3.9.5 1.3.8s.9.5 1.3.8l1.4.8 1.4.7c.5.2.9.5 1.4.7l1.4.7c1 .4 1.9.8 2.9 1.2s1.9.8 2.9 1.1l1.5.5c.5.2 1 .3 1.5.4.5.1 1 .3 1.5.4l1.5.4c1 .3 2 .4 3 .6 2 .4 4.1.6 6.2.8 2.1.2 4.1.2 6.2.2 2.1 0 4.1-.1 6.1-.1s4 .1 5 1.3c.5.6.9 1.4 1.2 2.3.3.9.4 1.9.6 2.8.3 2 .4 4 .5 6s.1 4.1.2 6.1c.1 7.9-.1 15.8-.4 23.7-10.8.1-21.5.1-32.3.2h-33.1z" fill="#5e2709" stroke-width="none" opacity="1"></path><path id="SvgjsPath16619" d="M150.7 219.2 147 198l-.4 21.2z" fill="#6d3415" stroke-width="none" opacity="1"></path><path id="SvgjsPath16620" d="M47.3 203.5s2.2 11.5 2.9 15.7h3.5l-6.4-15.7z" fill="#6d3415" stroke-width="none" opacity="1"></path></g><g id="svga-group-clothes-single"><path id="SvgjsPath16909" d="M85.9 154.3c-1.3 2.2-6.7 9.9-6.7 9.9l-.4 2.8s-5 3.5-14 7.3c-9.1 3.8-31 11-32.7 12.3s-1.9 8.6-.9 11.8c1 3.2 3.9 10.4 3.9 20.8h135.8s1-13.9 1.1-18.9c.1-5-.1-21.9-2.5-25.1-2.3-3.2-4.4-2.2-11.2-2.2s-17.8-1.9-25.1-3.8c-7.3-1.9-8.2-4.4-8.2-4.4l-.9-2.6-7.3-8s.3 10.1-.4 14-10.6 8-10.7 9.2c-.5 7.1-2 8.2-2 8.2s-.2-6.3-5.3-8c-1.9-.7-5.6-2.1-6.7-3.9-1.2-1.9-3.4-8.6-3.6-10.9-.2-2.4-2.2-8.5-2.2-8.5z" fill="#09aac5" stroke-width="none" opacity="1"></path><path id="SvgjsPath16910" d="M172.9 195.7c0-3.9-.2-7.9-.5-11.8-.2-2-.4-3.9-.8-5.9-.2-1-.4-2-1.1-3.1-.4-.5-.7-.9-1.1-1.3-.4-.4-.9-.8-1.4-1-1.1-.6-2.3-.6-3.3-.6s-2 0-3 .1c-1.9.1-3.9.1-5.8 0-3.9-.2-7.7-.7-11.6-1.4-3.8-.7-7.7-1.4-11.4-2.4-1.8-.5-3.6-1.1-5.2-2.1-.8-.4-1.5-1.1-1.8-1.6l-.9-2.6-.1-.2-.1-.1-7.3-8-1.7-1.9.1 2.5c.1 3.1.1 6.1 0 9.2-.1 1.5-.1 3.1-.3 4.5-.1 1.2-1.2 2.2-2.3 3.2-1.1.9-2.4 1.8-3.7 2.6-1.3.9-2.6 1.5-3.9 2.6-.2.2-.3.3-.6.7 0 .1-.1.1-.1.2V177.9c0 .4-.1.8-.1 1.1-.1.8-.2 1.5-.3 2.2-.1.7-.3 1.5-.5 2.2 0 .1-.1.1-.1.2-.2-1-.6-1.9-1.1-2.8-.8-1.5-2.1-2.8-3.7-3.4-.8-.3-1.5-.5-2.3-.8l-2.1-.9c-.7-.3-1.3-.8-1.9-1.2-.6-.5-.9-1-1.3-1.8-.7-1.4-1.2-2.9-1.8-4.4-.5-1.5-1-3-1.3-4.6-.1-.7-.2-1.6-.4-2.4-.2-.8-.4-1.6-.6-2.3s-.4-1.5-.7-2.3l-.4-1.1-.2-.6-.1-.3-.1-.1v-.1c0-.1-.1-.1-.1-.1-.2.2-.4.5-.5.7l-.4.6-.8 1.2-1.7 2.4-3.5 4.9v.2l-.4 2.6c-5.9 3.7-12.2 6.5-18.8 8.9-6.6 2.4-13.2 4.6-19.9 7-1.7.6-3.3 1.2-5 1.8-.8.3-1.7.6-2.5 1-.2.1-.4.2-.7.4-.3.2-.5.4-.7.7-.3.5-.5.9-.7 1.4-.5 1.9-.6 3.7-.7 5.5 0 1.8.1 3.6.7 5.5 1.1 3.4 2.2 6.6 2.8 10 .7 3.4 1 6.8 1 10.3v.9h.8c11.3 0 22.6-.2 33.9-.3 11.3-.2 22.6-.2 33.9-.2 11.3 0 22.6.1 33.9.2l33.9.3h.8l.1-.8.9-11.7c.4-4.3.7-8.3.6-12.2zm-58.7-23.4c.6-.5 1.2-1.1 1.8-1.7.3-.3.5-.7.7-1.1.2-.4.4-.9.4-1.3.3-1.6.3-3.1.4-4.7.1-2.3.1-4.5.1-6.8l5.5 6.1.4 1.2.2.7.1.4.1.2c.1.2.1.2.2.3.3.5.7.9 1 1.2.2 1.1.4 2.1.5 3.1.3 2.4.6 4.8 1.1 7.1.4 2.4.8 4.7 1.4 7.1.3 1.2.5 2.4 1 3.6l.3.9c-1.8-1.1-3.5-2.3-5.1-3.6-.3-.2-.5-.4-.8-.7l-.8-.7-1.7-1.5-3.3-2.9c-1.1-1-2.2-1.9-3.3-2.9l-.4-.4c-.1-.1-.2-.2-.5-.4-.5-.4-1-.4-1.4-.5-.7 0-1.3 0-1.9.2h.1c1.3-1 2.6-1.9 3.9-2.9zm-7.9 5.2c0-.1 0 0 0 0zm-.5 3.9c.2-.8.3-1.6.3-2.3.1-.4.1-.8.1-1.2v-.3l.2-.2c.3-.2.6-.4.9-.7.1-.1.3-.1.4-.1.7-.2 1.4-.3 2.1-.5.7-.1 1.4-.1 2-.1.3.1.6.1.7.2l.3.3.4.4c.6.6 1.2 1.3 1.9 1.9-1.7.8-3.3 1.5-5 2.1-.9.4-1.9.7-2.8.9-.6.2-1.2.3-1.8.5.2-.1.3-.5.3-.9zm-26.3-17 3.3-4.9 1.6-2.5.8-1.3.4-.6c.1-.2.2-.3.2-.5v.1l.1.3.2.6.3 1.1c.2.8.4 1.5.6 2.3s.4 1.6.5 2.3c.2.8.2 1.5.3 2.4.3 1.6.7 3.1 1.2 4.7.5 1.5 1 3.1 1.7 4.5.3.7.8 1.6 1.4 2.1.6.6 1.3 1 2.1 1.4.7.4 1.5.7 2.2 1 .7.3 1.6.6 2.2.9 1.9.8 3.1 2.6 3.7 4.5-2.4-.7-4.8-1.2-7.3-1.8-2.3-.5-4.6-.9-7-1.2.3-.6.7-1.3 1.1-1.9.3-.4.5-.9.9-1.1.3-.3.8-.4 1.2-.5 1-.1 2 0 3 .2-1-.4-2-.7-3.1-.8-.5 0-1.2.1-1.7.4-.5.4-.8.8-1.2 1.2-1.3 1.7-2.3 3.5-3.5 5.2l-.9 1.2c-.3.3-.6.7-1 1-.7.6-1.5 1.2-2.4 1.8l-3.3 2.1c.3-1.4.6-2.8.8-4.2.4-2.1.6-4.4.7-6.6.1-2.2.2-4.4.2-6.5 0-1.1 0-2.2-.1-3.3 0-.2 0-.4-.1-.7l.1-.1v-.1l.8-2.7zM53 218.5c-.3-2.9-.8-5.9-1.4-8.8-.3-1.6-.7-3.2-1.1-4.8-.2-.8-.5-1.6-.8-2.4-.3-.8-.8-1.6-1.2-2.3-2-2.7-4.3-5.1-6.8-7.2-1.2-1.1-2.5-2.1-3.9-3-1.4-.9-2.8-1.7-4.4-2.2 2.7 1.7 5 4 7.2 6.3 1.1 1.1 2.2 2.3 3.2 3.5 1 1.2 2.1 2.4 2.9 3.7.4.6.8 1.2 1.1 1.9.3.7.5 1.5.8 2.2.5 1.5 1 3.1 1.4 4.6.8 2.8 1.7 5.6 2.7 8.4-5.6-.1-11.3-.1-16.9-.1 0-3.3-.4-6.6-1-9.8-.3-1.8-.8-3.5-1.2-5.2-.5-1.7-1.1-3.4-1.7-5-.5-1.5-.6-3.2-.7-4.9 0-1.7.1-3.4.5-4.9.1-.4.3-.7.4-1 .1-.1.1-.2.2-.2.1-.1.3-.2.5-.2.8-.4 1.6-.7 2.4-1 1.6-.6 3.3-1.2 4.9-1.9 6.6-2.4 13.2-4.7 19.8-7.3 3.3-1.3 6.5-2.6 9.7-4.2 3-1.5 5.9-3.1 8.7-5v.4c-.1 1.1-.2 2.1-.4 3.2l-.8 6.4-.4 3.2c-.2 1-.4 2.1-.6 3.1-.4 2.1-.9 4.2-1.3 6.4l-.5 2.2 1.9-1.1c1.8-1.1 3.6-2.1 5.3-3.4.8-.6 1.7-1.3 2.5-2.1.4-.4.8-.8 1.1-1.3.3-.5.6-.9.8-1.4.7-1.1 1.2-2.3 1.8-3.4 2.2.9 4.5 1.6 6.8 2.1 2.5.5 5 .9 7.5.8.3.9.5 1.9.5 2.8v.8l-.1.1c-.5.6-1 1.2-1.5 1.9l-.8.9c-.1.2-.2.2-.4.5-.2.2-.3.4-.4.7-.3.9-.4 1.8-.4 2.6v2.4c0 1.6.1 3.2.2 4.8.1 3.2.3 6.4.5 9.6.2 3.1.6 6.1 1.1 9.1-10.8 0-21.5-.1-32.3-.2-4.7-.2-10.1-.2-15.4-.3zm117.7-11.1-.6 11-17.2.2c.8-3.7 1.4-7.4 2-11.2.6-3.8 1.2-7.7 1.8-11.5.3-1.9.7-3.8 1.3-5.5.6-1.8 1.5-3.4 2.5-5.1 1-1.6 2.1-3.2 3.4-4.6 1.2-1.5 2.6-2.9 4.1-4.1-1.7.9-3.3 2.1-4.8 3.5-1.4 1.3-2.8 2.8-4 4.4-1.2 1.6-2.2 3.4-3 5.2-.4.9-.7 1.9-.9 2.9-.2 1-.4 1.9-.6 2.9-.6 3.9-1.1 7.8-1.4 11.6-.3 3.8-.5 7.6-.5 11.4l-15.9.1c-11.3.1-22.6.1-33.9.2h-1.6c.3-3.1.4-6.1.5-9.2 0-3.2 0-6.4-.2-9.6-.1-1.6-.2-3.2-.4-4.8-.1-1.6-.4-3.2-.1-4.5 0-.2.1-.3.1-.4 0-.1.2-.3.3-.4l.7-1c.4-.7.9-1.4 1.3-2.1.1-.2.2-.5.4-.7l.1-.1c.2-.2.2-.2.3-.4.1-.1.1-.2.2-.3l.3-.6c.2-.4.3-.8.4-1.1.1-.3.2-.6.2-.8.7 0 1.4 0 2.1-.1 1-.1 2.1-.4 3-.8s1.9-.8 2.8-1.4c.7-.4 1.4-.9 2-1.5.4.4.8.7 1.1 1.1l3.2 3 1.6 1.5.8.8c.3.3.6.5.9.8 2.4 1.9 4.8 3.5 7.4 5.1l1.8 1.1-.3-2c-.2-1.4-.6-2.6-1.1-3.7-.4-1-.7-2.1-1-3.3-.6-2.3-1.1-4.6-1.7-6.9-.5-2.3-1.1-4.6-1.6-7l-.6-2.4c.3.2.5.4.8.5 1.8 1.1 3.8 1.7 5.7 2.3 3.8 1 7.7 1.8 11.6 2.5 3.9.7 7.8 1.2 11.8 1.4 2 .1 4 .1 6 0 1 0 2-.1 2.9-.1.9 0 1.8.1 2.4.4.3.1.6.4.9.7.3.3.6.7.8.9.4.6.6 1.6.8 2.4.4 1.8.6 3.8.9 5.7.4 3.9.6 7.8.6 11.7 0 4.1-.2 8-.4 11.9zm-67.1-16.3c.8 0 1.4.6 1.4 1.4s-.6 1.4-1.4 1.4-1.4-.6-1.4-1.4.6-1.4 1.4-1.4zm4.4-13.3c.6 0 1.1.5 1.1 1.1s-.5 1.1-1.1 1.1-1.1-.5-1.1-1.1.5-1.1 1.1-1.1zm-3.8 30.6c.7 0 1.3.6 1.3 1.3s-.6 1.3-1.3 1.3-1.3-.6-1.3-1.3.7-1.3 1.3-1.3z" fill="#008fa6" stroke-width="none" opacity="1"></path></g><g id="svga-group-head" transform="matrix(1,0,0,1,0,0)"><g id="svga-group-ears-left-move" transform="matrix(1,0,0,1,0,0)"><g id="svga-group-ears-left"><path id="SvgjsPath16563" d="M62.22 91.07s-9.85-8.65-11.43-8.8c-1.36-.13-4.73 7.07-6.22 11.62-.39 1.2-.3 2.54.22 3.7 1.43 3.16 4.6 9.75 7.44 13.05 0 0 2.4.52 3.16.29s6.69-5 7.3-6.86.74-9.97-.47-13z" fill="#8c5537" stroke-width="none" opacity="1"></path><path id="SvgjsPath16564" d="M63.07 94.44c.16 1.16.25 2.33.29 3.5.05 1.17.05 2.34-.01 3.51-.03.59-.08 1.17-.15 1.76-.05.3-.09.59-.17.9-.09.31-.25.62-.41.85-.64.98-1.41 1.72-2.18 2.48-.78.74-1.58 1.44-2.39 2.12-.41.33-.82.67-1.25.98-.21.16-.43.31-.65.46l-.35.22c-.14.07-.31.15-.47.17-.59.07-1.09-.01-1.61-.08-.51-.07-1.02-.17-1.53-.28l-.12-.03-.07-.09c-1.28-1.53-2.32-3.25-3.3-4.99-.97-1.75-1.85-3.56-2.7-5.38l-1.25-2.75c-.44-.92-.63-2.02-.48-3.05.06-.52.23-1.01.39-1.48s.33-.94.5-1.41c.35-.93.7-1.86 1.07-2.78.76-1.83 1.55-3.65 2.59-5.32.26-.42.54-.82.88-1.2.17-.19.35-.37.6-.52.12-.07.27-.14.46-.14.17.01.28.06.42.1.94.41 1.65 1 2.43 1.56 1.52 1.14 2.98 2.35 4.41 3.61 1.44 1.25 2.85 2.53 4.24 3.87.43 1.1.64 2.26.81 3.41zm-9.79-10.31c-.75-.52-1.54-1.11-2.29-1.42-.08-.02-.18-.07-.23-.07-.03 0-.1.01-.18.06-.15.08-.31.22-.45.39-.3.32-.57.7-.83 1.09-1.02 1.59-1.92 3.33-2.74 5.1-.41.89-.81 1.78-1.16 2.71-.18.46-.35.92-.52 1.39-.17.47-.34.92-.4 1.41-.13.98.06 2 .49 2.88.42.91.86 1.81 1.32 2.7.9 1.78 1.87 3.52 2.88 5.22 1.02 1.69 2.09 3.35 3.32 4.79l-.19-.11c.97.18 2.03.38 2.91.29.1-.01.16-.06.25-.1l.31-.2.62-.45c.41-.3.82-.63 1.23-.95.81-.66 1.6-1.34 2.37-2.06.75-.72 1.52-1.47 2.11-2.3.15-.22.25-.4.33-.63.07-.24.12-.51.17-.78.08-.55.15-1.12.19-1.69.08-1.14.12-2.29.13-3.45.01-1.15-.04-2.31-.13-3.46-.09-1.14-.23-2.32-.59-3.39-2.96-2.34-5.91-4.75-8.92-6.97z" fill="#7d4425" stroke-width="none" opacity="1"></path><path id="SvgjsPath16565" d="M62.45 98.39S52.96 86.4 51.18 87.4s-4.58 6.65-4.57 8.53c.02 2.77 2.95 7.4 4.42 8.8s3.25 2.25 5.6 1.71 5.82-8.05 5.82-8.05z" fill="#7d4425" stroke-width="none" opacity="1"></path><path id="SvgjsPath16566" d="M56.36 101.74c-.34-1.14-.73-2.26-1.13-3.37a93.8 93.8 0 0 0-1.28-3.3c-.45-1.09-.93-2.16-1.46-3.21-.54-1.04-1.08-2.08-1.74-3.05l-.07-.11-.07.11c-.66 1.04-1.28 2.1-1.88 3.2-.3.55-.58 1.1-.85 1.67-.28.56-.51 1.16-.74 1.75l-.04.09.04.11c.41 1.24.84 2.46 1.29 3.69.22.61.48 1.21.73 1.81.26.6.52 1.19.87 1.78l.17.27.22-.2c.3-.28.53-.58.77-.9.23-.32.43-.67.61-1.03.35-.73.56-1.57.53-2.42v-.05l-.02-.04c-.44-.87-.91-1.73-1.36-2.6l-.05.03c.37.91.74 1.83 1.13 2.73l-.02-.09c-.03.77-.26 1.51-.61 2.16-.35.65-.82 1.24-1.32 1.7l.39.07c-.3-.51-.56-1.11-.81-1.69l-.72-1.79c-.48-1.2-.93-2.41-1.38-3.62v.2c.4-1.18.85-2.35 1.38-3.47.52-1.13 1.12-2.22 1.8-3.22h-.14c.63.95 1.08 2.04 1.55 3.11l1.36 3.24 1.38 3.24c.46 1.08.92 2.16 1.41 3.23l.06-.03z" fill="#5e2709" stroke-width="none" opacity="1"></path></g></g><g id="svga-group-ears-right-move" transform="matrix(1,0,0,1,0,0)"><g id="svga-group-ears-right"><path id="SvgjsPath16567" d="M137.78 91.07s9.85-8.65 11.43-8.8c1.36-.13 4.73 7.07 6.22 11.62.39 1.2.3 2.54-.22 3.7-1.43 3.16-4.6 9.75-7.44 13.05 0 0-2.4.52-3.16.29s-6.69-5-7.3-6.86c-.61-1.86-.74-9.97.47-13z" fill="#8c5537" stroke-width="none" opacity="1"></path><path id="SvgjsPath16568" d="M137.75 91.04c1.4-1.34 2.8-2.62 4.24-3.87 1.43-1.26 2.9-2.47 4.41-3.61.78-.55 1.49-1.14 2.43-1.56.14-.04.25-.1.42-.1.19 0 .34.07.46.14.24.15.43.33.6.52.34.38.61.78.88 1.2 1.04 1.67 1.83 3.49 2.59 5.32.38.92.72 1.85 1.07 2.78.17.47.34.94.5 1.41.16.47.33.96.39 1.48.15 1.03-.04 2.13-.48 3.05l-1.25 2.75c-.85 1.82-1.73 3.63-2.7 5.38-.98 1.75-2.02 3.46-3.3 4.99l-.07.09-.11.02c-.51.11-1.02.2-1.53.28-.52.07-1.02.14-1.61.08-.16-.02-.32-.09-.47-.17l-.35-.22c-.22-.15-.44-.3-.65-.46-.43-.32-.84-.65-1.25-.98-.82-.67-1.62-1.38-2.39-2.12-.77-.76-1.54-1.49-2.18-2.48a3.05 3.05 0 0 1-.41-.85c-.09-.31-.13-.61-.17-.9-.07-.59-.12-1.18-.15-1.76-.06-1.17-.06-2.34-.01-3.51.05-1.17.13-2.34.29-3.5.15-1.15.36-2.31.8-3.4zm.06.05c-.35 1.07-.49 2.24-.59 3.39-.09 1.15-.14 2.31-.13 3.46.01 1.15.05 2.3.13 3.45.04.57.11 1.14.19 1.69.05.27.1.54.17.78.08.23.18.42.33.63.59.83 1.36 1.58 2.11 2.3.76.72 1.56 1.41 2.37 2.06.41.33.81.65 1.23.95l.62.45.31.2c.09.04.15.09.25.1.88.09 1.94-.11 2.91-.29l-.19.11c1.23-1.44 2.3-3.1 3.32-4.79a93.9 93.9 0 0 0 2.88-5.22c.45-.89.9-1.79 1.32-2.7.43-.88.62-1.9.49-2.88-.06-.49-.23-.94-.4-1.41-.16-.47-.34-.93-.52-1.39-.35-.92-.76-1.82-1.16-2.71-.82-1.77-1.72-3.51-2.74-5.1-.26-.39-.53-.77-.83-1.09-.15-.16-.31-.3-.45-.39a.314.314 0 0 0-.18-.06c-.05 0-.15.06-.23.07-.75.31-1.54.9-2.29 1.42-3.02 2.23-5.97 4.64-8.92 6.97z" fill="#7d4425" stroke-width="none" opacity="1"></path><path id="SvgjsPath16569" d="M137.55 98.39s9.49-11.99 11.27-10.99 4.58 6.65 4.57 8.53c-.02 2.77-2.95 7.4-4.42 8.8-1.47 1.39-3.25 2.25-5.6 1.71-2.35-.54-5.82-8.05-5.82-8.05z" fill="#7d4425" stroke-width="none" opacity="1"></path><path id="SvgjsPath16570" d="M143.64 101.74c.34-1.14.73-2.26 1.13-3.37.4-1.11.84-2.21 1.28-3.3.45-1.09.93-2.16 1.46-3.21.54-1.04 1.08-2.08 1.74-3.05l.07-.11.07.11c.66 1.04 1.28 2.1 1.88 3.2.3.55.58 1.1.85 1.67.28.56.51 1.16.74 1.75l.04.09-.04.11c-.41 1.24-.84 2.46-1.29 3.69-.22.61-.48 1.21-.73 1.81-.26.6-.52 1.19-.87 1.78l-.17.27-.22-.2c-.3-.28-.53-.58-.77-.9-.23-.32-.43-.67-.61-1.03-.35-.73-.56-1.57-.53-2.42v-.05l.02-.04c.44-.87.91-1.73 1.36-2.6l.05.03c-.37.91-.74 1.83-1.13 2.73l.02-.09c.03.77.26 1.51.61 2.16.35.65.82 1.24 1.32 1.7l-.39.07c.3-.51.56-1.11.81-1.69l.72-1.79c.48-1.2.93-2.41 1.38-3.62v.2c-.4-1.18-.85-2.35-1.38-3.47-.52-1.13-1.12-2.22-1.8-3.22h.14c-.63.95-1.08 2.04-1.55 3.11l-1.36 3.24-1.38 3.24c-.46 1.08-.92 2.16-1.41 3.23l-.06-.03z" fill="#5e2709" stroke-width="none" opacity="1"></path></g></g><g id="svga-group-faceshape-wrap"><g id="svga-group-faceshape-single"><path id="SvgjsPath16597" d="M135.9 49.8c-6.7-7.4-11.3-13.2-28.8-17.3-1.8-.4-12.3-.4-14.1 0-17.5 4.1-22.1 9.9-28.8 17.3-7.1 7.8-9.5 29-9.5 29 0 9.6 1.3 32.3 13.3 47.2 17.8 22.2 32.1 22.3 32.1 22.3s14.2 0 32.1-22.3c12-14.9 13.3-37.6 13.3-47.2-.1 0-2.5-21.2-9.6-29z" fill="#8c5537" stroke-width="none" opacity="1"></path><path id="SvgjsPath16598" d="M107.1 32.5c-1.8-.4-12.3-.4-14.1 0-17.5 4.1-22.1 9.9-28.8 17.3-7.1 7.8-9.5 29-9.5 29 0 9.6 1.3 32.3 13.3 47.2 17.8 22.2 32.1 22.3 32.1 22.3s14.2 0 32.1-22.3c12-14.9 13.3-37.6 13.3-47.2 0 0-2.4-21.2-9.5-29-6.9-7.4-11.5-13.2-28.9-17.3zM142 63.8c.7 2.5 1.1 5 1.6 7.5.4 2.5.7 5 1 7.5-.2 7.4-1.3 14.8-3 22-.9 3.6-1.9 7.1-3.3 10.5-.7 1.7-1.4 3.4-2.2 5s-1.7 3.2-2.7 4.7l-1.5 2.2c-.3.4-3.4 4.2-3.4 4.2l-3.7 4.1-6.1 5.7c-2.8 2.3-5.8 4.5-9 6.2l-1.2.6-1.2.6c-.8.4-1.6.7-2.5 1l-1.3.4c-.4.1-.8.2-1.3.3-.4.1-1.71.43-2.9.4 0 0-1.4-.2-1.9-.3-.4-.1-.9-.2-1.3-.3l-1.3-.4c-.8-.3-1.7-.6-2.5-1l-1.2-.5-1.2-.6c-3.2-1.6-6.3-3.7-9.1-6l-4.1-3.6-3.9-3.9-1-1-.9-1-1.8-2.1c-1.2-1.4-2.3-2.8-3.3-4.4-1-1.5-2-3.1-2.8-4.8-.8-1.6-1.6-3.3-2.3-5.1-.7-1.7-1.3-3.5-1.8-5.3s-1-3.6-1.4-5.4-.8-3.6-1-5.5c-.3-1.8-.5-3.7-.7-5.5-.4-3.7-.5-7.4-.5-11.1.3-2.3.8-4.6 1.2-6.9.5-2.3 1.1-4.6 1.7-6.8.7-2.2 1.4-4.5 2.3-6.6.4-1.1.9-2.1 1.4-3.1s2.59-4.47 6.3-8.1c1.6-1.7 3.3-3.3 5-4.7 3.5-2.8 7.7-4.9 12-6.5l1.6-.6c6.69-2.31 10.6-2.2 11.8-2.3 2.3-.1 4.71-.26 7-.1 3.16.22 6.8 1.4 6.8 1.4 2.3.6 4.5 1.3 6.7 2.3.3.1 1.6.7 1.6.7.5.3 2.6 1.3 3.1 1.7.5.3 5.3 3.7 6.9 5.4 1.7 1.7 3.3 3.4 4.9 5.2 1.7 1.9 2.9 4.2 3.9 6.6 1.1 2.4 1.9 4.8 2.5 7.3z" fill="#5e2709" stroke-width="none" opacity="1"></path></g></g><g id="svga-group-mouth-single-move" transform="matrix(1,0,0,1,0,0)"><g id="svga-group-mouth-single"><path id="SvgjsPath16548" d="M85.15 123.95s3.36-.26 5.22-1.19c3.38-1.69 7.26-2.61 11.47-2.32 5.73.39 10.12 4.71 14.07 3.71 0 0-4.38 4.04-8.8 4.97-4.42.93-11.29.85-14.86-.7-3.57-1.57-7.1-4.47-7.1-4.47z" fill="#904539" stroke-width="none" opacity="1"></path><path id="SvgjsPath16549" d="M100.64 129.91c-3.15 0-6.35-.4-8.47-1.32-3.55-1.54-7.11-4.46-7.14-4.49l-.39-.32.5-.04c.03 0 3.34-.27 5.14-1.17 3.66-1.83 7.55-2.62 11.57-2.35 2.72.18 5.17 1.25 7.33 2.2 2.49 1.09 4.64 2.03 6.68 1.51l.78-.2-.59.54c-.18.17-4.47 4.09-8.89 5.02-1.85.4-4.17.62-6.52.62zm-14.97-5.81c1.01.79 3.84 2.89 6.66 4.12 3.63 1.58 10.48 1.59 14.74.69 3.41-.72 6.84-3.36 8.15-4.45-1.93.2-3.93-.67-6.2-1.66-2.13-.93-4.54-1.99-7.19-2.17-3.95-.27-7.77.51-11.36 2.3-1.47.73-3.78 1.06-4.8 1.17z" fill="#883b2f" stroke-width="none" opacity="1"></path><path id="SvgjsPath16550" d="M82.94 122.29c1.06 1.09 2.48 1.79 3.94 2.11 1.48.35 2.99.13 4.52 0 1.53-.14 3.05-.31 4.57-.47 1.53-.16 3.04-.34 4.63-.39 1.6.01 3.13.28 4.64.48.76.12 1.51.22 2.26.31.75.11 1.5.18 2.24.22.74.05 1.49.05 2.22 0 .75-.06 1.49-.17 2.23-.3.74-.13 1.48-.31 2.21-.52.73-.2 1.45-.45 2.16-.75.03-.01.06 0 .07.03.01.02 0 .05-.02.07-1.29.88-2.75 1.47-4.25 1.91-.75.23-1.52.38-2.3.51-.79.11-1.59.14-2.38.13-.79-.03-1.57-.1-2.34-.19-.77-.1-1.53-.24-2.29-.37-1.51-.28-3.01-.6-4.48-.67-1.48-.01-3.03.12-4.55.23-1.53.11-3.06.23-4.6.31-.77.03-1.53.08-2.31.08-.78.01-1.57-.09-2.32-.3-1.51-.4-2.92-1.19-3.95-2.36a.06.06 0 0 1 0-.08c.04-.01.08-.01.1.01z" fill="#813326" stroke-width="none" opacity="1"></path></g></g><g id="svga-group-eyes-left-move" transform="matrix(1,0,0,1,0,0)"><g id="svga-group-eyes-left"><g id="svga-group-eyesback-left"><path id="SvgjsPath16691" d="M80.2 77.2c7.5 0 13.5 5.8 13.5 13s-6 13-13.5 13-13.5-5.8-13.5-13 6-13 13.5-13z" fill="#ffffff" stroke-width="none" opacity="1"></path></g><g id="svga-group-eyesiriswrapper-left" transform="matrix(1,0,0,1,0,0)"><g id="svga-group-eyesiriscontrol-left" transform="matrix(1,0,0,1,0,0)"><g id="svga-group-eyesiris-left"><path id="SvgjsPath16635" d="M80.2 84.6c3.1 0 5.6 2.5 5.6 5.6s-2.5 5.6-5.6 5.6-5.6-2.5-5.6-5.6 2.5-5.6 5.6-5.6z" fill="#4e60a3" stroke-width="none" opacity="1"></path><path id="SvgjsPath16636" d="M80.2 85.7c2.5 0 4.5 2 4.5 4.5s-2 4.5-4.5 4.5-4.5-2-4.5-4.5 2-4.5 4.5-4.5z" fill="#000000" stroke-width="none" opacity="1"></path><path id="SvgjsPath16637" d="M74.6 90.2c0 .9.2 1.8.6 2.6.8.5 1.8.8 2.8.8 2.9 0 5.3-2.4 5.3-5.3 0-1.2-.4-2.4-1.1-3.3-.6-.2-1.3-.4-2-.4-3.1 0-5.6 2.5-5.6 5.6z" fill="#6777b2" stroke-width="none" opacity="1"></path><path id="SvgjsPath16638" d="M75.7 90.2c0 1.3.5 2.4 1.4 3.3.3.1.6.1 1 .1 2.9 0 5.3-2.4 5.3-5.3 0-.5-.1-1.1-.2-1.6-.8-.7-1.8-1.1-2.9-1.1-2.6.1-4.6 2.1-4.6 4.6z" fill="#1e1e1e" stroke-width="none" opacity="1"></path><path id="SvgjsPath16639" d="M77.7 87.8c.6-.7 1.6-.9 2-.4s.4 1.4-.3 2.1-1.6.9-2 .4-.3-1.4.3-2.1z" fill="#2b2b2b" stroke-width="none" opacity="1"></path></g></g></g><g id="svga-group-eyesfront-left"><path id="SvgjsPath16699" d="M80.2 76.7c-7.8 0-14.1 6.1-14.1 13.6s6.3 13.6 14.1 13.6 14.1-6.1 14.1-13.6S88 76.7 80.2 76.7zm-3.1 16.8c-5-2-8.7-5.1-9-5.9s6.6-2.2 9.6-1.9c3 .3 10.2 3.4 11.2 4.9 1 1.5 1.9 4.5 1.9 4.5-4.6 1.6-8.7.4-13.7-1.6z" fill="#8c5537" stroke-width="none" opacity="1"></path><path id="SvgjsPath16700" d="M89.7 89.6C88 87.4 78.2 85 77.4 84.8c-.3-.1-2.1 0-4.3 0-.5-.4-2.1-1.9-2.6-3.3-.1-.3-.4-.4-.7-.3s-.4.4-.3.7c.4 1.2 1.4 2.3 2.1 3-.6.1-1.2.1-1.8.1-.8-.5-2.2-1.6-2.9-2.8-.2-.3-.5-.3-.7-.2-.3.2-.3.5-.2.7.5.9 1.3 1.7 2.1 2.3-1.3.1-2.5.1-3.3.2-.3 0-.4.5-.1.6l3.4 1.8v.1c.1.2.2.2.3.4l1.2 1.2c.8.7 1.7 1.3 2.7 1.9 1.8 1.2 3.8 2.2 5.9 2.9 2 .8 4.2 1.5 6.3 1.7 2.2.3 4.4.1 6.4-.7.1.2.1.3.2.5.2.3.7.2.6-.2-.4-1.8-1-4.4-2-5.8zm-5.3 5.9c-2.1-.3-4.2-1.1-6.2-1.8-2-.8-4-1.7-5.8-2.8l-2.7-1.8c-.4-.3-.8-.7-1.2-1.1l-.1-.1c1.1-.3 6.8-1.9 8.8-2 .4 0 .7.1 1.1.2 2.5.7 9.5 3.8 10.3 4.9.5.6 1.4 2.6 2.2 4.3-2.1.4-4.3.5-6.4.2z" fill="#000000" stroke-width="none" opacity="1"></path></g></g></g><g id="svga-group-eyes-right-move" transform="matrix(1,0,0,1,0,0)"><g id="svga-group-eyes-right"><g id="svga-group-eyesback-right"><path id="SvgjsPath16692" d="M119.8 77.2c7.5 0 13.5 5.8 13.5 13s-6 13-13.5 13-13.5-5.8-13.5-13 6-13 13.5-13z" fill="#ffffff" stroke-width="none" opacity="1"></path></g><g id="svga-group-eyesiriswrapper-right" transform="matrix(1,0,0,1,0,0)"><g id="svga-group-eyesiriscontrol-right" transform="matrix(1,0,0,1,0,0)"><g id="svga-group-eyesiris-right"><path id="SvgjsPath16640" d="M119.8 85.3c2.7 0 4.9 2.2 4.9 4.9s-2.2 4.9-4.9 4.9-4.9-2.2-4.9-4.9 2.2-4.9 4.9-4.9z" fill="#4e60a3" stroke-width="none" opacity="1"></path><path id="SvgjsPath16641" d="M119.8 86.2c2.2 0 4 1.8 4 4s-1.8 4-4 4-4-1.8-4-4 1.8-4 4-4z" fill="#000000" stroke-width="none" opacity="1"></path><path id="SvgjsPath16642" d="M114.9 90.2c0 .8.2 1.6.6 2.3.7.4 1.5.7 2.4.7 2.6 0 4.6-2.1 4.6-4.6 0-1.1-.4-2.1-1-2.9-.5-.2-1.1-.3-1.7-.3-2.7-.1-4.9 2.1-4.9 4.8z" fill="#6777b2" stroke-width="none" opacity="1"></path><path id="SvgjsPath16643" d="M115.8 90.2c0 1.1.5 2.2 1.2 2.9.3.1.6.1.8.1 2.6 0 4.6-2.1 4.6-4.6 0-.5-.1-.9-.2-1.4-.7-.6-1.6-.9-2.5-.9-2.1-.1-3.9 1.7-3.9 3.9z" fill="#1e1e1e" stroke-width="none" opacity="1"></path><path id="SvgjsPath16644" d="M117.6 88.1c.6-.6 1.4-.8 1.8-.4.4.4.3 1.2-.2 1.8s-1.4.8-1.8.4c-.4-.4-.3-1.2.2-1.8z" fill="#2b2b2b" stroke-width="none" opacity="1"></path></g></g></g><g id="svga-group-eyesfront-right"><path id="SvgjsPath16701" d="M119.8 76.7c-7.8 0-14.1 6.1-14.1 13.6s6.3 13.6 14.1 13.6 14.1-6.1 14.1-13.6-6.3-13.6-14.1-13.6zm3.4 16.1c-4.7 1.9-8.4 3.1-13 3.6 0 0 1.7-3.9 2.7-5.4s9.3-5 12-5.1 7.1 1.9 6.7 2.7c-.3.7-3.7 2.3-8.4 4.2z" fill="#8c5537" stroke-width="none" opacity="1"></path><path id="SvgjsPath16704" d="M135.6 86.6c-.8-.1-2-.2-3.3-.4.8-.7 1.1-1.4 1.1-1.4.1-.3.1-.6-.2-.8-.3-.2-.6-.1-.7.2 0 0-.6 1-1.8 1.8-.5-.1-1-.1-1.4-.2 1-1.2 1.2-2.7 1.2-2.8 0-.3-.2-.6-.5-.7s-.6.2-.6.5c0 0-.2 1.7-1.5 2.7l-.1.1c-2-.2-3.7-.4-4-.3-.8.2-9.9 2.2-11.7 4.5-1.1 1.5-1.9 4.7-2.3 6.7-.1.3.3.4.4.2.1-.1.1-.3.2-.4 4-.3 7.8-1.4 11.6-2.8 1.9-.7 3.8-1.5 5.7-2.4.9-.4 1.9-.9 2.8-1.5.2-.1.4-.3.7-.5l.3-.3 4-1.8c.4-.1.4-.4.1-.4zm-5.1 2.6c-.9.5-1.8.9-2.8 1.3-.9.4-1.9.8-2.8 1.2-.9.4-1.9.8-2.9 1.2-1.9.7-3.8 1.5-5.8 2-1.8.6-3.7.9-5.5 1.3.8-1.8 2-4.3 2.6-5 .9-1.2 11.4-4.9 12.9-5 1.3-.1 4.1 2.2 4.8 2.7-.2.1-.4.2-.5.3z" fill="#000000" stroke-width="none" opacity="1"></path></g></g></g><g id="svga-group-facehighlight-single"></g><g id="svga-group-eyebrows-left-move" transform="matrix(1,0,0,1,0,0)"><g id="svga-group-eyebrows-left-rotate" transform="matrix(1,1.7453292519943295e-9,-1.7453292519943295e-9,1,1.2995914744351467e-7,-1.3809918186780124e-7)"><g id="svga-group-eyebrows-left"><path id="SvgjsPath16741" d="M64.55 76.13s7.64-5.4 8.86-5.62 19.49 3.09 19.95 4.12c.46 1.03-.07 3.12-1.4 3.76-1.33.64-12.63-3.98-17.91-5.17-2-.45-9.5 2.91-9.5 2.91z" fill="#2a232b" stroke-width="none" opacity="1"></path><path id="SvgjsPath16742" d="M64.52 76.15c.01.02.08.01.08 0l.03-.01.06-.02.12-.05.23-.09.47-.18.94-.35c.63-.23 1.26-.45 1.89-.67 1.26-.44 2.54-.84 3.83-1.12.32-.07.64-.12.96-.16.32-.03.63-.04.89.02.64.16 1.28.34 1.92.54 1.27.39 2.55.8 3.81 1.23 2.54.85 5.07 1.71 7.65 2.49.64.19 1.29.39 1.95.55.66.16 1.32.33 2.04.38.19 0 .37.02.62-.06l.09-.03.06-.04.12-.07c.08-.04.15-.1.23-.16.29-.23.51-.51.69-.8.34-.59.52-1.24.53-1.9 0-.33-.03-.67-.16-.99-.02-.05-.02-.07-.06-.13-.04-.07-.09-.09-.13-.13-.08-.06-.16-.1-.24-.14-.16-.08-.32-.13-.48-.19-.65-.22-1.3-.39-1.95-.55-1.31-.33-2.62-.61-3.94-.9-2.63-.58-5.25-1.18-7.9-1.68-1.33-.24-2.66-.47-4.01-.63-.34-.04-.68-.08-1.03-.09-.09 0-.18-.01-.28-.01-.05 0-.1 0-.17.01-.06.01-.1.03-.15.04-.21.06-.36.14-.52.22-.62.32-1.18.67-1.74 1.02-1.12.71-2.19 1.48-3.27 2.24-.54.38-1.07.77-1.59 1.17l-.79.59-.39.3-.19.15-.1.08c-.05.01-.1.08-.12.12zm.92-.49-.34.16.32-.2.83-.53 1.67-1.06c1.11-.71 2.23-1.41 3.36-2.09.56-.34 1.14-.67 1.71-.95l.21-.1c.07-.04.13-.04.19-.07l.09-.03h.08c.07 0 .15 0 .23.01.32.02.65.06.98.1 1.32.18 2.65.38 3.98.59 1.33.2 2.66.4 3.99.62 1.33.22 2.65.45 3.97.72 1.32.27 2.63.57 3.92.92.65.17 1.29.36 1.9.6.15.06.3.12.44.19.07.04.13.07.18.11.02.02.05.04.04.04.01 0 .02.06.03.08.09.27.11.57.09.87a3.7 3.7 0 0 1-.57 1.69c-.17.25-.37.47-.6.64-.06.04-.12.09-.18.12l-.09.05-.05.03h-.03c-.07.03-.24.02-.38.01-.62-.06-1.27-.24-1.91-.42-.64-.18-1.28-.38-1.91-.58-2.54-.82-5.05-1.74-7.61-2.57-1.28-.41-2.56-.82-3.86-1.17-.65-.18-1.31-.35-1.98-.49-.4-.09-.77-.05-1.12 0-.35.05-.69.12-1.02.2-1.33.34-2.58.82-3.83 1.32-.62.25-1.23.52-1.84.79l-.89.4z" fill="#1b141c" stroke-width="none" opacity="1"></path></g></g></g><g id="svga-group-eyebrows-right-move" transform="matrix(1,0,0,1,0,0)"><g id="svga-group-eyebrows-right-rotate" transform="matrix(1,1.7453292519943295e-9,-1.7453292519943295e-9,1,1.365545756470965e-7,-2.1299837271726574e-7)"><g id="svga-group-eyebrows-right"><path id="SvgjsPath16743" d="M135.56 80.74s-6.82-5.75-7.95-6.03c-1.13-.28-18.27 2.16-18.75 3.17-.48 1.01-.1 3.12 1.11 3.82s11.94-3.37 16.91-4.31c1.88-.36 8.68 3.35 8.68 3.35z" fill="#2a232b" stroke-width="none" opacity="1"></path><path id="SvgjsPath16744" d="m135.5 80.64-.09-.08-.17-.16-.35-.32-.7-.63c-.47-.42-.94-.84-1.42-1.24-.96-.81-1.92-1.62-2.93-2.39-.5-.38-1.01-.76-1.56-1.1-.14-.08-.28-.17-.47-.24-.05-.02-.09-.04-.14-.05-.06-.01-.12-.02-.16-.02-.09-.01-.18-.01-.26-.01-.33 0-.64.02-.96.05-1.26.1-2.51.26-3.76.44-2.49.37-4.96.85-7.43 1.3-1.24.23-2.47.45-3.7.72-.61.14-1.23.28-1.84.46-.15.05-.31.1-.46.17-.08.03-.15.07-.23.13-.04.04-.08.06-.13.12-.04.06-.04.09-.06.13-.13.32-.18.65-.2.98-.02.66.12 1.32.4 1.93.15.3.34.59.6.83.06.06.13.12.2.17l.11.08.06.04.08.04c.23.09.39.08.57.09.68-.02 1.29-.15 1.92-.28.62-.13 1.23-.3 1.84-.46 2.43-.66 4.83-1.4 7.24-2.13 1.2-.37 2.4-.72 3.6-1.05.6-.16 1.21-.32 1.81-.44.24-.06.54-.03.83.02.29.05.59.12.89.21 1.18.35 2.35.81 3.5 1.3.57.25 1.15.5 1.72.76l.85.4.43.2.21.1.11.05.05.03.03.01c-.01 0 .06.02.07 0a.339.339 0 0 0-.1-.16zm-1.56-.86c-.55-.3-1.11-.6-1.67-.88-1.13-.55-2.27-1.1-3.49-1.5-.31-.1-.62-.18-.94-.25-.32-.06-.67-.11-1.04-.05-.63.11-1.25.25-1.86.39-1.23.29-2.44.64-3.65.99-2.41.71-4.8 1.5-7.2 2.21-.6.17-1.2.34-1.81.49-.6.15-1.21.29-1.79.33-.13.01-.29 0-.36-.03l-.03-.01-.04-.03-.08-.06a.653.653 0 0 1-.16-.13c-.21-.18-.39-.41-.53-.67a3.91 3.91 0 0 1-.44-1.71c0-.3.03-.6.13-.86.01-.03.03-.08.03-.08l.04-.04c.05-.04.11-.07.18-.1.13-.07.28-.12.42-.17.58-.21 1.19-.36 1.8-.5 1.22-.29 2.45-.53 3.69-.73 1.24-.21 2.48-.37 3.73-.53 1.25-.16 2.49-.3 3.74-.43 1.25-.14 2.49-.28 3.73-.4.31-.03.62-.05.92-.06h.21c.03 0 .06.01.07.01.02.01.05.02.08.03.06.03.11.04.17.08l.19.11c.52.31 1.04.66 1.54 1.03 1.01.73 2.02 1.48 3.02 2.24l1.5 1.14.75.57.28.22-.31-.18-.82-.44z" fill="#1b141c" stroke-width="none" opacity="1"></path></g></g></g><g id="svga-group-nose-single-move" transform="matrix(1,0,0,1,0,0)"><g id="svga-group-nose-single"><path id="SvgjsPath16731" d="M109.52 109.12c-.37-.88-.94-1.63-1.59-2.29.5.77.95 1.58 1.22 2.42.13.42.21.86.14 1.25-.04.2-.1.36-.23.53-.12.17-.25.34-.41.47-.61.58-1.49.8-2.35.68-.43-.05-.87-.17-1.28-.35-.39-.14-.76-.35-1.13-.54.33-.49.63-1.01.89-1.55-.86.8-1.66 1.61-2.52 2.32-.43.35-.86.7-1.32.96-.45.27-.94.48-1.33.46-.1.01-.18-.02-.27-.03-.08-.05-.15-.05-.26-.14-.21-.13-.43-.31-.65-.48-.44-.34-.87-.72-1.31-1.08-.87-.74-1.75-1.48-2.69-2.17.44.7.95 1.34 1.47 1.97-.44.2-.89.36-1.34.46-.56.11-1.15.13-1.62-.09-.95-.47-1.51-1.61-1.35-2.58.04-.25.12-.44.26-.65.15-.23.32-.46.49-.69.35-.45.72-.9 1.11-1.33l.58-.65c.23-.25.4-.49.58-.74.36-.5.68-1.03.94-1.61.26-.57.42-1.23.52-1.81.1-.59.2-1.18.26-1.77.13-1.18.24-2.36.27-3.55.08-2.37.02-4.76-.45-7.08.05 2.36-.12 4.7-.35 7.03-.13 1.16-.26 2.33-.44 3.48-.09.58-.18 1.15-.28 1.72-.11.58-.23 1.07-.47 1.57-.22.5-.5.99-.82 1.45-.16.23-.33.47-.5.65-.2.23-.39.45-.58.68-.38.46-.74.94-1.09 1.43-.17.25-.35.5-.5.77-.18.29-.3.67-.32 1-.11 1.38.74 2.67 1.98 3.12.64.2 1.29.1 1.86-.1.47-.16.9-.4 1.31-.67.21.25.41.5.63.74.39.44.8.84 1.24 1.25.22.2.45.39.72.57.11.09.32.19.5.27.19.05.39.1.58.1.77 0 1.36-.33 1.88-.66.51-.36.96-.75 1.36-1.2.39-.42.74-.87 1.06-1.34.66.58 1.44 1.09 2.36 1.27.47.1.98.11 1.46 0 .48-.12.94-.36 1.31-.7.19-.17.34-.37.48-.57.15-.2.26-.48.28-.73.03-.54-.1-1.03-.29-1.47z" fill="#5e2709" stroke-width="none" opacity="1"></path></g></g><g id="svga-group-hair-front"><path id="SvgjsPath16839" d="M176.9 108.7c.1 0 .1-.1 0 0 1-1 1.5-2.3 1.6-3.6.2-2.2-.6-4.4-1.9-6.1-.8-1-1.7-1.8-2.9-2.2.2-.4.4-.9.5-1.3.3-1.1.1-2.2-.1-3.3-.3-1.7-1.1-3.7-2.8-4.4-.8-.3-1.5-.5-2.3-.3.6-1.6.6-3.4-.1-5-.6-1.5-1.8-2.8-3.2-3.6-.8-.4-1.7-.7-2.6-.8-.3 0-1.9 0-1.5.2-.1 0-.2-.1-.3-.1.3-1.7.1-3.7-.3-5.2-.8-3.2-2.5-5.5-5.2-7 0-1.7-.2-3.5-.5-4.8-.7-2.9-2.5-6.3-5.4-7.4v-.3c.1-.1.1-.2.1-.3.1-.5.1-1 0-1.6-.1-.7-.3-1.2-.6-1.9-.5-1-1.2-2.1-2.1-2.9-.9-.8-1.9-1.3-3-1.2-.5-1.5-1.4-2.8-2.6-3.9-1.5-1.3-3.3-2.2-5.2-2.5-1.2-.2-2.2 0-3.1.2-.3-1.5-.9-3-1.6-4.1-1.8-2.8-4.6-3.9-7.8-2.8-.4.2-.7.4-1 .6-2.8-3-7.5-4.5-10.2-1.8-1.1-.8-2.4-1.3-3.8-1.5-1.7-.7-3.6-.6-5.2.5-.3-.2-.7-.4-1.2-.5-1.2-.3-2.6-.1-3.6.8-.2.2-.5.5-.6.9-1.8-2.1-5.1-3.2-7.5-2.7-1.6.3-3 1.4-3.8 2.7-.3.5-.5 1-.6 1.4-2.7-2.3-6.6-3.4-9.8-1.4-1.5.9-3.1 3.2-3.3 5.3-1.5-1.3-3.6-1.8-5.5-1.1-1.9.6-3.3 2.2-3.8 4.1-.2.8-.2 1.6.1 2.3-2.7-.1-5.5.6-7.2 2.7-1.1 1.4-1.7 3.1-1.7 4.9 0 .7.1 1.3.3 2-1.5.2-2.9.8-4.1 1.6-2 1.3-3.7 3.1-4.4 5.4-.3 1-.5 2.1-.3 3.1-1.7.1-3.2.8-4.5 1.8-1.7 1.5-2.6 3.8-2.6 6-.3 1.6-.2 3.3.3 4.8-3.4.7-6.7 3.9-7.7 6.9-1.1 3.4 0 7.8 2.6 10.4-4.5 1.4-7.8 7-6.5 11.8.5 1.7 1.5 3.2 2.9 4.2-.1 0-.2 0-.3.1-4.2 1.2-5.9 6-4.9 9.9.5 1.8 1.5 3.2 2.9 4.2l-.3.6c-.2.1-.4.2-.5.2-.9.5-1.5 1.3-1.9 2.3-.5.7-.9 1.4-1.1 2.3-.6 3.2 1.7 6.5 5.1 6.6h.5c1 .8 1.4 1.9 2.4 2.8.8.7 1.8 1.1 2.8 1.4.6.2 1.3.3 1.9.3h1.3c2 .8 4.2.8 6.2.2l.9.6c.7.7 1.5 1.2 2.4 1.5.9.3 1.9.4 2.9.2.8.4 1.6.7 2.6.7.6 0 1.1-.1 1.6-.3.3.3.7.5 1.1.6.5.5 1.2.9 1.9 1.1 2.8.7 5.3-1.7 5.3-4.4 0-1.2-.4-2.1-1.1-2.9.5-.8.8-1.7.8-2.6 0-1.8-1-3.4-2.5-4.3.8-1.2 1.2-2.7 1.3-4.1 0-1.8-.8-3.5-2.1-4.6.3-.7.5-1.5.4-2.2 0-1.1-.3-2.2-.8-3.2l-.6-.9c1-.9 1.7-2.1 1.5-3.5-.1-.9-.4-1.7-1-2.4.5-1 .7-2.2.4-3.3-.3-1.1-.9-2-1.7-2.6.6-.5 1-1.2.9-2 0-.5-.2-1-.4-1.5 2.3-1.1 2.9-4.1 1.8-6.3 1.4-1 2.5-2.4 3-4.1.1-.6.3-1.4.3-2 0-.3 0-.7-.1-1 0-.3-.1-.7-.2-1.1-.2-.6-.4-1.2-.8-1.7-.1-.4-.3-.7-.5-1.1-.5-1-1.4-1.7-2.3-2.3h-.1v-.4c.2-.2.3-.4.5-.6.6-.6 1-1.3 1.2-2.2.1-.3.2-.6.1-.9.1-.4.1-.8.1-1.3.9 0 1.8-.1 2.7-.2.1.2.2.5.4.7.2.2.5.2.6-.1.1-.2.1-.5.2-.7 4.8-.7 9.6-2 14.3-2.6 6.9-.9 13.8-1.3 20.7-1.2 3 0 6.1.2 9.1.4 1.5.1 4.6-22.2 4.6-22.2.9 2.4 1.4 6.1 1.8 10.5.6 6.8-.5 12.5-.5 12.5s11.5 1.9 20.7 5c.6.2.1 1.3.3 1.9.3 1.2 1 2.3 1.9 3.1.2.2.4.4.7.6.5.4 1.1.7 1.6.9-.2.2-.4.3-.6.6-1 1-1.5 2-1.9 3.4-.8 2.7.2 5.6 2.1 7.6.5.5 1.1.9 1.7 1.2-.1 0-.2.1-.4.1-1.1.5-1.9 1.2-2.5 2.2-.1.1-.2.1-.3.2-.2.2-.3.4-.5.6-.5.6-.7.9-.9 1.8-.4 1.7-.1 3.2 1 4.6l.3.3c-1.2 1-2.1 2.3-2.5 3.8-.3 1.1-.3 2.3 0 3.4 0 2 1.1 4.1 2.7 5.4-.1.1-.1.2-.1.3-.1 0-.2.1-.3.2-1.3.7-2.3 2.2-2.1 3.7.1.8.3 1.6.8 2.3-1.2.8-2.1 2.1-2.2 3.7-.1 1.1.1 2.3.7 3.3.2.3.4.6.6.8-.3.3-.5.6-.7.9-.2.5-.4.9-.4 1.4-.3 1.6.2 3.4 1.8 4.5 0 .1-.1.2-.1.3-.2 1.1 0 2.1.8 2.8.8.8 2.1 1.1 3.2.7.9-.3 1.6-.8 2-1.6.5.8 1.3 1.4 2.2 1.7 1.1.5 2.5.7 3.8.4 1-.2 1.9-.6 2.6-1.2 2.7 1.6 6.5.4 8.3-2.3.4-.7.7-1.4 1-2.1.9.4 2 .5 3 .2 1.2-.3 2.3-1 3-2 .9.3 2 .4 3 .2 2.3-.5 4.4-2.6 4.4-5 2-.4 3.8-1.6 4.3-3.5.2-1 .1-2.1-.2-3 .9-.7 1.5-1.8 1.7-3 .1-.7.1-1.2-.1-1.9-.1-.3-.2-.6-.4-.9.3-.6.6-1.2.8-1.9.7-2.9-1.1-6.5-4-7.6zM116 37.2c0-.3 0-.6-.1-.9.5.4.9.9 1.2 1.4-.3-.2-.7-.3-1.1-.5z" fill="#2a232b" stroke-width="none" opacity="1"></path><path id="SvgjsPath16840" d="M90.6 27.6c-1.3.2-2.6.9-3.6 1.8-.8.7-1.4 1.7-1.8 2.7-1-.5-2.1-1-3.2-1.4-1.4-.5-2.9-.7-4.4-.5-1.6.2-3 1-4 2.2-.5.6-.9 1.3-1.1 2.1 0 .2-.1.3-.1.5-.7-.3-1.5-.6-2.3-.6-1.4-.1-3 .2-4.2 1.1-2.1 1.6-2.9 4.4-2.2 6.8-1 0-1.9.2-2.8.6-1.2.5-2.3 1.3-3.2 2.2-.9.9-1.6 2.1-2 3.3-.4 1.1-.5 2.2-.3 3.3-2.6-.3-5.3.6-7 2.6-1.7 1.9-2.3 4.7-1.8 7.2-2.9-.2-5.9 1.2-7.5 3.7-1.5 2.3-1.7 5.4-.5 8-3.6.7-6.8 3.3-8.1 6.8-.7 1.9-.8 4.1-.4 6.1.3 1.6 1 3 2 4.3-2.9 1.7-5 4.7-5.5 8s.5 6.8 2.6 9.3c-2.4 1.4-4.1 4-4.2 6.7-.1 1.6.4 3.2 1.2 4.5.6 1 1.5 1.9 2.5 2.6-1.5.8-2.6 2.2-3.2 3.7-.7 1.8-.8 3.9.1 5.7l.2-.1c-.7-1.7-.4-3.7.4-5.3.8-1.6 2.2-2.9 3.9-3.4l1.2-.4-1.2-.6c-1.2-.6-2.1-1.6-2.8-2.8-.6-1.2-.9-2.5-.8-3.8.2-2.6 2.1-4.9 4.5-5.7l1.4-.4-1.1-1.1c-2.2-2.2-3.3-5.6-2.8-8.6.6-3 2.7-5.8 5.6-7l1.5-.6-1.1-1.1c-2.4-2.3-3.3-6.2-2.2-9.3 1.1-3.2 4.2-5.7 7.6-6l1.4-.2-.8-1.1c-1.5-2.1-1.7-5.2-.4-7.5 1.3-2.3 4.2-3.8 7-3.5l.7.1-.2-.6c-.9-2.3-.3-5.2 1.3-7.1 1.7-1.9 4.4-2.8 6.9-2.3l.5.1-.1-.6c-.2-1.1 0-2.3.4-3.4s1.1-2 1.9-2.8c1.7-1.6 4-2.5 6.1-2.1l1.4.3-.6-1.3c-.9-2-.2-4.6 1.6-5.8.8-.6 1.9-.9 3-.8s2.1.5 2.8 1.2l3.1 3-1.6-3.9c-.4-.9-.1-2.1.7-3s1.8-1.5 2.9-1.7c1.2-.2 2.5 0 3.7.4 1.2.4 2.5.9 3.7 1.5l.8.3.2-.8c.2-1.1.8-2.1 1.6-3 .8-.8 1.8-1.4 3-1.7 2.3-.6 4.9.3 6.5 2.2l.2-.1c-1.5-2.1-4.3-3.3-7-2.9zm-.1 6.4c1.1-1.1 3.2-1.2 4.6 0l.1-.1c-1.2-1.4-3.6-1.6-5.2-.4-1.2.9-1.6 2.5-1.3 4-1.9-.7-4.2-.7-6.1 0-2.2.7-4.1 2.2-5.2 4.3-1.1-.4-2.3-.6-3.6-.6-1.5.1-3 .6-4.2 1.5-2.2 1.6-3.5 4.3-3.4 7-1.2.1-2.4.4-3.4.9-1.3.7-2.5 1.6-3.4 2.8-.9 1.1-1.6 2.5-1.9 3.9-.3 1.3-.3 2.6-.1 3.8-2.7-.1-5.3 1.5-6.4 3.9-1 2.2-.6 4.9.9 6.8-1.1-.1-2.1.2-3.1.7-1.3.7-2.4 1.8-3 3.2-.8 2.1-.3 4.7 1.1 6.4-2.3.4-4.3 2-5.2 4.2-.6 1.5-.6 3.1-.1 4.6.3.9.8 1.8 1.4 2.5-2.2 1.1-3.9 3.1-4.5 5.5-.7 2.6 0 5.5 1.8 7.6-.5.7-.9 1.5-1.2 2.3-.3 1.2-.4 2.4-.2 3.5.2 1.2.6 2.3 1.3 3.3.5.7 1 1.3 1.7 1.8-1.3 1.7-1.9 3.9-1.8 5.9.1 2.2 1 4.4 2.6 5.9-.6.4-1.1 1-1.5 1.7-.5.9-.8 1.8-.9 2.8s0 2 .4 2.9c.3.9.9 1.7 1.7 2.3l.1-.1c-1.4-1.2-1.8-3.2-1.5-4.9.3-1.7 1.3-3.3 2.9-4l.8-.3-.7-.6c-1.6-1.4-2.4-3.5-2.3-5.6 0-2.1.8-4.2 2.3-5.5l1-.8-1.2-.6c-1.6-.8-2.6-2.5-2.8-4.3-.2-1.8.3-3.7 1.5-4.8l.8-.7-.8-.8c-1.6-1.5-2.4-4.1-1.8-6.2.5-2.2 2.4-4.1 4.6-4.6l2.2-.6-2-1.5c-1.9-1.2-2.8-3.9-2-6 .8-2.1 3.2-3.7 5.5-3.3l5 .7-4.5-2.2c-2.1-1-3.3-3.8-2.5-6 .8-2.3 3.5-3.8 5.9-3.3l1.8.4-1.4-1.1c-2-1.5-2.7-4.5-1.7-6.8 1-2.3 3.7-3.8 6.1-3.5l.5.1-.1-.5c-.3-1.3-.2-2.6.2-3.9.4-1.2 1.1-2.4 1.9-3.4 1.6-1.8 4-3 6.4-2.9l-.1.1c-.4.5-.7 1.2-.8 1.9-.1.5 0 1.1.2 1.6-1.2.6-2.1 1.5-2.7 2.7-.6 1.1-.9 2.5-.7 3.8-.7.4-1.3 1-1.7 1.7-.5.8-.9 1.7-1.1 2.7-.2.9-.2 1.9.1 2.9.1.6.4 1.1.7 1.6-1.6.8-2.8 2.3-3 4.1-.3 1.9.4 3.9 1.8 5.1-.9.6-1.6 1.4-2.1 2.3-.6 1.1-1 2.3-1.2 3.5-.1 1.2 0 2.5.4 3.7.3 1 .9 1.9 1.6 2.7-1.8.8-3.2 2.6-3.5 4.6-.2 1.9.5 3.8 1.9 5.2-1.6 1.3-2.6 3.3-2.5 5.4.1 2 1.1 3.8 2.6 5-.5.5-.9 1-1.2 1.6-.5 1-.8 2.2-.9 3.3 0 1.1.1 2.3.6 3.4.3.7.8 1.4 1.3 2-1.2 1.6-1.8 3.6-1.7 5.5 0 2 .7 3.9 2 5.4-1.6 1.2-2.5 3.2-2.4 5.1.1 2.2 1.5 4.3 3.5 5.1l.1-.2c-1.7-1.1-2.8-3-2.7-4.9.1-1.9 1.3-3.6 3-4.3l.9-.4-.8-.8c-1.3-1.3-1.9-3.2-1.8-5 0-1.8.8-3.6 2-4.8l.9-.8-1-.7c-1.3-1-1.9-2.7-1.8-4.4.1-1.7.9-3.3 2.2-4.2l1.2-.8c-.3.7-.5 1.4-.5 2.1-.1 1.2.1 2.3.6 3.3.4.8.9 1.6 1.7 2.1-.5.3-.9.8-1.2 1.3-.4.7-.6 1.6-.5 2.4 0 .8.4 1.6.9 2.2.5.6 1.2 1.1 2 1.2v-.1c-.8-.1-1.4-.7-1.8-1.3-.4-.6-.6-1.3-.6-2.1s.2-1.4.6-2c.4-.6.9-1.1 1.5-1.2l1-.2-.9-.5c-.8-.5-1.4-1.3-1.8-2.2-.4-.9-.5-1.9-.5-2.9.1-1 .4-1.9 1-2.6.6-.8 1.4-1.3 2.3-1.7l1.1-.5-1.1-.4c-1-.4-2-1.1-2.7-1.9-.7-.9-1.1-1.9-1.2-3.1-.1-1.1.1-2.3.6-3.4s1.3-2 2.3-2.5l.3-.2-.3-.2c-.7-.5-1.2-1.2-1.5-2-.3-.8-.5-1.7-.3-2.6.1-.9.4-1.7.9-2.4s1.2-1.2 2-1.4l.6-.1-.5-.4c-.6-.5-1.1-1.3-1.3-2.1-.3-.8-.4-1.6-.4-2.5s.1-1.7.4-2.5c.2-.8.7-1.5 1.2-2.1l.5-.4-.6-.2c-.7-.3-1.2-.8-1.6-1.4-.4-.6-.7-1.4-.8-2.2-.2-1.1-.2-2.4.2-3.5.2-.1.3-.1.5-.2l1.5-.3-1-1.2c-.9-1-1.3-2.6-1-4 .2-1.4 1-2.8 2.3-3.5l.6-.3-.2-.6c-.6-2.2.6-4.9 2.8-5.9l.6-.3-.4-.5c-.6-.8-.5-2 .1-3 .1-.1.2-.3.3-.4l.6.1-.1-.6c.6-.5 1.3-.8 2.1-.7v-.2c-.6-.2-1.3-.1-1.9.1-.1 0-.2.1-.3.1-.2-2.3.9-4.8 2.8-6.1 1.9-1.4 4.7-1.6 6.8-.5l.9.5.3-.9c.7-2 2.5-3.6 4.5-4.4 2-.8 4.4-.9 6.4.2l2.4 1.3-1.7-2.1c-1.2-1.4-1.1-3.4.1-4.4zm-30.2 73.1c.6.8 1.3 1.4 2.1 1.8-.7.4-1.3.9-1.8 1.5-.2.2-.3.4-.4.7l-1.5-.6c-1.6-.6-2.8-2.3-2.9-4.1-.1-1.7.8-3.6 2.4-4.5l1.2-.7c-.2.7-.3 1.5-.3 2.3 0 1.3.4 2.6 1.2 3.6zm.5-34.6c-.2.8-.2 1.7-.1 2.5s.3 1.7.8 2.4c.3.6.8 1.2 1.4 1.6-.5.6-.9 1.3-1.2 2-.3.9-.4 1.8-.4 2.8 0 .9.2 1.9.6 2.8.3.7.8 1.4 1.3 1.9-.7.3-1.3.9-1.7 1.6-.5.8-.8 1.7-.9 2.6-.1.9.1 1.9.4 2.7.3.8.8 1.5 1.4 2a5.563 5.563 0 0 0-2.9 3.8l-1.3-.7c-1.5-.8-2.6-2.6-2.5-4.4.1-1.8 1.4-3.6 3.2-4.2l.7-.2-.5-.4c-.9-.7-1.6-1.7-2-2.8s-.5-2.3-.4-3.4.5-2.3 1.2-3.2c.6-1 1.5-1.7 2.5-2.2l.7-.3-.7-.5c-1.3-1.1-1.9-2.9-1.5-4.4.3-1.2 1.3-2.3 2.4-2.8-.3.2-.4.5-.5.8zm119.3 36.1c-.2-.8-.7-1.4-1.4-1.8-.4-.2-.8-.4-1.2-.5 1.2-1.7 1.4-4.1.6-6.1-.8-1.8-2.5-3.2-4.4-3.7 1.2-1.9 1.3-4.4.3-6.6-.7-1.3-1.8-2.3-3-2.9-.7-.3-1.4-.5-2.1-.7 1-2.3.8-4.9-.6-7.1-.9-1.3-2.2-2.3-3.6-2.8-.9-.3-1.8-.5-2.8-.5.3-.9.4-1.8.4-2.8 0-1.5-.4-3-1.1-4.3-.7-1.3-1.6-2.5-2.8-3.5-.9-.8-2-1.3-3.2-1.6.6-2.1.3-4.4-.6-6.3-1-2.1-2.7-3.8-4.9-4.6.2-.8.2-1.8 0-2.6-.2-1-.7-1.9-1.3-2.6s-1.4-1.4-2.2-1.9c-.8-.4-1.7-.6-2.6-.6-.1-1.2-.6-2.3-1.2-3.2-.7-1-1.6-2-2.7-2.7-1.1-.7-2.3-1.2-3.5-1.4-.9-.2-1.9-.2-2.9 0-.1-2.2-1.2-4.3-3.1-5.5-1.1-.7-2.4-1-3.6-1-1 0-1.9.2-2.8.6-.5-.7-1.2-1.3-1.9-1.7-1-.6-2.1-1-3.2-1.1-1.1-.1-2.3 0-3.3.3-.8.3-1.6.7-2.3 1.2-1.2-1.2-2.9-1.9-4.5-2-1.8-.2-3.6.2-5 1.3-.8-.9-2-1.2-3.1-.8-.4.1-.8.4-1.1.7.1-.1.2-.3.3-.4.8-.8 2.1-1.1 3.2-.8l.5.2.1-.5c.2-1.5 1-3 2.5-3.6.7-.3 1.5-.4 2.3-.3.8.1 1.5.5 2.1 1l.4.3.1-.5c.3-1.1 1.3-2.1 2.3-2.2 1.1-.2 2.3.4 2.8 1.3l.6.9.4-1c.5-1.2 1.7-2.2 3.1-2.3s2.8.6 3.6 1.9h.1c-.2-.7-.8-1.4-1.4-1.9s-1.5-.8-2.3-.8c-1.4 0-2.8.7-3.7 1.9-.9-.9-2.2-1.3-3.4-1-1.3.3-2.4 1.4-2.7 2.7-1.4-.7-3.1-.8-4.5-.2-1.4.5-2.7 1.8-3.1 3.3-1.3-.3-2.7.2-3.6 1.2-.9 1.2-1 2.8-.2 4h.1c-.1-.3-.2-.6-.2-.9h.1c0-1.1.8-2.1 1.8-2.3 1-.2 2.1.3 2.5 1.1l.2.5.4-.3c1.3-1 3-1.3 4.7-1.1 1.6.2 3.1 1.1 4 2.4l.5.7.7-.7c1.2-1.3 3.1-1.7 4.9-1.5 1.8.2 3.4 1.3 4.2 2.8l.4.9.8-.5c.8-.5 1.7-.8 2.7-.8.9 0 1.9.2 2.7.7 1.6 1 2.7 2.9 2.6 4.9l-.1.8c-.1-.1-.1-.2-.2-.3-.6-.8-1.3-1.4-2.1-1.9s-1.7-.8-2.6-.8c-.7 0-1.5 0-2.2.3-.2-.5-.4-.9-.7-1.3-.5-.5-1.1-.9-1.7-1.2-.6-.2-1.3-.4-2-.3-.7 0-1.3.3-1.8.7l.1.2c1.1-.6 2.4-.5 3.4 0s1.8 1.6 1.8 2.6v.6c-.2-.2-.5-.3-.7-.4-2-.9-4.4-.7-6.2.5-.9-1.6-2.6-2.7-4.4-2.8-1.8-.1-3.4.6-4.6 1.9-.1-.3-.1-.5-.1-.8v-.2l-.2-.1c-2.2-1.3-5.2-.8-6.8 1l.1.1c1.7-1.4 4.3-1.6 6.1-.5.1.6.1 1.2.2 1.8l.2 1.5.8-1.3c.9-1.5 2.7-2.3 4.3-2.1 1.6.2 3 1.5 3.5 3l.3 1.2.9-.8c1.4-1.2 3.6-1.5 5.2-.8 1.7.8 2.8 2.7 2.7 4.5l-.1 1.6 1.4-.8c1.4-.8 3.3-.6 4.9.3.8.4 1.4 1 1.9 1.7s.8 1.5.8 2.4v.9l.8-.3c1.4-.5 3-.3 4.3.5v.2h.4c.4.3.8.6 1.1.9 1.4 1.6 1.7 4.2.6 6.2l-.2.4.5.1c2.6.3 5 2.2 5.9 4.7.4 1.2.5 2.6.3 3.9-.3 1.3-.9 2.5-1.7 3.4l-.5.6.7.2c2.1.6 3.7 2.5 4.3 4.6.6 2.1.4 4.4-.9 6.1l-.6.7.8.5c1.9 1.2 3.2 3.4 3.6 5.7.4 2.3-.1 4.7-1.6 6.5l-.9 1 1.2.5c2 .9 3.4 3 3.6 5.1.1 2.2-1.1 4.4-2.9 5.5l-2.4 1.4 2.7.5c1.8.3 3.3 2 3.6 3.8.3 1.8-.8 3.9-2.5 4.7l-2.1 1.1 2.2.5c1.5.4 2.6 1.8 3 3.5.4 1.6.1 3.5-1.2 4.6l-1.1 1h1.5c1.8.1 3.5 1.4 4 3.2.5 1.8-.4 4-2 5l.1.2c1.9-.9 3.1-3.2 2.7-5.4-.3-1.8-1.8-3.4-3.6-4 .5-.6.8-1.2 1-1.9.3-1 .4-2.1.2-3.2-.2-1-.6-2.1-1.3-2.9-.3-.4-.8-.8-1.2-1.2 1.6-1.3 2.6-3.5 2.3-5.6-.1-1.4-.8-2.6-1.6-3.6-.4-.5-1-.9-1.6-1.3 1.6-1.6 2.6-3.9 2.4-6.3-.2-2.6-1.7-5-3.9-6.3.5-.9.9-1.9 1.1-2.9.3-1.4.3-2.8 0-4.2-.4-2.5-1.8-4.8-3.9-6.3.5-.9.8-1.9.9-2.9.1-1.3-.1-2.6-.5-3.8s-1.1-2.3-2-3.2c-.7-.8-1.6-1.3-2.6-1.7.7-1 1.2-2.2 1.4-3.4.2-1.4.1-2.9-.4-4.2-.4-1.1-1.1-2-1.9-2.8l.6.1c1.9.3 3.6 1.8 4.5 3.7.9 1.8 1 4.1-.1 5.9l-.2.3.4.1c2.4.6 4.5 2.6 5.2 5 .7 2.4.1 5.1-1.4 6.9l-1.1 1.3 1.7-.2c1.9-.2 3.4 1.7 4.1 3.6.6 2 .4 4.3 1.1 6.7.3 1.2.9 2.5 1.6 3.4.6 1 1.1 1.8 1.1 2.6s-.4 1.7-1 2.5-1.4 1.6-2.2 2.3l-1.8 1.6 2.4.2c2.1.2 4.1 1.8 4.8 3.9.6 2.1-.1 4.6-1.7 6l-1.4 1.2 1.7.4c1.6.4 3 1.6 3.8 3.1.8 1.5 1.1 3.4.4 5l-.3.9.9-.1c1.6-.1 3.3.9 4.1 2.4.8 1.5.6 3.6-.6 5l.1.1c1.4-1.3 1.8-3.5 1.1-5.4-.6-1.6-2.2-2.8-3.9-3.2.6-1.8.4-3.8-.4-5.4-.7-1.5-1.9-2.8-3.4-3.6 1.6-1.9 2.2-4.5 1.5-7-.7-2.2-2.4-4.1-4.5-4.9.4-.4.8-.8 1.1-1.3.7-1 1.4-2.3 1.3-3.8 0-.7-.2-1.4-.5-2.1-.3-.6-.6-1.1-1-1.6-.7-.9-1.1-1.7-1.4-2.8-.6-2-.5-4.4-1.3-6.8-.4-1.2-1.1-2.3-2.1-3.2-.6-.6-1.5-1.1-2.4-1.2 1.1-2.1 1.4-4.7.6-6.9-.9-2.5-3-4.4-5.5-5.2.4-.9.7-1.9.7-2.9 0-1.1-.2-2.2-.7-3.2s-1.1-2-1.9-2.8c-.7-.7-1.5-1.2-2.4-1.5.3-1 .4-2.1.3-3.1-.2-1.2-.6-2.4-1.3-3.4-.7-1-1.6-2-2.6-2.6-.8-.5-1.8-.9-2.7-1 0-1-.3-1.9-.6-2.7-.5-1.1-1.3-2.1-2.2-2.9s-2-1.4-3.1-1.8c-.9-.3-1.9-.4-2.8-.3-.1-.5-.3-.9-.5-1.3l.8-.4c2-.9 4.5-.5 6.4.6 2 1.1 3.6 3.2 3.8 5.5v.3h.3c.9-.1 1.8.1 2.5.5.8.4 1.5 1 2 1.7 1.1 1.4 1.6 3.3.9 5l-.1.3.4.1c2.1.7 3.7 2.5 4.5 4.4.8 2 .9 4.3 0 6.1l-.4.9 1 .2c2.4.4 4.4 2.3 5.4 4.6 1 2.2 1.1 5-.1 7l-1.2 2 2.4-.6c1.1-.3 2.3-.2 3.3.3 1.1.4 2 1.2 2.6 2.1 1.2 1.8 1.1 4.6-.3 6.3l-1.8 2.3 2.8-.6c1.9-.4 4.1.7 5.1 2.4s.7 4.2-.7 5.7l-1.4 1.5 2-.1c1.9-.1 3.8 1.1 4.7 2.8.9 1.7.6 4.1-.6 5.6l-.9 1.1 1.4-.3c1.1-.3 2.5.4 2.9 1.6.4 1.2-.2 2.7-1.4 3.3l.1.2c.9-.1 1.8-1.8 1.4-3.3zm-34.7-55.3c1.2 1.6 1.8 3.9 1.1 5.8l-.2.6c-1.1-1.1-2.5-1.8-4-2.1 1-2.1.8-4.8-.6-6.7-.1-.1-.1-.2-.2-.3.6.1 1.2.3 1.8.6.7.6 1.5 1.3 2.1 2.1zm-8.1-8.8c1.3 1.2 2.2 2.9 2.2 4.6-1.2-.6-2.6-.9-4-.7-.1-.9-.4-1.7-.9-2.4-.6-1-1.4-1.8-2.4-2.3-.9-.6-2-1-3.2-1.1-.7-.1-1.5 0-2.2.2-.3-1.8-1.4-3.4-2.9-4.4l.6-.3c1.4-.6 3-.3 4.2.5 1.2.8 2.1 2.1 2.2 3.5v.9l.9-.2c2.1-.3 4.1.4 5.5 1.7zm-16.4 23.2-.2 1.7-.2 1.7c-.1.6-.2 1.1-.3 1.7.4-1.1.7-2.2.9-3.3l.3-1.7.2-1.7c.3-2.3.3-4.5.2-6.8-.2-2.3-.6-4.5-1.2-6.7s-1.4-4.3-2.5-6.3c.7 2.2 1.3 4.3 1.8 6.5.4 2.2.8 4.4.9 6.6.2 2.2.2 4.5.1 6.7v1.6zm-6.5-21.9c.8 3.3 1.5 6.5 1.8 9.9.3 3.3.2 6.6 0 10 1-3.2 1.3-6.7 1-10.1-.3-3.4-1.2-6.7-2.8-9.8zm-1.6 12c-.5 4.1-1.6 8-3 11.9 2.2-3.6 3.5-7.7 4-11.8.5-4.2.3-8.5-.9-12.4.4 4.1.5 8.2-.1 12.3zM94 50.1c.4-2.1 1-4.1 1.6-6.2-1.1 1.9-1.8 3.9-2.4 6-.6 2.1-.9 4.2-1 6.4-.1 2.2.1 4.3.5 6.5l.3 1.6.4 1.6c.3 1 .7 2 1.2 3-.1-.5-.2-1.1-.4-1.6l-.2-1.6-.3-1.6-.2-1.6c-.2-2.1-.3-4.2-.2-6.3 0-2.1.3-4.1.7-6.2zM82.7 54c-.4 2.3-.7 4.8-.5 7.1l.1 1.8.2 1.8.4 1.8c.2.6.3 1.2.5 1.7-.1-.6-.1-1.2-.2-1.8l-.2-1.8-.1-1.8V61c.1-2.3.3-4.7.7-6.9.4-2.3 1.1-4.5 1.9-6.7.8-2.2 1.9-4.3 3.1-6.3-1.5 1.8-2.8 3.9-3.8 6-1 2.2-1.7 4.5-2.1 6.9zm-1.3-5.3-1 1.3-.9 1.4-.7 1.6c-1 2-1.7 4.1-2.1 6.3-.4 2.2-.5 4.4-.3 6.7.2 2.2.7 4.4 1.6 6.4-.5-2.1-.8-4.3-.8-6.5s.1-4.3.5-6.4c.4-2.1 1-4.2 1.8-6.2l.6-1.5.7-1.5.8-1.4c.3-.5.6-.9.9-1.4-.4.4-.8.8-1.1 1.2zm-8.5 1.9c-2.3 3.3-3.5 7.3-3.8 11.3-.3 4 .4 8.2 2.2 11.7-1.1-3.8-1.5-7.8-1.2-11.7.2-3.8 1.2-7.6 2.8-11.3zm-3.7 3.3c-2.1 3.1-3.4 6.8-4 10.5-.5 3.7-.3 7.6.9 11.2-.4-3.7-.4-7.4.1-11 .5-3.8 1.6-7.3 3-10.7zm62 6.9c-.6-2.6-1.4-5.1-2.5-7.5-1.1-2.4-2.4-4.7-3.9-6.8 1.2 2.3 2.3 4.7 3.2 7.1.9 2.4 1.7 4.9 2.2 7.4.6 2.5 1 5.1 1.2 7.7l.1 1.9.1 1.9v4c.1-.7.2-1.3.3-1.9l.2-2 .1-2v-2c0-2.6-.4-5.3-1-7.8zm3.7 11c0 2.2-.2 4.4-.5 6.7 1-2.1 1.4-4.3 1.5-6.6 0-2.3-.3-4.6-1.3-6.7.2 2.2.4 4.4.3 6.6zm-30.1-3.9c0 .6-.1 1.2-.1 1.8.3-1.2.5-2.3.7-3.5l.3-3.6c.2-2.4.1-4.8-.1-7.2-.2-2.4-.6-4.8-1.2-7.1-.5-2-1.1-4-1.9-5.9l-.3-1.8v1.1s0-.1-.1-.1c0 .1 0 .2.1.2v5.5c-.1 2.2-.2 4.4-.5 6.5-.2 2.2-.6 4.3-1 6.5s-1 4.3-1.5 6.4c.9-2 1.7-4.1 2.3-6.2.6-2.1 1-4.3 1.3-6.5.2-2.2.4-4.4.3-6.7-.1-1-.1-2.1-.2-3.1.3 1.5.7 2.9.9 4.4.4 2.3.7 4.7.9 7 .2 2.3.3 4.7.3 7 0 1.2 0 2.4-.1 3.5l-.1 1.8zm1.4-1.5c-.4 1.2-.8 2.4-1.1 3.8 1-1 1.6-2.2 2-3.4.4-1.3.7-2.6.5-4-.5 1.2-.9 2.4-1.4 3.6zm18.1-2.7v-.2c-.9 1.5-1.6 3-2.2 4.5-.6 1.6-1.2 3.1-1.6 4.8 1.1-1.3 1.9-2.8 2.5-4.4.7-1.4 1.1-3 1.3-4.7.3 1.7.7 3.2 1.1 4.8.4 1.6.8 3.2 1.4 4.8.2-1.7-.1-3.4-.5-5-.3-1.6-1-3.2-2-4.6zM78 72.3c.3-1.9.6-3.8.9-5.6.3-1.8.8-3.6 1.1-5.5-1.1 1.6-1.8 3.5-2.1 5.4-.3 1.8-.3 3.8.1 5.7zm68.6 38.2c1.6-1.5 2.6-3.7 2.4-5.9-.2-2.5-1.7-4.7-3.8-5.8 2-1.3 3.1-3.8 2.6-6.1-.3-1.3-1.1-2.5-2.2-3.3-.8-.6-1.7-1-2.7-1.2 1.9-1.7 2.9-4.4 2.2-7-.4-1.5-1.3-2.8-2.6-3.7-.8-.6-1.8-1-2.8-1.3 1.6-2.8 2.1-6.1 1.6-9.2-.3-1.8-.9-3.5-1.8-5s-2.1-2.9-3.6-3.8l-.1.2c1.2 1.2 2.2 2.6 2.9 4.1.7 1.5 1.1 3.1 1.2 4.8.3 3.3-.6 6.6-2.5 9.1l-1.1 1.4h1.8c2.3 0 4.6 1.6 5.4 3.8.8 2.2 0 5.1-2.1 6.6l-1.2.9 1.4-.2c1.2-.1 2.4.2 3.4.9s1.7 1.8 2 2.9c.2 1.2-.1 2.4-.7 3.4s-1.6 1.8-2.7 2.1l-1.4.4 1.4.6c2.1.9 3.6 3.2 3.6 5.3 0 2.2-1.4 4.3-3.3 5.2l-2.7 1.3 3 .6c.9.2 1.7.7 2.3 1.4.6.7.9 1.6.9 2.5 0 1.7-1.6 3.5-3.3 3.8l-1.9.3 1.2 1.4c1.2 1.3 1.7 3.3 1.4 5.1-.1.9-.5 1.8-.9 2.7s-1.1 1.5-1.9 2l-1.3.8 1.4.5c1.5.5 2.7 2.1 2.7 3.8.1 1.7-1.1 3.4-2.7 4.2l.1.2c1.9-.5 3.4-2.3 3.6-4.4.1-1.7-.7-3.4-2.1-4.4 1.6-1.2 2.6-3 3-5 .2-1.2.2-2.4 0-3.6-.1-.7-.4-1.4-.8-2 .8-.3 1.5-.9 2.1-1.5.9-1 1.5-2.4 1.5-3.8s-.6-2.8-1.5-3.8c-.3-.5-.8-.9-1.4-1.3z" fill="#1b141c" stroke-width="none" opacity="1"></path></g><g id="svga-group-glasses-single-move" transform="matrix(1,0,0,1,0,0)"><g id="svga-group-glasses-single"><path id="SvgjsPath16773" d="M70.94 81.73c-2.93.96-6.6 4.93-5.94 12.76s5.07 10.8 9.21 12.32c4.13 1.52 10.44 1.38 15.15-2.9 4.71-4.28 5.8-9.21 5.44-12.32-.36-3.12-3.12-7.97-7.61-9.64-4.51-1.67-9.15-2.54-16.25-.22z" fill="url(#SvgjsLinearGradient16774)" opacity="1"></path><path id="SvgjsPath16779" d="M129.8 81.73c2.93.96 6.6 4.93 5.94 12.76s-5.07 10.8-9.21 12.32-10.44 1.38-15.15-2.9-5.8-9.21-5.44-12.32c.36-3.12 3.12-7.97 7.61-9.64 4.51-1.67 9.14-2.54 16.25-.22z" fill="url(#SvgjsLinearGradient16780)" opacity="1"></path><path id="SvgjsPath16785" d="M121.18 108.58c-4.89 0-9.72-2.61-12.9-6.97-3.66-5-4.47-10.38-4.56-11.1.33-.23 1.65-1.21 1.46-2.49-.2-1.29-3.33-1.39-4.28-1.39h-1.03c-.95 0-4.08.1-4.28 1.39-.2 1.28 1.12 2.27 1.45 2.49-.09.72-.91 6.1-4.56 11.1-3.19 4.36-8.01 6.97-12.9 6.97-2.37 0-4.77-.58-7.14-1.72-7.92-3.82-8.29-10.42-8.54-14.79-.02-.39-.04-.76-.07-1.11-.28-3.96-2.72-4.37-3.35-4.41v-4.02c.2.01.39.01.59.01 2.84 0 5.45-.76 8.22-1.56 3.02-.87 6.14-1.77 9.82-1.77.57 0 1.15.02 1.74.07 5.23.41 7.84 2.12 9.57 3.24.56.36 1.04.68 1.5.88.7.31 1.65.46 2.98.46 1 0 2.08-.08 3.12-.16.69-.05 1.37-.11 1.99-.13h.74c.62.02 1.29.08 1.99.13 1.04.08 2.12.16 3.12.16 1.33 0 2.28-.15 2.98-.46.46-.2.94-.52 1.5-.88 1.73-1.13 4.35-2.84 9.57-3.24.59-.05 1.18-.07 1.74-.07 3.68 0 6.8.9 9.82 1.77 2.77.8 5.39 1.56 8.22 1.56.19 0 .39 0 .59-.01v4.02c-.67.05-3.07.48-3.35 4.41-.03.35-.05.73-.07 1.12-.25 4.37-.62 10.97-8.54 14.79-2.38 1.13-4.78 1.71-7.14 1.71zm1.07-27.76c-1.82 0-3.72.27-5.64.81-4.15 1.16-7.77 4.21-9.21 7.78-1.3 3.22-.9 6.79 1.18 10.32 2.77 4.72 7.42 7.43 12.76 7.43 3.45 0 6.82-1.15 9.25-3.17 5.57-4.62 5.92-13.87 2.5-18.44-2.22-2.96-6.27-4.73-10.84-4.73zm-43.77 0c-4.57 0-8.62 1.77-10.84 4.73-3.42 4.57-3.06 13.82 2.5 18.44 2.42 2.01 5.8 3.17 9.25 3.17 5.34 0 9.99-2.71 12.76-7.43 2.07-3.53 2.48-7.1 1.17-10.32-1.44-3.57-5.06-6.62-9.21-7.78-1.91-.54-3.8-.81-5.63-.81z" fill="#26120b" stroke-width="none" opacity="1"></path><path id="SvgjsPath16786" d="M121.65 79.34c3.66 0 6.77.9 9.78 1.77 2.78.8 5.41 1.56 8.26 1.56.15 0 .3 0 .45-.01v3.76c-.81.09-3.07.69-3.35 4.53-.03.35-.05.73-.07 1.12-.25 4.34-.62 10.89-8.47 14.67-2.35 1.13-4.73 1.71-7.08 1.71-4.85 0-9.63-2.58-12.79-6.91-3.52-4.82-4.39-10-4.53-10.96.43-.31 1.64-1.3 1.44-2.58-.21-1.36-3.16-1.5-4.41-1.5h-1.03c-1.26 0-4.21.15-4.41 1.5-.2 1.28 1.01 2.27 1.44 2.58-.14.96-1 6.14-4.53 10.96-3.16 4.33-7.95 6.91-12.79 6.91-2.35 0-4.73-.57-7.08-1.71-7.85-3.78-8.22-10.34-8.47-14.67-.02-.39-.04-.76-.07-1.12-.27-3.81-2.51-4.43-3.35-4.52v-3.76c.15 0 .3.01.45.01 2.86 0 5.48-.76 8.26-1.56 3.01-.87 6.12-1.77 9.78-1.77.58 0 1.16.02 1.73.07 5.19.41 7.79 2.1 9.51 3.22.56.37 1.05.69 1.52.89.72.32 1.68.47 3.04.47 1.01 0 2.09-.08 3.13-.16.7-.05 1.37-.11 1.98-.13h.73c.62.02 1.28.08 1.99.13 1.04.08 2.12.16 3.13.16 1.35 0 2.32-.15 3.04-.47.47-.21.96-.53 1.52-.89 1.72-1.12 4.32-2.82 9.51-3.22.58-.06 1.16-.08 1.74-.08m-.32 27.95c3.48 0 6.89-1.17 9.33-3.2 5.62-4.67 5.98-14.01 2.53-18.62-2.24-2.99-6.33-4.78-10.94-4.78-1.83 0-3.74.27-5.67.81-4.19 1.17-7.84 4.25-9.3 7.86-1.32 3.26-.91 6.87 1.18 10.44 2.8 4.76 7.49 7.49 12.87 7.49m-41.93 0c5.39 0 10.08-2.73 12.87-7.5 2.09-3.57 2.5-7.18 1.18-10.44-1.46-3.61-5.11-6.69-9.3-7.86-1.93-.54-3.84-.81-5.67-.81-4.61 0-8.71 1.79-10.94 4.78-3.45 4.62-3.1 13.96 2.53 18.62 2.44 2.04 5.85 3.21 9.33 3.21m42.25-28.22c-.57 0-1.16.02-1.75.07-6.92.54-9.24 3.3-11.12 4.14-.76.34-1.79.45-2.93.45-1.67 0-3.55-.23-5.11-.29H100c-1.56.06-3.44.29-5.11.29-1.13 0-2.16-.11-2.93-.45-1.88-.84-4.2-3.6-11.12-4.14-.6-.05-1.18-.07-1.75-.07-7.08 0-12.14 3.33-18.04 3.33-.24 0-.48-.01-.72-.02v4.29h.02c.25 0 3.03.1 3.33 4.29.31 4.4 0 11.83 8.69 16.01 2.51 1.21 4.93 1.74 7.2 1.74 5.56 0 10.19-3.15 13.01-7.02 3.98-5.44 4.6-11.25 4.6-11.25s-1.67-1.05-1.47-2.41c.19-1.21 3.42-1.28 4.15-1.28h1.02c.73 0 3.96.07 4.15 1.28.21 1.36-1.47 2.41-1.47 2.41s.62 5.81 4.6 11.25c2.83 3.87 7.45 7.02 13.01 7.02 2.26 0 4.68-.52 7.2-1.74 8.69-4.19 8.37-11.62 8.69-16.01.3-4.2 3.08-4.29 3.33-4.29h.02v-4.29c-.24.01-.48.02-.72.02-5.9 0-10.96-3.33-18.04-3.33zm-.32 27.95c-4.67 0-9.57-2.14-12.64-7.37-5.34-9.11 1.57-16.12 7.96-17.9 1.98-.55 3.86-.8 5.6-.8 4.88 0 8.7 1.96 10.73 4.67 3.41 4.56 3.07 13.65-2.48 18.26-2.37 1.96-5.7 3.14-9.17 3.14zm-41.93 0c-3.46 0-6.8-1.18-9.16-3.14-5.55-4.61-5.89-13.69-2.48-18.26 2.03-2.72 5.85-4.67 10.73-4.67 1.74 0 3.62.25 5.6.8 6.39 1.78 13.29 8.79 7.96 17.9-3.07 5.23-7.98 7.37-12.65 7.37z" fill="#070201" stroke-width="none" opacity="1"></path></g></g></g></g></g><rect id="svga-credit-rect" width="200" height="15" x="0" y="185" fill="#ecf0f1" opacity="0.5" style="display: none;"></rect><text id="svga-credit-text" font-family="Avenir Next, Roboto, Helvetica, Arial, sans-serif" font-size="10px" text-anchor="start" font-weight="400" size="10px" anchor="start" weight="400" fill="#333333" x="33.40447998046875" y="182.60824704170227" style="display: none;"><tspan id="SvgjsTspan16542" dy="13" x="33.40447998046875">Created on AvatarMaker.com</tspan></text></g><defs id="SvgjsDefs16494"><linearGradient id="SvgjsLinearGradient16774" x1="79.8826" y1="80.3169" x2="79.8826" y2="107.6923" gradientUnits="userSpaceOnUse" class="svga-on-canvas-glasses-gradient-single-0-null"><stop id="SvgjsStop16775" stop-opacity="1" stop-color="#9ab4d3" offset="0" ></stop><stop id="SvgjsStop16776" stop-opacity="0.7593" stop-color="#93aed1" offset="0.2407" ></stop><stop id="SvgjsStop16777" stop-opacity="0.4009" stop-color="#7e9ecc" offset="0.5991" ></stop><stop id="SvgjsStop16778" stop-opacity="0" stop-color="#6086c4" offset="1" ></stop></linearGradient><linearGradient id="SvgjsLinearGradient16780" x1="-20.852" y1="80.3169" x2="-20.852" y2="107.6923" gradientTransform="matrix(-1 0 0 1 100 0)" gradientUnits="userSpaceOnUse" class="svga-on-canvas-glasses-gradient-single-1-null"><stop id="SvgjsStop16781" stop-opacity="1" stop-color="#9ab4d3" offset="0" ></stop><stop id="SvgjsStop16782" stop-opacity="0.7593" stop-color="#93aed1" offset="0.2407" ></stop><stop id="SvgjsStop16783" stop-opacity="0.4009" stop-color="#7e9ecc" offset="0.5991" ></stop><stop id="SvgjsStop16784" stop-opacity="0" stop-color="#6086c4" offset="1" ></stop></linearGradient></defs></svg>