<svg xmlns="http://www.w3.org/2000/svg" version="1.1" width="600px" height="600px" viewBox="0 0 200 200" style="overflow:hidden!important;"><g id="svga-group-wrapper"><g id="svga-group-backs-single"><path id="SvgjsPath16193" d="M0 0h200v200H0V0z" fill="#ecf0f1" stroke-width="none" opacity="1"></path></g><g id="svga-group-humanwrap-move" transform="matrix(1,0,0,1,0,0)"><g id="svga-group-humanwrap"><g id="svga-group-hair-back-move" transform="matrix(1,0,0,1,0,0)"><g id="svga-group-hair-back"><path id="SvgjsPath16471" d="M81.5 113.2c-.2-1.7-1.2-2.7-1.8-4.3-.8-2.2-.1-3.6.2-5.9.4-3.4-1.7-5.8-1.8-9 0-3.7 2.3-7.2 2.5-11 .2-3.6-.8-7.3-2.8-10.3-2.7-4-8.1-7.4-13-6.4-.8-.9-2.5-1.2-3.5-.3-2 1.7-2.9 3.9-2.5 6.6.4 2.6 1.1 3.4-.5 5.8-.6.9-1.6 1.6-2.2 2.5-.9 1.4-1.2 2.9-.6 4.3-1.5 1.5-2.8 3.1-4.4 4.5-1 1-1.9 1.7-2.2 3.2-.4 2.4 1.4 4.2-.1 6.6-.8 1.3-2.4 2.1-3.1 3.6-.6 1.2-.6 2.5-.3 3.8.6 2.5 1.8 3.6.3 6.3-.8 1.4-2.2 2.3-2.4 4.1-.2 2.1 2.1 4.8.7 6.7-.3.4.2 1 .7.8 3.7-1.2 2.2-4.1 2.8-7 .5-2.3 2.2-3 3.1-5.1.8-1.9 0-3.2-.3-5-.6-3.7 1.4-4.1 3-6.8.9-1.5.8-2.6.8-4.3 0-2.2-.1-2.5 1.3-4.2.5-.6 1.2-1.1 1.7-1.8.1-.2.2-.4.3-.5 0 .5 0 1 .1 1.3l-.5.5c-1.3 1.6-2.2 2.8-1.2 5 .2.5.6.8 1 1.1-.2 1-.8 1.7-1.9 2.2-1.3.8-1.8 2.8-.5 4 .2.2.4.3.5.5-.5.9-.7 1.8-.4 2.9-1 1-2.3 2-2.5 3.3-.2 1 .2 1.8.5 2.7.9 2.1 1.3 1.2 0 3.4-1.2 2-1.5 2.6-.7 4.8.7 1.7.8 2 .5 3.8-.2 1.2-.3 2 0 3.3.3 1.1 1.9.9 2-.3 0-.6.3-1.2.6-1.7.1 1.7 1 2.7 2.6 3.1.1 0 .3.1.4.1-.1 1.4.3 2.5 1.8 3.1.7.3 1.5-.7 1-1.3-.1-.2-.2-.4-.2-.6.1.1.2.1.2.2 1.4 1 2.8 1.1 3.9.7v.1c-.2.9.7 1.4 1.4 1.1 1 .7 2.2 1.1 3.2.9.4.4 1.2.3 1.6-.2.5-.8 1.8-1.1 2.5-1.9.3-.4.5-.9.7-1.4.4.9.9 1.6.9 1.6-1.1 1.6 1.4 3.5 2.7 2.1 1.2-1.3 1.5-2.3 1.1-4-.1-.6-.4-.9-.7-1.1.5-.2.9-.6 1.1-1.1.7-2.7 1.6-3.8 1.5-6.6-.2-3 1.3-5.6.9-8.5zm-23.6-1.6c-.1.4-.2.7-.4 1-.7-.9-1.2-.3-.1-1.2.1-.1.3-.2.4-.3 0 .1.1.3.1.5zm-1.3 9.7c0 .1-.1.2-.1.3v.1c-.1.3-.2.6-.3.8-.3-.8-.8-1.5-.8-2.2 0-.4.1-.8.3-1.1.8.7 1 1.4.9 2.1zm107.8 4.7c1.3.7-.9-7.1-.9-6.8.2-2.1 2.3-2.6.8-5-.9-1.4-2-1-2-2.7 0-.9 1.3-2.2 1.4-3.3.3-2.3-.7-3.8-2.5-5.2-1.9-1.4-2.9-.8-2.7-3.9.1-1.4.7-2.5.5-4-.4-3.2-2.6-3.8-4.9-5.3-1.4-.3-2.4-1.1-3.1-2.5.1-.7.1-1.4 0-2.1-.2-1.2-.7-2-1.6-2.7-3-2.4-6.9-.8-9.6-4.3-.2-.3-.6-.5-.9-.7-.7-2.9-2.4-5.3-5.2-6.8-3.6-1.9-10.9-1.8-14.4 1.3-1 .6-1.9 1.4-2.6 2.5-.7 1.1-.8 2-.9 3.2-.1 1.1.3 2.4-.2 3.4-.3.7-1.2 1.2-1.6 1.8-2 3.3.1 5.8.8 9 1.1 4.7-2.7 8.2-.8 13.1 1 2.7 1.5 4.9 1.3 7.8-.1 1-.1 1.8 0 2.5-.4.6-.6 1.2-.7 1.8-.1 1.1.5 1.9 1.1 2.8 1 1.8 2.9 1 2.1 4.5-.2.8-1.2 1.7-1.6 2.5-.5 1-.7 2-.6 3.2.1 1.3 2.5 4.2 1.5 5.3-1.3 1.5.3 3.4 2 2.6 1.6-.7 2.3-1.6 2.5-2.6.3.4.8.6 1.4.6h.1l.2.2c.8.8 1.8.4 2.2-.4.2.4.4.8.6 1.3.6 1.1 2.2.5 2.2-.6.1-.8.2-1.6.4-2.3.2.2.4.4.8.5l.7.3c.7.3 1.3-.1 1.6-.6.6.9 1.7 1.6 3 1.7.8.1 1.2-.9.9-1.5-.3-.7-.2-1.2.1-1.7.1.1.3.3.6.4.7.5 1.5-.1 1.7-.8.6 0 1.2-.1 2.2-.2.8-.1 1.2-.8 1.3-1.5.6.7 1.1 1.3.9 2-.2.8.9 1.6 1.4.8.9-1 1.1-1.8.8-3.1-.4-1.4-1.2-1.8-1.1-3.3 0-.4.3-.8.6-1.2.1.1.2.2.3.4 0 .1.5.2.6.1-.1.3-.6 1-.6 1.2 0 .4 1.1 5.4 2.4 3.4-.4.6 0 1.5.7 1.7.2.1.4.1.5.1.6.2 1.4-.1 1.7-.7l.3-.6c.4-.8.3-1.6-.3-2.2-.4-.4-1.2-1.4-1.3-1.2.1-.6.9-1.4.9-2.1-.1-1.8-1.4-2.1-2.4-2.7.9-1.2 1.8-2.5 2.7-3.7.7-1 .1-2.2-.7-2.8-.4-.3-4.8-2-4.8-1.9-.1-.3 2.2-3.4 2.3-4.2.4-2.5-1.1-4.2-3-5.3 1-1.4 1.7-2.9 1.7-4.6.7.5 2.6 1.5 2.4 1 .3.8-.6 2.3-.3 3.4.4 1.2 1.1 1.5 1.8 2.4 1 1.2 1.1.5 1.1 2.1 0 .6-.6 1.2-.8 1.7-.3 1.3-.3 2.4.3 3.6.5 1 2 1.6 2.2 2.5.2 1-1.1 2.6-1.1 3.7 0 .9.3 1.6.8 2.4.3.5 1.1.6 1.3 1 .7 1.2.2 1.8.4 2.8.2 1.3-.2 1.4.4 2.5.4.9 1.8.4 1.8-.5-.1-2.5 2.1-3.7 1.2-6.3-.5-1.5-1.5-1.5-1.2-3.6.2-1.1.9-2 .8-3.2-.1-.9-.6-1.5-1-2.3-.4-.9-.9-.7-.9-1.9 0-.3.9-1.8 1.1-2.3.3-1.1.4-2.3-.1-3.3-.5-1.3-2-1.6-2.5-2.7-.9-1.7.8-3.6-1-5.4-.8-.9-2.4-1-3-1.9-.6-1-.2-2.7-.7-3.9-.5-1.2-1.5-1.9-2.6-2.6-2-1.3-2.1-1.4-2.6-3.8l-.3-.9c.8.1 1.6.2 2.1.6 1.3.9.7 2 1.3 3.6.5 1.5 1.5 2.4 2.9 3.2 2.4 1.4 4.8 1 4.6 4.6-.1 3-.9 5.3 1.8 7.5 1.1.9 3.4 1.3 3.6 2.9.1.9-1.5 2.7-1.5 4 0 1.1.2 2.3 1.1 3.2 1.4 1.4 1.6.4 1.7 2.3.1 1.1-.8 1.7-.4 2.9.5 1.3 1.3 1.5 1.6 2.8.5 2.2-.6 3.9 2 4.7 1.3.8 2-1.1.9-1.7zm-24.5 1.6c-.2-.2-.3-.4-.5-.7-.2-.5-.4-.7-.5-.8.1 0 .3-.1.4-.7.1-.5.6-.8.9-1.3.3.2.5.4.6.7.3.3-.6 1.7-.9 2.8zm5-7.8-1.2 1.7-.1-.1c-1.2-1.5-1.4-.5-1-2.1.8.1 1.6.3 2.3.5zm-1.6-23.1c-1.1-1.1-2.2-1.7-3-2.5v-.7c.1.1.2.2.4.3 1.9 1.3 2.2 1.3 2.6 2.9z" fill="#000000" stroke-width="none" opacity="1"></path></g></g><g id="svga-group-humanbody-back"><path id="SvgjsPath16259" d="M86.5 107c0 18.8 2.7 50.3-8.1 58s-31.8 13.9-36.7 24.4-3.6 29.4-3.6 29.4h124.1s.6-23.1-4.2-30.4c-6.6-10.1-28.5-17.7-36.5-22.9-8.1-5.2-10.9-32.2-10.9-58.8l-24.1.3z" fill="#ffffff" stroke-width="none" opacity="1"></path></g><g id="svga-group-chinshadow-single"></g><g id="svga-group-humanbody-front"><path id="SvgjsPath16260" d="M163.4 220.1H37.2l-.3-.9c-.1-.5-1.3-19.7 3.6-30.3 3.4-7.3 13.6-12.4 23.5-17.4 5.1-2.5 9.9-5 13.6-7.5 8.6-6 8.1-29.8 7.7-47.1-.1-3.5-.1-6.8-.1-9.8v-1.3l26.7-.4v1.3c0 32 3.8 53.5 10.3 57.7 2.4 1.6 6 3.3 10.2 5.4 9.7 4.7 21.9 10.6 26.7 18 5 7.6 4.4 30.9 4.4 31.2l-.1 1.1zm-124.1-2.6h121.6c-.1-2.4-.6-23.2-4-28.4-4.4-6.7-16.2-12.5-25.6-17-4.3-2.1-8-3.9-10.5-5.5-9.8-6.3-11.4-38.8-11.5-58.6l-21.5.4c0 2.6.1 5.5.1 8.5.4 18.9.9 42.4-8.8 49.3-3.8 2.7-8.7 5.1-13.9 7.7-9.5 4.8-19.4 9.7-22.3 16.1-3.3 6.9-3.7 25.9-3.6 27.5z" fill="#000000" stroke-width="none" opacity="1"></path><path id="SvgjsPath16261" d="M76.8 173.7c4.8 2.3 10.4 3.9 15.7 2.9.4-.1.4-.7 0-.8-5.1-.9-10.2-1.4-15.2-3.2-.6-.2-1.1.8-.5 1.1zm31.5 2.4c2.4.3 4.9-.4 7.1-1.2 2.1-.8 4.3-1.7 5.8-3.4.5-.5-.1-1.2-.7-.9-2.1.9-3.9 2.3-6.1 3-2 .7-4.1 1-6.2 1.5-.6.1-.4.9.1 1z" fill="#000000" stroke-width="none" opacity="1"></path></g><g id="svga-group-clothes-single"><path id="SvgjsPath16398" d="M35.41 220.36s-1.42-21.88 2.61-29.95 8.07-12.34 37.02-25.39c0 0 6.64 8.54 23.49 8.78s24.92-8.78 24.92-8.78 16.61 7.59 20.65 10.2 12.1 6.88 16.14 12.34 3.28 32.8 3.28 32.8H35.41z" fill="#ffffff" stroke-width="none" opacity="1"></path><path id="SvgjsPath16399" d="M161.04 186.97c-3.42-4.63-9.47-8.33-13.89-11.03-.93-.57-1.79-1.09-2.51-1.56-4.05-2.62-20.09-9.96-20.77-10.27-.4-.18-.87-.08-1.16.24-.08.09-7.99 8.67-24.16 8.45-16.11-.23-22.66-8.32-22.72-8.4-.28-.36-.78-.49-1.2-.3-28.99 13.07-33.31 17.47-37.5 25.86-4.14 8.28-2.76 30.31-2.7 30.6.1.46.51.8.98.8h128.11c.53 0 .97-.41 1-.94.03-.52.73-27.77-3.48-33.45zm-1.6 1.19c.04.06.08.13.13.19-1.01-.51-2.1-.88-3.19-1.19.86-.59 1.46-.74 1.48-.74l-.03-.15c.58.6 1.13 1.24 1.61 1.89zm-13.33-10.51c3.13 1.91 7.1 4.34 10.25 7.19-9.73 7.23-8.39 19.6-8.69 34.52H52.95c-.07-8.38.38-22.45-5.39-33.83.15-.03.14-.28-.01-.3l-.2-.03c-.85-1.32-1.63-2.14-2.26-2.65 4.25-3.76 11.36-7.85 25.22-14.27 1.74 2.41 8.22 9.42 25.7 11.15 1.49.15 2.93.22 4.31.22 16.2 0 25.4-9.37 27.34-11.57 5.21 2.44 13.3 6.31 15.9 7.99.73.47 1.6 1 2.55 1.58zM38.72 191.27c3.12 1.49 6.63 2.74 10.09 2.79.03 0 .05-.02.07-.03.29 1.01.57 2.11.83 3.32-4.28-.75-8.11-1.54-12.12-3.34.31-.89.69-1.8 1.13-2.74zm4.15-6.52c.7.3 1.43.54 2.18.69.73.95 1.59 2.39 2.46 4.54-2.35-.62-4.67-1.22-6.94-2.12.66-1.07 1.41-2.09 2.3-3.11zm1.54-.08c-.39-.09-.78-.19-1.17-.32.12-.13.25-.27.38-.4.21.16.47.39.79.72zm34.58-15.06c-.41.39-.75.88-1.1 1.32-.21.27-.42.54-.62.82-.58-.36-1.11-.72-1.59-1.07.61-.7 1.29-1.34 1.99-1.95.41.28.84.57 1.32.88zm1.56.92c-.5.74-.94 1.52-1.38 2.29-.58-.3-1.11-.6-1.61-.91.25-.29.5-.57.75-.87.34-.4.71-.8.99-1.25.39.25.81.5 1.25.74zm2.65 1.27c-.55.7-1.04 1.45-1.54 2.19-.75-.31-1.44-.64-2.09-.97.49-.74.98-1.5 1.41-2.28.69.37 1.42.72 2.22 1.06zm1.91.75c-.46.73-.84 1.53-1.21 2.3-.64-.22-1.24-.45-1.82-.69.54-.71 1.11-1.42 1.6-2.16.45.18.93.37 1.43.55zm8.08 4.51c.28-.84.58-1.69.76-2.55.46.05.94.1 1.42.13-.3.85-.53 1.73-.73 2.61-.5-.05-.98-.12-1.45-.19zm-.37-.05c-1.69-.26-3.26-.57-4.71-.92.33-.78.67-1.59.93-2.4 1.4.33 2.92.59 4.55.78-.31.82-.54 1.69-.77 2.54zm-5.14-1.03c-.55-.14-1.09-.29-1.61-.44.4-.76.8-1.54 1.1-2.34.43.12.88.24 1.34.36-.32.79-.58 1.62-.83 2.42zm-2.03-.56c-.47-.14-.93-.29-1.37-.44.43-.75.87-1.52 1.2-2.31.41.14.82.28 1.26.41-.42.74-.77 1.54-1.09 2.34zm31.24-4.56c.41.71.82 1.43 1.26 2.12-.78.44-1.62.88-2.51 1.29-.35-.76-.73-1.52-1.1-2.27-.02-.03-.04-.04-.06-.06a30.4 30.4 0 0 0 2.41-1.08zm2.46-1.37c.28.33.56.67.84 1 .23.26.45.53.68.79-.71.49-1.49.99-2.33 1.48-.41-.71-.85-1.39-1.3-2.08.77-.4 1.47-.8 2.11-1.19zm1.89-1.26c.23.35.47.69.74 1.01.19.23.41.5.65.75-.4.32-.84.65-1.31.98-.25-.28-.53-.55-.78-.83l-.84-.87c.57-.36 1.08-.7 1.54-1.04zm1.65-1.3c.2.22.4.44.61.65.29.3.57.63.88.93-.37.34-.8.7-1.27 1.09-.2-.19-.41-.38-.58-.58-.31-.35-.6-.71-.88-1.09.49-.37.9-.71 1.24-1zm-8.61 5.23c.32.76.63 1.53.97 2.29-3.94 1.78-8.9 3.15-14.82 3.18.14-.95.19-1.93.04-2.86 5.62-.16 10.21-1.29 13.8-2.73 0 .03 0 .08.01.12zm9.4-5.94c.47.22 1.19.55 2.07.96-.26.27-.58.59-.98.96-.29-.32-.61-.62-.91-.93-.2-.2-.41-.4-.61-.61.17-.13.31-.27.43-.38zm-23.59 8.55c-.05.96-.05 1.91-.12 2.86-.73 0-1.48-.03-2.24-.08.12-.58.18-1.18.09-1.77-.02-.15-.27-.15-.29 0-.08.59-.14 1.16-.24 1.73-.36-.03-.72-.05-1.09-.08-.39-.04-.76-.08-1.14-.13.25-.87.48-1.74.63-2.63.91.06 1.85.11 2.82.12.55.02 1.06-.01 1.58-.02zm-22.73-6.28c-.76.54-1.41 1.21-2 1.94-.73-.55-1.34-1.08-1.83-1.56.74-.55 1.51-1.11 2.14-1.77.45.41 1.01.88 1.69 1.39zm-2.58-2.26c.17.18.4.41.66.65-.78.49-1.49 1.11-2.19 1.72-.45-.46-.81-.86-1.07-1.19.85-.38 1.71-.77 2.6-1.18zm-34.45 22.02c2.36 1.04 4.83 1.94 7.39 2.28.36.94.72 2 1.07 3.2-3.4-.85-6.65-1.49-9.9-2.83.01-.01.01-.03.02-.04.46-.92.93-1.78 1.42-2.61zm-4.15 13.45c2.58 1.32 5.43 2.39 8.29 2.63.19.02.22-.27.04-.32-2.87-.83-5.61-1.55-8.32-2.77.04-.89.13-1.91.32-3.02 4.1 2.29 9.02 4.24 13.74 4.2.14 0 .17-.21.03-.25-4.81-1.23-9.2-2.15-13.69-4.39.19-1.04.47-2.16.85-3.33 3.71 2 8.12 3.44 12.36 3.35 1.96 8.94 1.26 18.47 1.12 21.57H36.28c-.44-7.64-.12-16.52-.1-17.67zm113.41 17.66c.09-.98-.45-15.81.53-19.01 2.84 1.28 5.93 2.15 9.01 2.42.21.02.24-.31.05-.36-3.05-.79-6-1.63-8.96-2.64.15-.89.32-1.72.5-2.5 2.27.81 4.55 1.5 6.93 1.99.21.04.3-.26.09-.32-2.32-.65-4.63-1.34-6.9-2.13.22-.88.47-1.69.72-2.43 2.57.87 5.17 1.73 7.81 2.33.22.05.29-.25.09-.33-2.51-.99-5.13-1.74-7.73-2.47.27-.71.55-1.36.83-1.95 2.33.81 4.7 1.65 7.09 2.17.26.06.35-.29.11-.39-2.23-.92-4.62-1.58-6.97-2.23.39-.74.79-1.38 1.18-1.92 2.01.72 4.05 1.57 6.12 2.04.22.05.39-.28.16-.39-1.9-.87-3.98-1.43-5.98-2.06.55-.69 1.08-1.22 1.56-1.62 1.47.47 2.85 1.1 4.27 1.68 3.5 6.54 2.53 27.42 2.46 30.12" fill="#000000" stroke-width="none" opacity="1"></path></g><g id="svga-group-head" transform="matrix(1,0,0,1,0,0)"><g id="svga-group-ears-left-move" transform="matrix(1,0,0,1,0,0)"><g id="svga-group-ears-left"><path id="SvgjsPath16211" d="M64.8 80.5c-.2-.3-3.3-4.3-5.9-6.7s-3.4-2.4-4.6-.9c-1.3 1.5-2.9 9.1-2.5 12.4.4 3.4 3.6 8.7 5.2 11.7 1.7 3 3.3 6.7 5.1 6.3 1.9-.4 4.4-4.6 5.7-7.7 1.2-3.1.6-10.9-3-15.1z" fill="#ffffff" stroke-width="none" opacity="1"></path><path id="SvgjsPath16212" d="M56.9 98.9c-.3-.5-.5-1-.8-1.4l-.6-1c-1.8-3.1-4.4-7.8-4.8-11-.4-3.5 1.2-11.4 2.7-13.2.6-.7 1.2-1.3 2.2-1.4 1.2-.1 2.3.7 3.9 2.2 1.6 1.4 3.5 3.6 5.8 6.5l.2.3c3.9 4.6 4.5 12.8 3.2 16.1-1.1 3-3.9 7.8-6.4 8.3h-.5c-2 .1-3.4-2.6-4.9-5.4zm7.2-17.8s-.1-.1-.2-.3c-2.2-2.8-4.1-5-5.6-6.3-1.2-1.1-2.1-1.7-2.4-1.7-.2 0-.4.2-.8.7-1 1.2-2.6 8.4-2.3 11.7.3 2.8 2.8 7.3 4.5 10.3l.6 1c.3.5.5 1 .8 1.4.9 1.7 2.5 4.6 3.3 4.4 1.2-.2 3.6-3.7 4.9-7.1 1.1-2.8.4-10.2-2.8-14.1z" fill="#000000" stroke-width="none" opacity="1"></path><path id="SvgjsPath16213" d="M54 87c-.3-2.3-.5-7.8.8-9.6 2.2-2.9 6 6.4 6.9 9.3 0 .1.1.2.1.3.2.3-.1.7-.4.6-.4-.2-.9-.6-1.3-.8-1.1-.5-1.6.5-1.3 1.8.4 1.8 1.4 2.9 2.2 4.3.1.2 0 .4-.2.3-1.6-.9-3.5-4.5-3.1-6.6.3-2 1.9-1.8 3.1-.8-.7-1.7-1.5-3.3-2.5-4.8-.6-.9-1.2-2-2.2-2.2-1.2-.2-1 .3-1.2 1.8-.8 4.8-.3 10.4 2.5 14.5.1.1 0 .2-.1.1-1.7-2.3-2.9-4.9-3.3-8.2z" fill="#000000" stroke-width="none" opacity="1"></path></g></g><g id="svga-group-ears-right-move" transform="matrix(1,0,0,1,0,0)"><g id="svga-group-ears-right"><path id="SvgjsPath16214" d="M135.2 80.5c.2-.3 3.3-4.3 5.9-6.7 2.6-2.4 3.4-2.4 4.6-.9s2.9 9.1 2.5 12.4c-.4 3.4-3.6 8.7-5.2 11.7-1.7 3-3.3 6.7-5.1 6.3s-4.4-4.6-5.7-7.7c-1.2-3.1-.6-10.9 3-15.1z" fill="#ffffff" stroke-width="none" opacity="1"></path><path id="SvgjsPath16215" d="M138.1 104.4h-.5c-2.5-.5-5.2-5.4-6.4-8.3-1.3-3.4-.7-11.5 3.2-16.1l.2-.3c2.3-2.9 4.2-5.1 5.8-6.5 1.6-1.4 2.7-2.2 3.9-2.2 1 .1 1.6.7 2.2 1.4 1.5 1.8 3.1 9.7 2.7 13.2-.4 3.2-3 7.9-4.8 11l-.6 1c-.3.5-.5.9-.8 1.4-1.4 2.7-2.8 5.4-4.9 5.4zm-2.2-23.3c-3.2 3.9-3.9 11.2-2.8 14.1 1.3 3.4 3.7 6.9 4.9 7.1.8.2 2.4-2.7 3.3-4.4.3-.5.5-1 .8-1.4l.6-1c1.7-3 4.2-7.5 4.5-10.3.4-3.3-1.3-10.5-2.3-11.7-.4-.4-.6-.7-.8-.7-.3 0-1.2.5-2.4 1.7-1.5 1.4-3.3 3.5-5.6 6.3 0 .2-.1.3-.2.3z" fill="#000000" stroke-width="none" opacity="1"></path><path id="SvgjsPath16216" d="M146 87c.3-2.3.5-7.8-.8-9.6-2.2-2.9-6 6.4-6.9 9.3 0 .1-.1.2-.1.3-.2.3.1.7.4.6.4-.2.9-.6 1.3-.8 1.1-.5 1.6.5 1.3 1.8-.4 1.8-1.4 2.9-2.2 4.3-.1.2 0 .4.2.3 1.6-.9 3.5-4.5 3.1-6.6-.3-2-1.9-1.8-3.1-.8.7-1.7 1.5-3.3 2.5-4.8.6-.9 1.2-2 2.2-2.2 1.2-.2 1 .3 1.2 1.8.8 4.8.3 10.4-2.5 14.5-.1.1 0 .2.1.1 1.7-2.3 2.9-4.9 3.3-8.2z" fill="#000000" stroke-width="none" opacity="1"></path></g></g><g id="svga-group-faceshape-wrap"><g id="svga-group-faceshape-single"><path id="SvgjsPath16243" d="M138.2 58.2c-2-10.8-13.3-27.4-37.2-27.4S69.1 43.5 65.5 53c-3 8.1-3 21.3-3 21.3s.4 28.4 10 46.1c9.3 17 28.9 31.8 46.2 11.8 21.5-24.8 20.6-57.8 20.6-57.8s.3-8.5-1.1-16.2z" fill="#ffffff" stroke-width="none" opacity="1"></path><path id="SvgjsPath16244" d="M100.7 143.1c-.8 0-1.5 0-2.3-.1-11.8-1.3-21.7-12.2-27-22-9.6-17.7-10.2-45.5-10.2-46.7 0-.6 0-13.6 3.1-21.8 5.8-15.5 17.8-23 36.7-23 10.9 0 20.5 3.4 27.7 10 5.5 5 9.6 11.9 10.8 18.5 1.4 7.6 1.2 15.7 1.2 16.4s.1 8.8-2.3 19.9c-2.3 10.5-7.4 25.8-18.7 38.8-5.8 6.6-12.2 10-19 10zm.3-111c-17.7 0-28.9 7-34.3 21.3-2.9 7.8-2.9 20.8-2.9 20.9 0 .3.5 28.3 9.9 45.5 5 9.2 14.2 19.5 25 20.6 6.8.7 13.3-2.3 19.1-9.1 20.9-24.1 20.3-56.6 20.3-57 0-.1.2-8.4-1.2-15.9-1.1-6-4.8-12.4-10-17-6.6-6.1-15.6-9.3-25.9-9.3z" fill="#000000" stroke-width="none" opacity="1"></path></g></g><g id="svga-group-mouth-single-move" transform="matrix(1,0,0,1,0,0)"><g id="svga-group-mouth-single"><path id="SvgjsPath16198" d="m112.44 121.55-.09.03c-3.77-2.31-7.86-4.67-12.44-4.42-4.58.25-7.93 4.2-12.5 4.25-.07 0-.12.03-.16.07-.05-.02-.11-.03-.16-.04-.6-.19-.86.75-.26.94.39.12.79.22 1.19.32 7.06 5.52 16.72 5.5 23.73.05.32-.08.64-.15.96-.25.59-.19.33-1.14-.27-.95zm-8.39.16c-.62-1.32-1.25-2.65-1.87-3.97.31.04.62.09.93.16.44 1.37 1 2.7 1.63 3.99a6.95 6.95 0 0 1-.69-.18zm1.29.33c-.66-1.3-1.22-2.64-1.67-4.02.23.06.45.12.67.18 0 .03-.01.05 0 .08.62 1.3 1.25 2.59 1.87 3.89-.29-.03-.58-.07-.87-.13zm1.44.19c-.62-1.28-1.23-2.56-1.85-3.84.28.09.55.19.82.29.5 1.23 1.08 2.42 1.71 3.59-.22-.01-.45-.02-.68-.04zm1.24.05c-.6-1.09-1.14-2.2-1.62-3.34.22.09.43.19.64.28 0 .03-.02.06 0 .1.42 1.02.92 2 1.49 2.95-.17 0-.34.01-.51.01zm1.06-.05c-.54-.87-1.01-1.78-1.42-2.72.25.12.51.25.76.38-.02.06-.03.13.01.2.38.68.73 1.38 1.05 2.1-.13.01-.27.02-.4.04zm.9-.11c-.29-.64-.59-1.28-.93-1.9.35.19.69.38 1.03.58-.01.05-.02.09.01.14.18.36.37.71.55 1.07-.21.04-.43.08-.66.11zm1.16-.22-.36-.69c.31.18.62.37.92.55-.18.05-.37.1-.56.14zm-9.49-4.22c0 .04-.01.07.01.11.59 1.25 1.18 2.5 1.77 3.74-.34-.12-.67-.27-1.01-.41-.56-1.16-1.12-2.33-1.68-3.49.3.01.61.03.91.05zm-1.43-.04v.04c.51 1.05 1.01 2.1 1.52 3.16-.27-.15-.53-.32-.8-.44-.64-.79-.87-1.84-1.4-2.71.22-.03.45-.04.68-.05zm-.29 2.67c-.52-.79-.99-1.62-1.39-2.49.17-.03.33-.07.5-.09 0 .03-.01.06.01.09.5.76.74 1.66 1.2 2.42-.1.02-.21.04-.32.07zm-1.88-2.39v.03c.4.88.88 1.73 1.41 2.54-.22.1-.44.21-.67.33-.49-.91-1-1.8-1.52-2.69.24-.08.48-.14.73-.2.01-.01.03-.01.05-.01zm-7.68 4.22-.62-.62c.17-.05.34-.1.5-.16.24.28.47.56.71.84-.2-.01-.39-.04-.59-.06zm1.23.09c-.01-.01 0-.03-.01-.04-.28-.34-.57-.67-.85-1.01.16-.06.33-.13.49-.2.28.44.58.86.89 1.27-.18 0-.35-.01-.52-.02zm1.13.03c-.37-.48-.72-.97-1.05-1.48.16-.07.32-.15.48-.23.37.59.79 1.14 1.25 1.67-.23.01-.46.04-.68.04zm1.29-.08c-.53-.57-1.01-1.19-1.42-1.85.16-.08.31-.16.46-.24 0 0 0 .01.01.01.49.68.97 1.36 1.46 2.03-.04.01-.08.01-.12.02-.13.02-.26.01-.39.03zm1.04-.14c-.52-.73-1.04-1.45-1.56-2.18l.51-.27c.4.86.91 1.65 1.52 2.38-.16.02-.32.05-.47.07zm1.02-.19a9.879 9.879 0 0 1-1.63-2.5c.17-.09.34-.17.51-.26.47.91 1.01 1.78 1.59 2.63-.17.05-.32.1-.47.13zm.95-.25c-.6-.87-1.15-1.77-1.64-2.71.15-.07.3-.14.44-.2.51.96 1.08 1.88 1.68 2.78-.02.01-.05.02-.07.03-.13.03-.27.06-.41.1zm.94-.34c-.6-.9-1.17-1.82-1.68-2.77.17-.07.34-.13.51-.2.54.91 1.06 1.83 1.56 2.76-.14.08-.27.14-.39.21zm-8.76.4c.01.01 0 .01.01.02l.33.33c-.36-.06-.71-.13-1.07-.21.25-.03.49-.08.73-.14zm-.02 1.29c1.53.28 3.09.39 4.66.25 2.19-.19 3.98-1.06 6.04-1.64 1.02-.29 1.77.36 2.72.72 1.02.39 2.08.66 3.16.82 1.63.24 3.25.18 4.84-.1a18.68 18.68 0 0 1-21.42-.05z" fill="#000000" stroke-width="none" opacity="1"></path></g></g><g id="svga-group-eyes-left-move" transform="matrix(1,0,0,1,0,0)"><g id="svga-group-eyes-left"><g id="svga-group-eyesback-left"></g><g id="svga-group-eyesiriswrapper-left"><g id="svga-group-eyesiriscontrol-left" transform="matrix(1,0,0,1,0,0)"><g id="svga-group-eyesiris-left"><path id="SvgjsPath16276" d="M81 82.8c2.2 0 3.9 1.7 3.9 3.9s-1.8 3.9-3.9 3.9-4-1.8-4-3.9 1.8-3.9 4-3.9z" fill="#000000" stroke-width="none" opacity="1"></path><path id="SvgjsPath16277" d="M77.6 84.6c-.4.9-.4 2-.1 2.9.3.9.8 1.7 1.6 2.1s1.8.5 2.6.3c.9-.2 1.6-.7 2.1-1.5.4-.8.6-1.7.4-2.6-.1-.4-.3-.8-.5-1.2-.3-.3-.6-.7-1-.9-.4-.2-.8-.4-1.3-.5-.4-.1-.9-.1-1.4-.1-.1 0-.2 0-.4.1-.1 0-.2.1-.3.1l-.6.3c-.5.3-.8.7-1.1 1 .2-.4.5-.8.9-1.2.2-.2.4-.3.7-.4.1-.1.2-.1.4-.1s.2-.1.4-.1c.5-.1 1.1-.2 1.6-.1s1 .2 1.5.5c.5.2 1 .6 1.3 1 .4.4.6 1 .8 1.5.3 1.1.1 2.3-.5 3.3-.3.5-.7.9-1.2 1.2s-1 .6-1.6.7c-1.1.2-2.3.1-3.2-.6-.5-.3-.9-.7-1.2-1.2-.3-.5-.5-1-.6-1.5-.1-1 .1-2.1.7-3z" fill="#ffffff" stroke-width="none" opacity="1"></path><path id="SvgjsPath16278" d="M81 91.1c-.9 0-1.7-.2-2.4-.7-.5-.3-.9-.7-1.2-1.2-.3-.5-.5-1-.6-1.6-.2-1.1.1-2.2.6-3.1.2-.3.4-.6.6-.8l.2-.2v.1l.2-.2c.2-.2.4-.3.7-.5.1-.1.2-.1.4-.2.1 0 .3-.1.4-.1.6-.2 1.1-.2 1.7-.1.6.1 1.1.2 1.6.5s1 .6 1.4 1.1c.4.4.6 1 .8 1.6.3 1.1.1 2.4-.5 3.4-.3.5-.7 1-1.2 1.3-.5.3-1 .6-1.6.7H81zm-3.9-5c-.1.5-.1 1 0 1.5s.3 1 .5 1.5c.3.4.7.8 1.1 1.1.9.6 2 .8 3.1.6.5-.1 1.1-.3 1.5-.6s.8-.7 1.1-1.2c.6-.9.7-2.1.5-3.2-.1-.6-.4-1.1-.7-1.5-.3-.4-.8-.7-1.3-1-.5-.2-.9-.4-1.5-.5-.5-.1-1 0-1.6.1-.1 0-.2.1-.4.1-.1 0-.2.1-.4.1-.2.1-.3.2-.5.3.2-.1.3-.2.5-.2.1 0 .2-.1.4-.1.1 0 .2 0 .4-.1.6-.1 1 0 1.4.1.6.2 1 .3 1.3.6.4.2.8.6 1 .9.3.4.4.8.5 1.2.2.9 0 1.9-.5 2.7-.4.8-1.2 1.3-2.2 1.6-.9.2-1.9.1-2.7-.3-.8-.4-1.4-1.2-1.7-2.2.3-.5.2-1 .2-1.5zm.6-1.3c-.3.9-.4 1.8-.1 2.7.3.9.8 1.7 1.6 2.1s1.7.5 2.5.3 1.6-.7 2-1.4c.4-.7.6-1.6.4-2.5-.1-.4-.2-.8-.5-1.1-.2-.3-.6-.6-.9-.8-.3-.2-.7-.4-1.3-.5-.4-.1-.8-.1-1.3-.1-.1 0-.2 0-.3.1-.1 0-.2.1-.3.1l-.6.3c-.5 0-.9.3-1.2.8z" fill="#000000" stroke-width="none" opacity="1"></path><path id="SvgjsPath16279" d="M81 84.6c-1.2-.3-2.6 1.2-2.3 2.4.1.3.3.5.6.5s.6-.1.8-.4c.1-.1.1-.2.2-.3l.1-.1v-.1l.1-.1.1-.1s.2-.1.1-.1c.2-.1.4-.1.5-.2.7-.3.6-1.3-.2-1.5z" fill="#ffffff" stroke-width="none" opacity="1"></path></g></g></g><g id="svga-group-eyesfront-left"><path id="SvgjsPath16334" d="M81.02 74.43c-6.9 0-12.5 5.6-12.5 12.5s5.6 12.5 12.5 12.5 12.5-5.6 12.5-12.5-5.6-12.5-12.5-12.5zm6.92 16.9c-.4-.18-1.61.18-4.87.09s-6.62-.98-9.25-2.5c-2.64-1.52-3.31-5.23-3.31-5.23s3.71-.72 8.67-.54 7.65 1.92 8.54 3.4c.89 1.48 1.83 4.43 1.83 4.43-.05.57-1.21.53-1.61.35z" fill="#ffffff" stroke-width="none" opacity="1"></path><path id="SvgjsPath16335" d="M90.45 92.29c.37-1.74.34-3.67-.41-5.27-.09-.19-.39-.09-.38.1.04.89.08 1.74.08 2.59-.63-1.8-1.72-4.14-3.36-5.41-1.79-1.38-5.88-1.92-9.75-1.85a.507.507 0 0 0-.3-.17c-2.87-.49-3.07-1.83-3.07-1.84a.536.536 0 0 0-.58-.51c-.3.02-.53.27-.51.58 0 .07.1 1.24 1.69 2.11-.42.04-.84.09-1.23.15-3.29.01-4.07-1.65-4.11-1.72a.557.557 0 0 0-.71-.29c-.28.12-.41.43-.29.71.03.07.55 1.25 2.38 1.89l-.1.03-.13.06c-.07.04-1.77 1.13-3.67-.2a.546.546 0 1 0-.62.9c2.31 1.61 4.42.5 4.83.25.09-.03.18-.05.27-.08-.09.12-.13.27-.09.43.07.33 1.68 7.29 13.26 7.29 1.29 0 2.71-.09 4.27-.28.3-.04.51-.31.47-.61a.542.542 0 0 0-.61-.47c-14.42 1.79-16.26-5.83-16.33-6.16a.511.511 0 0 0-.31-.37c4.36-1.03 12.29-.75 14.6 1.03 2.53 1.95 3.65 7.15 3.67 7.21.02.1.08.19.15.26l-.03.22c-.09.49.62.7.76.21.06-.2.11-.4.15-.6 0-.07.01-.13.01-.19z" fill="#000000" stroke-width="none" opacity="1"></path></g></g></g><g id="svga-group-eyes-right-move" transform="matrix(1,0,0,1,0,0)"><g id="svga-group-eyes-right"><g id="svga-group-eyesback-right"></g><g id="svga-group-eyesiriswrapper-right"><g id="svga-group-eyesiriscontrol-right" transform="matrix(1,0,0,1,0,0)"><g id="svga-group-eyesiris-right"><path id="SvgjsPath16280" d="M119.5 82.8c2.2 0 3.9 1.7 3.9 3.9s-1.8 3.9-3.9 3.9-3.9-1.7-3.9-3.9 1.8-3.9 3.9-3.9z" fill="#000000" stroke-width="none" opacity="1"></path><path id="SvgjsPath16281" d="M116.1 84.6c-.4.9-.4 2-.1 2.9.3.9.8 1.7 1.6 2.1s1.8.5 2.6.3c.9-.2 1.6-.7 2.1-1.5.4-.8.6-1.7.4-2.6-.1-.4-.3-.8-.5-1.2-.3-.3-.6-.7-1-.9-.4-.2-.8-.4-1.3-.5-.4-.1-.9-.1-1.4-.1-.1 0-.2 0-.4.1-.1 0-.2.1-.3.1l-.6.3c-.4.3-.8.7-1.1 1 .2-.4.5-.8.9-1.2.2-.2.4-.3.7-.4.1-.1.2-.1.4-.1s.2-.1.4-.1c.5-.1 1.1-.2 1.6-.1s1 .2 1.5.5c.5.2 1 .6 1.3 1 .4.4.6 1 .8 1.5.3 1.1.1 2.3-.5 3.3-.3.5-.7.9-1.2 1.2s-1 .6-1.6.7c-1.1.2-2.3.1-3.2-.6-.5-.3-.9-.7-1.2-1.2-.3-.5-.5-1-.6-1.5-.1-1 .2-2.1.7-3z" fill="#ffffff" stroke-width="none" opacity="1"></path><path id="SvgjsPath16282" d="M119.5 91.1c-.9 0-1.7-.2-2.4-.7-.5-.3-.9-.7-1.2-1.2-.3-.5-.5-1-.6-1.6-.2-1.1.1-2.2.6-3.1.2-.3.4-.6.6-.8l.2-.2v.1l.2-.2c.2-.2.4-.3.7-.5.1-.1.2-.1.4-.2.1 0 .3-.1.4-.1.6-.2 1.1-.2 1.7-.1.6.1 1.1.2 1.6.5s1 .6 1.4 1.1c.4.4.6 1 .8 1.6.3 1.1.1 2.4-.5 3.4-.3.5-.7 1-1.2 1.3-.5.3-1 .6-1.6.7h-1.1zm-3.8-5c-.1.5-.1 1 0 1.5s.3 1 .5 1.5c.3.4.7.8 1.1 1.1.9.6 2 .8 3.1.6.5-.1 1.1-.3 1.5-.6s.8-.7 1.1-1.2c.6-.9.7-2.1.5-3.2-.1-.6-.4-1.1-.7-1.5-.3-.4-.8-.7-1.3-1-.5-.2-.9-.4-1.5-.5-.5-.1-1 0-1.6.1-.1 0-.2.1-.4.1-.1 0-.2.1-.4.1-.2.1-.3.2-.5.3.2-.1.3-.2.5-.2.1 0 .2-.1.4-.1.1 0 .2 0 .4-.1.6-.1 1 0 1.4.1.6.2 1 .3 1.3.6.4.2.8.6 1 .9.3.4.4.8.5 1.2.2.9 0 1.9-.5 2.7-.4.8-1.2 1.3-2.2 1.6-.9.2-1.9.1-2.7-.3-.8-.4-1.4-1.2-1.7-2.2.2-.5.2-1 .2-1.5zm.5-1.3c-.3.9-.4 1.8-.1 2.7.3.9.8 1.7 1.6 2.1s1.7.5 2.5.3 1.6-.7 2-1.4c.4-.7.6-1.6.4-2.5-.1-.4-.2-.8-.5-1.1-.2-.3-.6-.6-.9-.8-.3-.2-.7-.4-1.3-.5-.4-.1-.8-.1-1.3-.1-.1 0-.2 0-.3.1-.1 0-.2.1-.3.1l-.6.3c-.5 0-.8.3-1.2.8z" fill="#000000" stroke-width="none" opacity="1"></path><path id="SvgjsPath16283" d="M119.6 84.6c-1.2-.3-2.6 1.2-2.3 2.4.1.3.3.5.6.5s.6-.1.8-.4c.1-.1.1-.2.2-.3l.1-.1v-.1l.1-.1.1-.1s.2-.1.1-.1c.2-.1.4-.1.5-.2.6-.3.6-1.3-.2-1.5z" fill="#ffffff" stroke-width="none" opacity="1"></path></g></g></g><g id="svga-group-eyesfront-right"><path id="SvgjsPath16336" d="M118.98 74.43c-6.9 0-12.5 5.6-12.5 12.5s5.6 12.5 12.5 12.5 12.5-5.6 12.5-12.5-5.59-12.5-12.5-12.5zm6.93 14.74c-2.64 1.52-5.99 2.41-9.25 2.5s-4.47-.27-4.87-.09c-.4.18-1.56.22-1.61-.36 0 0 .94-2.95 1.83-4.43s3.58-3.22 8.54-3.4c4.96-.18 8.67.54 8.67.54s-.67 3.72-3.31 5.24z" fill="#ffffff" stroke-width="none" opacity="1"></path><path id="SvgjsPath16339" d="M134.5 83.64a.546.546 0 0 0-.76-.14c-1.9 1.32-3.6.24-3.67.2l-.13-.06-.1-.03c1.82-.64 2.35-1.82 2.38-1.89a.553.553 0 0 0-.29-.71.536.536 0 0 0-.71.29c-.03.07-.81 1.73-4.11 1.72-.4-.06-.81-.11-1.23-.15 1.59-.87 1.69-2.05 1.69-2.11.02-.3-.21-.56-.51-.58a.536.536 0 0 0-.58.51c0 .01-.2 1.35-3.07 1.84-.12.02-.22.09-.3.17-3.87-.07-7.96.47-9.75 1.85-2.84 2.19-4.02 7.61-4.07 7.84-.06.3.13.58.42.65a.545.545 0 0 0 .64-.42c.01-.05 1.14-5.26 3.67-7.21 2.31-1.78 10.24-2.06 14.6-1.03-.15.07-.28.2-.31.37-.07.33-1.91 7.95-16.33 6.16a.55.55 0 0 0-.61.47c-.04.3.18.57.47.61 1.56.19 2.98.28 4.27.28 11.58 0 13.19-6.96 13.26-7.29a.577.577 0 0 0-.09-.43c.09.03.18.05.27.08.41.25 2.52 1.36 4.83-.25.23-.15.29-.49.12-.74z" fill="#000000" stroke-width="none" opacity="1"></path></g></g></g><g id="svga-group-facehighlight-single"></g><g id="svga-group-eyebrows-left-move" transform="matrix(1,0,0,1,0,0)"><g id="svga-group-eyebrows-left-rotate" transform="matrix(1,1.7453292519943295e-9,-1.7453292519943295e-9,1,1.3121334063725953e-7,-1.391175175058379e-7)"><g id="svga-group-eyebrows-left"><path id="SvgjsPath16376" d="M74.33 71.59c1.52-.07 17.06 3.38 17.49 4.03.43.65-.65 3.02-1.15 3.17-.5.14-15.19-4.53-15.83-4.39-.65.14-6.91 2.59-7.34 2.38-.44-.22 5.32-5.12 6.83-5.19z" fill="#ffffff" stroke-width="none" opacity="1"></path><path id="SvgjsPath16377" d="M67.28 77.2c.35.18.9.08 5.66-1.64.84-.31 1.71-.62 1.97-.69.63.05 4.8 1.29 8.16 2.29 5.89 1.75 7.16 2.1 7.6 2.1.06 0 .11-.01.15-.02.67-.19 1.21-1.59 1.31-1.87.24-.64.45-1.52.11-2.03-.69-1.04-16.86-4.29-17.91-4.24-1.63.08-7.13 4.66-7.31 5.5-.07.26.04.49.26.6zm7.07-5.13c.13-.01.37.01.68.06l2.07 2.3c-1.61-.45-2.16-.55-2.37-.5-.03.01-.08.02-.12.04l-2.21-.88c.86-.59 1.6-1 1.95-1.02zm3.91 2.69-2.22-2.47c.77.13 1.74.32 2.82.54l1.57 2.56c-.84-.25-1.56-.46-2.17-.63zm3.08.9-1.63-2.65c.72.15 1.47.31 2.23.48l.63 2.53c-.43-.13-.84-.25-1.23-.36zm6.77 1.99c-.33-.1-.68-.2-1.05-.3l.67-2.5c.48.12.93.24 1.34.35l-.96 2.45zm1.59-2.28c.3.08.57.16.81.23l-.96 2.45c-.24-.07-.52-.14-.81-.22l.96-2.46zm-3.25 1.8c-.48-.14-.98-.29-1.48-.44l.38-2.46c.61.14 1.2.29 1.76.43l-.66 2.47zm4.1 1.13c-.09-.01-.22-.04-.37-.08l.95-2.41c.14.05.25.09.32.13.11.44-.52 1.99-.9 2.36zm-7.22-2.05c-.01 0-.03-.01-.04-.01l-.65-2.59c.7.16 1.4.32 2.08.48l-.37 2.43c-.34-.11-.69-.22-1.02-.31zm-10.72-1.59c-.12.04-.25.09-.39.14-.53.02-1.48.07-2.24.11.57-.47 1.19-.95 1.79-1.38l1.9.75c-.3.1-.63.23-1.06.38zm-3.91 1.36c.14-.13.31-.28.48-.43.27-.01.6-.03.96-.05-.52.18-1.02.35-1.44.48z" fill="#000000" stroke-width="none" opacity="1"></path></g></g></g><g id="svga-group-eyebrows-right-move" transform="matrix(1,0,0,1,0,0)"><g id="svga-group-eyebrows-right-rotate" transform="matrix(1,1.7453292519943295e-9,-1.7453292519943295e-9,1,1.3123080577770452e-7,-2.0997542549139325e-7)"><g id="svga-group-eyebrows-right"><path id="SvgjsPath16378" d="M125.67 71.59c-1.52-.07-17.06 3.38-17.49 4.03-.43.65.65 3.02 1.15 3.17.5.14 15.19-4.53 15.83-4.39.65.14 6.91 2.59 7.34 2.38s-5.32-5.12-6.83-5.19z" fill="#ffffff" stroke-width="none" opacity="1"></path><path id="SvgjsPath16379" d="M133 76.61c-.18-.84-5.68-5.42-7.31-5.5-1.06-.05-17.22 3.2-17.91 4.24-.34.51-.13 1.39.11 2.03.1.28.65 1.68 1.31 1.87.04.01.08.02.15.02.43 0 1.71-.35 7.6-2.1 3.36-1 7.53-2.24 8.16-2.29.25.07 1.12.38 1.97.69 4.76 1.72 5.3 1.81 5.66 1.64.2-.12.31-.35.26-.6zm-5.4-3.52-2.21.88c-.04-.01-.09-.03-.12-.04-.21-.05-.76.06-2.37.5l2.07-2.3c.31-.04.55-.06.68-.06.35.02 1.09.43 1.95 1.02zm-8.02 2.3 1.57-2.56c1.08-.22 2.05-.41 2.82-.54l-2.22 2.47c-.62.17-1.34.38-2.17.63zm-2.16.63.63-2.53c.76-.17 1.51-.33 2.23-.48l-1.63 2.65c-.38.11-.79.23-1.23.36zm-6.5-.82c.41-.11.86-.23 1.34-.35l.67 2.5c-.37.11-.72.21-1.05.3l-.96-2.45zm.35 2.63c-.3.08-.57.16-.81.22l-.96-2.45c.24-.07.51-.15.81-.23l.96 2.46zm1.61-3.13c.56-.14 1.15-.28 1.76-.43l.38 2.46c-.5.15-.99.29-1.48.44l-.66-2.47zm-4.32 1.23c.07-.04.18-.08.32-.13l.95 2.41c-.16.04-.29.07-.37.08-.39-.36-1.02-1.91-.9-2.36zm7.09.62-.37-2.43c.68-.16 1.38-.32 2.08-.48l-.65 2.59c-.01 0-.03.01-.04.01-.33.1-.68.21-1.02.31zm10.68-2.27 1.9-.75c.6.43 1.22.92 1.79 1.38-.76-.04-1.71-.09-2.24-.11-.14-.05-.27-.1-.39-.14-.43-.15-.76-.28-1.06-.38zm3.54 1.26c.36.02.68.03.96.05.17.15.33.3.48.43-.43-.13-.93-.3-1.44-.48z" fill="#000000" stroke-width="none" opacity="1"></path></g></g></g><g id="svga-group-nose-single-move" transform="matrix(1,0,0,1,0,0)"><g id="svga-group-nose-single"><path id="SvgjsPath16366" d="M95.9 107.5c2 1 4.3 2 6.4 1 2.2-1.1 2.2-3.4 2-5.6-.8-6.5-1.9-13-3.3-19.4-.2-.8-1.4-.5-1.2.3 1 4.7 1.9 9.4 2.6 14.2.3 2.3 1.1 5 .8 7.3-.5 3.6-4.5 2.2-6.6 1.1-.8-.3-1.4.8-.7 1.1z" fill="#000000" stroke-width="none" opacity="1"></path></g></g><g id="svga-group-hair-front"><path id="SvgjsPath16469" d="M176.3 114.9c-1.2.3-1.9-.3-2.2-1.8l.9-1.2c.5-1 .6-1.8.6-2.8 0-.8-.5-1.5-1.1-1.8 1.4-3.2-.1-4.7-1.1-7.9-.8-2.6.4-4.4-2-6.5-.7-.6-1-.3-1.6-1.1-.3-.4-.2-1.2-.4-1.7-.4-.8-1.6-1.8-1.9-2.5-.5-1.4.5-3-.1-4.6-.5-1.3-1.6-1.7-1.7-3.2-.2-2.4 1.1-4.2-1-6.2-1.8-1.7-1.7-.6-1.9-3.4-.1-1.1.1-1.9-.5-2.9-.9-1.3-2-.7-3-1.5s-.4-1.3-.5-2.8c-.2-2.8-1.4-2.9-3.1-3.8-.1-2.2 0-3.9-1.4-5.2.3-1.2.2-2.5-.8-3.6-.7-.8-1.8-.7-2.5-1.1-.1 0-.1-.1-.1-.1 0-.1-.1-.4-.1-.7-.6-2-.9-3.1-3-3.6-1.6-.4-2.2.5-3.5-1.1-.3-.4-.1-1.6-.5-2.2-.9-1.3-1.9-.9-2.9-.9-.3-.8-.6-1.4-1.6-2-.2-.2-.5-.3-.8-.3-.3-.7-.7-1.3-1.7-1.7-.2 0-.6-.1-1-.1-.2-.8-.3-1.5-1.3-2.1-.1-.1-.3-.1-.5-.2-.9-1-1.9-1.2-3-1-.2-1.5-1.4-2.8-3.1-2.3-2.9.8-2.3-.4-4.3-1.7-1.7-1.1-2.9.1-4.3-.4-.8-.3-1.6-1.5-2.7-1.8-1.4-.4-2.7.7-3.9.4-1-.3-1.4-1.6-2.7-1.8-.7-.1-2.7.7-2.8 1.2-.5-.5-1.1-1.2-1.8-1.2-1.2 0-2.3 1-3.3 1.8-.6-.8-1.4-1.4-2.5-1.4-.4-.6-1.1-1.1-2.1-1.2-.7-.1-1.4 0-2.1.3-.7-.8-1.7-1.2-2.8-.9-.7.2-1.1.4-1.7.8l-.4.4c-.4-.2-.9-.4-1.4-.5-.9-.1-1.7.1-2.4.4-.2-.1-.4-.2-.7-.3-1.2-.2-2.3-.3-3.4.1-.6.2-1 .6-1.4 1-.2 0-.3-.1-.5-.1-.7-.1-1.4-.1-2 .2-.5.2-1.3.9-1.5 1.5 0 .1 0 .1-.1.2-.2-.1-.3-.2-.5-.3-2.1-1-3.9.9-4.4 2.9-.5-.1-1 0-1.5.4-1 .9-2.2 1.1-3.5.9-1.8-.4-3.2.8-3.3 2.6-.1 1.5-1.8.3-3.2 1-1.4.7-1.5 1.9-2 3.1-.5 1.3 1 .1.1.9-.3.2-1.4.2-1.8.4-1.1.6-1.6 1.6-1.8 2.7-.1.5 0 .9 0 1.4.1.9.1 1.5.3 1.4-.7.4-2 .5-2.7 1.2-1.1 1.1-1.5 2.6-1.3 4-.8.3-1.6.4-2.6.6-1.2.2-1.7 1.7-1.5 2.7.1.5 1.4 2.6 1.3 2.8-.2 1.1-1.4.9-2.2 1.5-.9.8-1.3 4.6-2.2 4.5-.9-.1-1.4.8-1.5 1.5-.2 1.4 1.8 3.6-.5 4.1-1.2.3-1.9 1.9-1.2 3 1.5 2.3-1.1 2.5-1.6 4.5-.2.7 0 1.6.3 2.2.3.5.4.8.6.9-.9.4-2.2.4-2.9 1.5-.6.9-.3 4.6-.7 4.6-1.8.1-3.3 2.1-2.2 3.8.5.6.9 1.2 1.2 1.9-2 .2-3.1 2.1-2.2 3.9l1.3.7c-1.7-.3-3.5 1.1-2.9 2.9.3 1.1.8 1.9 1.2 2.8-.7.4-1.5.7-1.9 1.6-.6 1.4.9 3.9-.9 4.6-.8.3-1.1 1.1-.8 1.8.5 1.1.8 2 .6 3.3-.1.6-.9 1.1-.8 1.8 0 1.5.2 2.2 1.6 2.7 1.3.6 2.8-.9 1.6-2.1.4.4 1.1-3.8 1.1-3.9-.1-.6-.5-1.1-1-1.6 1.4-.5 2.5-1.3 2.8-3 .1-.4.1-1.8-.3-1.9.4-.2 1.2-.5 1.8-.8-.7.9-.6 2.5.1 3.4-1.6 1.2-1.9 4.5.7 4.9 1.1.2 1.3.4 1 1-1.2.5-2 2-.8 3.1.1.1.2.2.3.2.1.1.1.2.2.3-.2.1-.4.1-.6.3-.6.4-1.2 1.1-1.4 1.8-.2.8-.1 1.6.3 2.3.4.6 1 1.3 1.8 1.4 0 .2 0 .3-.1.5-.2 2.3 3.2 3.1 4.3 1.2.3-.8.8-1.4 1.6-1.8 2.1-.2 3.4-2.2 2.4-4.1.1-.8.2-1.7.3-2.5.7-.7.9-1.6.8-2.5.2.8.6 1.5 1.2 2-1.7.8-2.6 3.6-.4 4.6.1 0 .2.1.2.1-.1.1-.2.1-.2.2-1.7 1.1-1.6 3.2 0 4.3-.1.3-.2.6-.4.9-1.9 1.3-.8 5 1.7 4 3-1.2 4.1-3.9 3.3-6.4.4-.3.9-.7 1.4-1.2.9-.8.8-2.2 0-3.1 0 0 0-.1-.1-.1.4-.3.8-.6 1.3-.9.2-.1.3-.3.4-.5.2.6.6 1.1 1.1 1.4.1.1.2.2.3.2-.5.3-1 .6-1.4 1.4-.7 1.2-.2 3.1 1.1 3.7-1.5 1-1 3.4.5 4.2-.3 1.7 1.2 3.9 3.2 3.1.7-.3 1.4-.6 2.2-.9 2.3-.9 2.5-3.4.6-4.9l-.9-.6c.3-.9.3-1.9 0-2.8.1-.1.2-.1.3-.2.7-.6 1.1-1.2 1.3-2.1.3-1.5-.2-2.5-1-3.4 1-.7 1.9-1.5 1.9-3.2 0-1.5-.7-2.6-1.8-3.5.4-.5.8-1.1.8-1.6.2-1.4-.1-2.2-.9-3.3-.2-.2-.9-1.1-1.5-1.4.6-1 1.4-3.1 1.2-4.2-.2-1.2-.8-2.2-1.6-3.1 1.5-1.8 1.5-4.4.2-6.5 1.6-1.8 1.8-4.3.9-6.5.4-.3.8-.8 1.1-1.2-.2.5-.2.9-.2 1.5.2 2 1.2 3.7 1.1 5.8-.1 1.7-.6 1.5-.1 3.2.1.3.5.5.6.8.5 1.2 1 2.4.7 4.1-.2 1.2-1.2 2-1 3.4.1 1.2.6 1.2 1.1 2.3.8 1.6.4 1.2-.3 3.1-.8 2.2-.3 2.3.8 3.9.8-.1 1.1.3.9 1.1.1.4.1.9-.1 1.3 0 .5-.2.8-.1 1.2.2.7.3 1.1.6 1.4-.8 1.6-1 3-.2 4.8.2.4.9.6 1 0 .1-1.6.7-3 1.8-4.3.5-.6.5-1.6-.2-2-.8-.4.3-2.8.2-3.5-.1-.7-.6-1.2-1-1.8-1-1.3-1.4.1-.4-2 .4-.8 1.2-1.3 1.3-2.3.3-2.9-2.9-2.2-2.2-5.4.7-3.1 1.8-3.1.4-6.2-1.1-2.5-.1-4-.5-6.6-.1-.6-.8-.9-.9-1.5-.4-1.2.1-2.8.5-4 .3-.9 1-1.6.8-2.6-.1-.8-.6-1-.9-1.6-.1-.2-.8-.2-.9-.4-.4-1.1 1-2.6 1.2-3.7.1-.4.1-.7.2-1.1.4.1.9-.2.9-.7 0-1.1 0-2.1.1-3.1.1-.8.1-1.6.2-2.4.2.7.4 1.3.7 2 .3.7 1.3.2 1.2-.5-.2-1.3-.3-2.6-.3-4 .3 1.6.7 3.2 1.3 4.8.2.6 1.3.6 1.2-.2-.3-3.5-.8-6.6-.6-9.9-.1 3.3.1 6.4.7 9.2.2.8 1.3.6 1.3-.2.1-1.6.1-3.2.2-4.9.2 1.7.5 3.4.9 4.8.2.8 1.4.6 1.4-.2.1-1.2 0-2.5 0-3.7.2 1.4.5 2.8.9 4.1.2.7 1.3.6 1.3-.2 0-1.8 0-3.5-.1-5.3.3 1.7.6 3.4 1.2 5 .2.6 1.1.4 1-.3-.2-1.4-.4-2.7-.5-4.1l.2.2c.1 1.4.2 2.7.4 4 .1.8 1.5.6 1.5-.2-.1-1.2-.1-2.4 0-3.6.1 1.5.3 3.1.5 4.5.1.7 1.2.5 1.2-.2v-2c.1.8.2 1.6.4 2.4.1.5.9.4.9-.1.1-1.9.3-3.9.5-5.8 0 1.8 0 3.6.1 5.3.1.7.9.6 1 0l.3-2.4v3.6c0 .6.9.7 1 .1.1-.3.1-.6.1-.8v.2c0 .5.8.7.9.1.1-.2.1-.5.2-.8 0 .4 0 .8.1 1.1 0 .4.7.6.8.1l.3-2.1c0 .5 0 1 .1 1.5 0 .4.7.6.8.1l.3-2.1c0 .8 0 1.5.1 2.2 0 .4.7.6.8.1.7-4.7.8-9.5.8-14.2.1-1.3.1-2.5 0-3.8 0-.8.1-1.7.1-2.6 0-.2.1-.4.1-.5.4 7 0 13.9 0 21.1 0 .4.7.6.8.1 1.3-7.8 2.1-16.4.9-24.5.5 2 1 4.1 1.6 6.1.1.8.2 1.5.3 2.3.5 5.2.1 10.5.5 15.7 0 .5.8.6.9.1.9-3.7 1-7.6.8-11.5.1-.1.1-.2.1-.3l-.3-3.9v-.2l-.3-4.2.6 2.7c1.1 5.6 1.7 11.3 2.4 17 .1 1.1 1.7 1.1 1.7 0 0-.8-.1-1.6-.1-2.4h.1c.1.8.2 1.6.2 2.4.1.5.7.5.8 0 .5-4.1.6-8.4.3-12.7 0-.8.1-1.6.1-2.5v.1c.1.8.1 1.6.1 2.4.2 4.4-.3 8.8.2 13.1.1.4.7.6.8.1.3-1.2.6-2.5.7-3.9.1.9.3 1.8.4 2.7.1.7 1.1.5 1.1-.2v-4.8c.2 1 .3 2 .6 3 .1.6 1 .4 1-.1.2-6.6-.4-15.2-2.2-22.2.8 2.5 1.4 5.1 1.8 7.7.9 5.5.9 11.1 1 16.7 0 .5.7.6.8.1.5-2.1.8-4.2.9-6.4.2 1.9.4 3.8.5 5.8 0 .2.2.4.4.4.1.4.8.4.9-.1.1-1.2.3-2.3.4-3.5.2 0 .4 0 .6-.1.1 1.3.1 2.6.2 3.9 0 .6 1.1.8 1.2.2 0-.2 0-.4.1-.6.1 1 .2 2.1.3 3.1.1.5.7.5.8 0v-.4c.1.3.6.4.7 0 1-5.2 1-11 .3-16.6.1 0 .1 0 .1-.1.1.8.3 1.6.3 2.3.5 4.6.4 9 .2 13.5 0 .7 1.1.8 1.2.2 1.2-4.1 1.1-8.4.7-12.7.8 3.4 1.6 6.8 2.1 10.3v.4c0 .3.2.4.4.4 0 .3.1.5.1.8 0 .2.2.4.3.4v.1c0 .6.7.6.9.1.6-1.6 1-3.3 1.3-5 0 1.7.1 3.4.1 5.1 0 .5.7.6.8.1.1-.5.2-1.1.3-1.6v.8c0 .7 1 .8 1.2.2 0-.2.1-.3.1-.5.1 1.8.3 3.6.4 5.3 0 .5.6.6.8.2 0 .6.8.7 1 .1.2-.7.4-1.3.6-2l.3 6.3c0 .6 1 .8 1.1.2.1-.4.1-.9.2-1.3V77c0 .4.3.6.6.7.2.3.5.4.4 1.1-.1.1-.2.2-.3.4-.3.5-.4 1.2-.4 1.8v.1c-.9 2.2-1.2 2.1-1 4.4.2.4.6.7.9.9-.1.9-.5 1.7-1.1 2.4-.2.5-.4 1-.5 1.6-.2 1.2.7 1.6.3 3.2-.3 1-1.2 1-1.4 2.2-.2 1.3.2 2.3 1 3.1-1.1 1.8-1.2 3.8.4 5.5.5.5 1.4 0 1.2-.7-.5-1.4-.4-2.8.5-4.2.4-.6.4-1.2-.2-1.6-2.7-2 .9-2.7 1-3.9 0-.4-.2-2.4-.2-2.6.2-1.4.9-2.4 1.3-3.6.1.2.2.4.2.7 0 .6-.6.9-.7 1.6-.2 1.1-.5 1.5-.2 2.6.2.9 1.3 1.5 1.5 2.2.3.9-.1.9-.6 2.1-.4.9-.7 1.7-.5 2.7.1.7.4 1.4.8 1.9.3.3.5.5.7.6l-.1.1c-1.5 2.1-1.6 4.5-.4 6.3-.7.9-1.2 1.9-1.2 3.2 0 .7.3 1.6.6 2.2.1.1.4.6.8.9-.1.3-.2.6-.2.9-.2.8-.3 1-.2 1.8.1 1.1.6 2 1.2 2.7-.8 1.6-.8 3.5.1 5.1-.8 1.4-.8 3.1.1 4.5-.8 2.5 2.6 4.4 4.1 2 .2-.4.5-.8.7-1.2.5-.8.4-2.2-.4-2.8-.1-.1-.2-.3-.3-.4 1.5-1.1 1.5-3 0-4.1 0-.4 0-.8.1-1.2 1.6-1.1 1.4-3 0-4.1-.9-.7.3-2.6.1-3.7-.2-1.3-2.4-2.8-.9-3.9.2-.1.3-.3.5-.4.3.4.5.9.7 1.5.2.7 1 1 1.6.7-.6 1-1 2.1-.5 3.5.2.7.7 1.2 1.2 1.6-.4.9-.7 2.3-.6 2.9.2 1.2.9 2 1.7 2.6-.3 1.7-.9 2.9.8 4.5.6.6 2.1 1.6 3 1.6 1.5-.1 2.5-1.7 1.7-3-.9-1.7-.7-2.8-.5-4.7.1-1.1-.9-2-1.8-2.4 1.1.4 1.4-2.1 1.1-3.2-.1-.5-1-1.3-1.1-1.6 0-.3 1-1.5 1.3-2.1.1-.2.2-.5.3-.7.4.9 1 1.7 1.1 2.7.1 1.6-.9 2.7-.1 4.4.2.5 1 1 1.3 1.5-.1 0-.2.2-.2.9-.1 1.5-.5 2.2.4 3.7.3.6.8.9 1.4 1.1-.1.8.3 1.5 1 2 .5.3.9.6 1.2.7.1.5.4.9.9 1.4.3.3.7.4 1.1.1 1.1-.6 1.3-1.1 1.6-2.3.2-.8-.1-1.8-.9-2.2h-.1c.1-.2.3-.4.4-.6.7-.9.9-2.7-.4-3.2-.1-.1-.2-.1-.3-.2.1-.3.2-.5.2-.8.1-.6.1-1.2-.1-1.8.2-.4.4-.9.5-1.4.2.3.6.6.9.8-.1.2-.1.6-.3 1.2-.3 1.7.4 3.4 2 4.2.3.1.6.2 1 .2.1.2.3.4.4.6.4.4 4.2 1.9 4.1.6 0 1 1.2 1.8 2.1 1.2.1-.1.3-.2.4-.3.6-.5.9-1.1.8-1.9-.1-.8-.5-1.3-.9-1.7v-.4c0-.9-.2-1.8-.6-2.6-.2-.4-.8-.8-.9-1.2v-.1c.5.4.8.1.9-.8.1-.1.1-.2.1-.3.9.8 2.1 1 3.3 1-.6 1.3 1.2 2.7 2.2 1.5.9-1.1 1.2-1.9 1.3-3.2.8-.5 0-1.2-.8-1.2zm-135-23c-.1 1.3 0 4.2-1.5 4.8-.5.2-1 .6-1.4 1 .3-.8.4-1.8.3-2.8 1.9-1.3 2.3-3.7 1.5-6.1.6-.4 1.1-1 1.5-1.6.2.7.6 1.3.9 2.1.1.2.2.4.3.5-.9.4-1.6 1.1-1.6 2.1zm1.7-9c-.3.5-.3 1-.3 1.5-.2.1-.3.3-.4.5 0-.6-.4-1.3-.4-1.8.1-.1.2-.2.4-.3.4-.3.8-.4 1.2-.6-.3.2-.4.5-.5.7zm3.2-8c-.2.1-.3.2-.5.3.3-.9.4-1.6.4-2.3.2.2.3.5.5.7-.1.5-.3.9-.4 1.3zm.3-8.8c-.1-.1-.2-.3-.3-.4 2-.5 2-2.8 3.4-4.4-.3 1-.4 2-.3 3-.5.2-1 .3-1.4.6-.6.3-1 .8-1.4 1.2zm1.3 46.5c-.1-.2-.2-.5-.3-.7 0-.4.1-.8.1-1.1.4-.5.7-1.1.8-1.7.2.2.4.3.7.4l.1.1c-1.2.6-1.6 1.8-1.4 3zm1.8-9c-1.1.5-1.8 1.6-2 2.8-.2-.2-.3-.3-.5-.4 0-.4 0-.8-.1-1.2 2.6-1 2.9-4.7 0-5.6.7-.8 1.3-1.5 2-2.3-.1 1.1.2 2.3 1.1 3.1-.8 1-1 2.4-.5 3.6zm1.4-9.4c.2-1-.2-1.9-1.3-2.4 0 0 .5-.5 1.2-1.1-.2 1.1 0 2.3.9 3.1-.3.2-.5.3-.8.4zm2.3-11-.2-.2c-.1-.4-.2-.7-.3-1.1 0 0 0-.1.1-.1.2.3.5.6.9.8h.1l-.6.6zm3.7 23.2c.2.2.3.3.5.4.1.1.1.1.2.1-.6.5-1 1.1-1.3 2.1 0-.5-.1-1-.2-1.5.3-.3.5-.7.8-1.1zm-.1 7.4-.3.3c-.1-.2-.1-.3-.2-.5-.4-.5-.7-.9-1.1-1.3.5-.7.8-1.5.9-2.3.1.9.5 1.9 1.4 2.3.3.1.5.2.8.4-.5.3-.9.6-1.5 1.1zM136.8 85l-.3.9c-.1-.1-.1-.2-.1-.3 0-.5.1-1 .3-1.5.1 0 .2.1.3.1-.1.3-.1.5-.2.8zm12.5 6.3c.1.1.2.1.2.1.1.4-.5 1.4-1 2.2v-.1c-.1-.7.7-1.4.8-2.2zm2.2 18.1c-.3-.5-.9-.9-1.5-1.2-.6-.2-1-.3-1.2-.4.2-.1.4-.2.4-.8-.1-.8.5-1.2.3-2.2-.1-.6-.7-1.5-1.1-1.9-.3-.3-.5-.4-.6-.6.3-1.1.8-2.2 1.1-3.4.8 1 .9.6.9 1.8.1 1.5-.8 2.6.1 4.1.4.6 2.5 2.1 2.4 1.7 0 .1-.6 1.8-.8 2.9zm6.4-39.7c.9.6.9.9.9 1.6-.2-.2-.5-.4-.8-.8-.2-.3-.3-.6-.4-.9.2 0 .3 0 .3.1zm-.5 30.4c-.3-.7-.2-1.3.1-2 .4.2.8.3 1.2.5.1.1.2.1.2.1v.6c.1 1.2-.1 2.1.2 3.1-.5-.8-1.3-1.4-1.7-2.3zm2.8 8c-.2 1.7.8 3.1.7 4.6 0 .3-.1.6-.1.9-1.2-1.8-2.9-2.1-2.1-5.6.4-1.7 1.5-2.6 1.1-4.5 0-.1 0-.1-.1-.1.1.1.2.3.3.4.6.7 1.2.9 1.3 1.2.1.6-1 2.4-1.1 3.1zm.7-26.8c-.2-.5.1-2.4-.2-3.3-.5-1.3-1.2-.9-1.3-2.7 0-.2.1-.4.2-.6.1.2.2.3.4.5.8 1 1.2.4 1.8 1.8.5 1.2.1 1.4.2 2.5 0 1.2.4 2.2.8 3.1-.7-.4-1.7-.8-1.9-1.3zm2.4 3.8c-.1-.4-.1-.8-.1-1.2.2.7.4 1.3.5 2.1-.1-.3-.3-.5-.4-.9zm2.2 9.4c-.3-1-.5-1.9-.6-2.8 0-.1 0-.4.1-.7.2.5.4 1 .7 1.7.2.7.3 1.2.5 1.6-.3 0-.5.1-.7.2zm4.6 17.9c0 .2-.1.3-.1.5-.5-.6-.8-.1-1-.7v-.1h1.2c-.1-.1-.1.1-.1.3z" fill="#000000" stroke-width="none" opacity="1"></path><path id="SvgjsPath16470" d="M91.1 36c-1.1 7.7-1.5 15.3-1.6 23.1 0 .2-.3.2-.3 0-.5-7.7.3-15.5 1.7-23.1 0-.1.2-.1.2 0zm-4.6 3.7c-1.4 4.2-2.5 8.5-2.9 12.9 0 .2.3.2.3 0 .7-4.4 1.6-8.6 2.9-12.8.1-.2-.2-.3-.3-.1zm-3.3 1.1c-1.7 5.2-2.6 10.5-2.3 16.1 0 .1.2.1.2 0 0-5.5.7-10.8 2.3-16 0-.2-.1-.2-.2-.1zm-.7-4.3c.1-.2-.2-.2-.3-.1-3.6 8.9-6.8 18.3-4.8 28 0 .1.3.1.3 0-1.2-9.8 1.5-18.8 4.8-27.9zm-5.6 6c-2.7 5.2-4.7 10.7-5.2 16.6 0 .2.3.2.3 0 1-5.8 2.5-11.2 5.1-16.5.2-.1-.1-.3-.2-.1zm-7.4 5c-1 5.3-1.5 10.7-1.2 16.1 0 .1.2.1.2 0 0-5.4.3-10.7 1.3-16 .1-.2-.2-.3-.3-.1zM101.3 36c2.3 6.3 3.8 12.8 5.2 19.4 0 .1.3.1.3 0-.9-6.7-2.8-13.2-5.3-19.4 0-.2-.2-.1-.2 0zm3.6 2.6c1.1 4.2 1.8 8.5 2.5 12.8 0 .2.4.2.4 0-.3-4.4-1.3-8.7-2.5-12.8-.1-.3-.4-.2-.4 0zm8.3 1.2c1.8 5.6 2.8 11.2 3.5 17 0 .2.4.2.3 0-.3-5.8-1.6-11.6-3.6-17.1 0-.2-.3-.1-.2.1zm3.9 7c.3 3.2.5 6.4 1.1 9.6 0 .2.4.2.4 0-.2-3.2-.8-6.4-1.2-9.6-.1-.2-.3-.2-.3 0zm7.3 2.6c.8 2.7 1.5 5.4 2.4 8 0 .1.2.1.2 0-.7-2.7-1.5-5.3-2.3-8-.1-.2-.3-.2-.3 0zm5.8.1c1.1 4 1.9 8 2.8 12.1 0 .2.4.2.4-.1-.5-4.1-1.6-8.2-3-12.1-.1-.1-.3 0-.2.1zM95.5 27.2c0-.1 0 0 0 0-.7 1-1.6 2.3-3 1.9-.7-.2-1.3-.8-1.9-1.1-.8-.4-1.5-.4-2.1.3-.9 1.2-.9 2.9-2.9 2.5-1.1-.2-2.1-.9-3.3-.9-2.5.1-1.8 4.9-4.7 3.5-.7-.3-1.5-1.1-2.4-.6-1 .5-.7 2.1-1.8 2.7-1.6.9-4.4-.5-5.6 1.2-.8 1.1.1 2.6-1.3 3.4-.9.5-2.1.5-2.9 1.2-.8.7-.4 1.4-.3 2.3.4 2.3-1.8 1.8-3.2 2.4-.8.4-1.1 1-1.1 1.8 0 .5.1 1 .2 1.6.1.7.1 1.1-.6 1.7-.4.3-.9.3-1.2.6-.7.5-1.1 1.3-1.2 2.1-.1.5-.1 1 .1 1.5 0 0 .2.7.2.6v.2s-.1 0-.2.1c-.8.5-1.4.5-1.8 1.5-.6 1.4 1.1 2.8-.2 4-1.5 1.4-3.7 1.6-3.5 4.1 0 .6.2 1.3.3 1.9.1 1.2-.3 1.7-1.4 2.2-.7.3-1.3.7-1.2 1.6.2 1.3 1.5 2.2 1.5 3.6 0 1.2-1.1 2.3-1.8 3.2-.5.7-1.1 1.5-1 2.3.1 1.6 2.1 2.3 1 4-.7 1.1-1.9 1.8-2.4 3-.2.5-.2 1-.2 1.5.1 1 .8 1.6 1 2.5.5 2.3-3.7 2.4-3.4 5 .2 1.5 2.2 3.6-.1 4.5-.7.3-1.6.6-1.4 1.5.2 1.1 1.8 1.5 2.1 2.6.3 1.4-1.8 2-2.5 2.8-.6.6-.7 1.4-.2 2.1.4.7 2.9 2 2.4 2.9-.2.3-.9.6-1.1 1-.3.5-.6 1.1-.7 1.7-.1 1.1.1 2 .8 2.8.1.1.2 0 .2-.2-1.4-1.7-.8-4.3 1.2-5.2l.1-.1c-.3-1-1-1.5-1.7-2.1-.4-.3-.8-.7-1-1.1-.5-1.1.5-1.8 1.3-2.4 1.4-.9 2.3-1.9.9-3.4-.3-.3-.7-.6-.9-.9-.8-1.1.2-1.5 1.1-2 .7-.3 1-.8 1-1.6-.1-1.3-1.4-2.5-1-3.9.3-1.2 1.8-1.6 2.6-2.3.5-.4.8-.9.8-1.5 0-.8-.6-1.4-.9-2.1-.4-1.3.1-2.5 1-3.5.6-.7 1.6-1.4 1.8-2.4.3-1.3-.9-1.8-1.3-2.9-.6-2.1 2.5-3.7 2.8-5.8.1-1-.4-1.8-.9-2.6-.2-.3-.4-.7-.5-1.1-.2-1 .5-1.2 1.2-1.6.4-.2.8-.3 1-.7.6-.9.2-2 0-3-.3-2 .6-2.8 2.3-3.8.7-.4 1.5-.9 1.7-1.7.1-.5 0-.8-.2-1.3-.3-.8-.5-1.4 0-2.1.5-.7 1.2-1.1 2.1-1 .1 0 .1-.1.1-.2-.9-1.2-.8-3 .3-4.1.7-.7 1.9-.7 2.2-1.8.2-1-.4-2-.1-3 .4-1.4 2-1.2 3.1-1.6.5-.2 1-.4 1.2-.9.5-1.3-1-2.6.6-3.5 1.3-.8 3.3-.6 3.5-2.6.1-.8 0-1.7.8-2.2.5-.3 1.1-.3 1.6-.3.9 0 1.8.1 2.6-.1.5-.1 1.1-.3 1.4-.8.3-.3.3-.7.5-1 .3-.8.5-1.4 1.6-1.2.3.1.7.3 1 .5 1.4.8 2.4.5 3-1 .5-1.2.9-2.5 2.5-2.3 1 .2 1.9.7 3 .9.7.1 1.3-.1 1.8-.6 1-1.1 1-3.5 3.2-2.2.8.5 1.7 1.3 2.7 1 .5-.1.9-.5 1.2-.8l.3-.3c.1-.2.3-.4.4-.6.7-.1 1.1.2 1.4.7 0 .1.1.1.1 0-.7-.5-1.1-.8-1.7-1zM62.4 55.9c.5-.4 1-.5 1.6-.9 1.4-.9.7-2.8.7-4.1 0-.7.1-1.2.5-1.7.5-.5 1.2-.5 1.9-.8.6-.2 1.1-.5 1.2-1.2.1-.5 0-1 0-1.5 0-.8.3-1.6.8-2.3.9-1.4 2.5-2.2 4.1-2.2.1 0 .1-.1.1-.1-.1-.3-.2-.6-.3-.8-.3-1.5.2-2.1 1.6-1.8 0 .1.1 0 0 0-1-.9-2 .4-1.9 1.4 0 .7.5 1-.2 1.2-.5.1-.9.2-1.4.4-.8.4-1.5.9-2 1.6-.5.7-.9 1.5-1 2.3v.7c0 .8.1.7-.4 1.4s-.4.6-1.1.8c-.3.1-.6.1-.9.3-1.5.6-1.3 2.1-1.1 3.5.1 1.4.1 2.5-1.4 3-.6.2-1.3.4-1.5 1.1-.2.6.2 1.2.5 1.8.2.4.9 1.3.3 1.8-.2.2-.9.2-1.2.4-1.6 1-1.6 2.7-.7 4.1.3.4.4.3.1.7-.3.5-1 .8-1.5 1.2-.5.4-1.1.9-1.4 1.6-.7 2.1 2.9 3.2 1 5.2-.9 1-2.5 1.7-1.6 3.3.5.9 1.5 1.4 1.7 2.4.3 1.2-.6 2.1-1.2 3-.9 1.2-1.4 2.3-.2 3.6 1 1 1.4 1.8.7 3.1-.4.8-1.1 1.5-1.6 2.3-.9 1.3-1.2 2.5-.2 3.8 2.3 3.3-3.1 2.9-2.5 5.6.1.7.7.9 1.2 1.2.2.1.5.2.7.3.3.4.3 1.2 0 1.5-.3.3-.8.5-1.2.6-1.4.8-1.8 1.8-.8 3 .9 1.2 1.8 2.1.8 3.6-.5.8-1.3 1.4-1.9 2.2-.4.5-.7 1.1-.6 1.8.1.4.3.8.5 1.2.1.2.3.4.4.6.3.3.2.7-.1 1.1 0 .5-.2.8-.6 1-1 1-1.4 2.5-.1 3.5.1.1.2-.1.1-.2-.8-.6-1-1.7-.5-2.6.4-.6 1.1-.6 1.5-1.2.6-.8-.2-1.6-.6-2.3-1.6-2.7 1.8-3.6 2.4-5.9.2-.8-.1-1.4-.5-2.1-.3-.4-.8-.8-1.1-1.3-.6-1.2.2-1.8 1.1-2.3 1.1-.6 2.7-1.7.9-2.7-1-.5-2-.9-1.1-2.3.4-.6 1.2-.9 1.7-1.3.8-.6 1.3-1.4.9-2.4-.2-.5-.7-.9-.9-1.4-.4-.8-.2-1.5.2-2.3.5-1 1.3-1.8 1.9-2.7.4-.6.7-1.4.5-2.1-.3-1.3-2.2-1.8-1.8-3.3.5-1.7 3-3 2-5-.7-1.4-2.9-2.4-1.2-4.1.7-.7 1.9-1.3 1.8-2.5-.1-1.3-1.7-1.9-1.7-3.3 0-1.6 2.3-2.5 3.3-3.6 0 0 .1-.1 0-.2-1.9-1.5-1-4.4 1.5-4.5.1 0 .1 0 .1-.1.2-.7-.1-1.3-.5-2-.1-.2-.2-.3-.3-.5-.1-.8-.1-1.1.5-1.6zm-1.7 68.5c.6-.8.9-1.6.1-2.5-.6-.6-2.1-.9-1.1-1.9.4-.3.9-.4 1.2-.9.4-.5.2-1.1-.3-1.4-.2-.1-.4-.2-.7-.2-.9-.3-1.1-1.8-.4-2.4.5-.5 1.1-.9 1.4-1.5.6-1.2-.3-2.3-1.2-3-.4-.3-1.2-1-1.2-1.5 0-.3.4-.7.7-.9.4-.4.8-.7 1.1-1.1.4-.7.2-1.3-.4-1.7-.1-.1-.3-.1-.4-.2-.1-.1-.2-.1-.4-.2-.1-.5-.2-1.1-.3-1.6.1-.4.6-.8.8-1.2.2-.5.3-1 .2-1.4-.1-.7-.5-1-.9-1.5-.3-.3-.4-.1-.2-.7s.6-1.2.8-1.7c.1-.1-.1-.2-.2-.1-.4.8-.8 1.5-1.1 2.3 0 .1 0 .2.1.2 1.3.5 1.7 1.9 1 3.1-.3.5-.8 1-.9 1.6-.2 1 .7 1.1 1.3 1.7 2.1 1.8-2.9 2.8-.8 4.7.6.6 1.5.9 1.9 1.8.7 1.5-.5 2.1-1.3 3-.5.6-1.1 1.5-.5 2.2.2.2.5.3.7.5.2.1.8.2 1 .4.7.8 0 1.1-.4 1.5-.6.4-1.3.7-1.3 1.4v.1c.7.3 1.5.6 1.9 1.3.6.9-.1 1.4-.5 2.2-.2.3-.4.5-.4.9.1 1.1 1.6 1.4 1.9 2.4 0 .1.1 0 .1 0-.3-1.8-2.5-1.9-1.3-3.7zm8.2-30.7c0-.1 0-.2-.1-.2-2.3 0-.6-3.5-.8-4.6-.1-.6-.4-.9-.8-1.2-.5-.5-.9-.9-.7-1.7.1-.4.3-.8.4-1.1.3-.8.6-1.6.1-2.4-.4-.6-.9-.8-1.2-1.5-.4-1.1-.1-2.3.8-3.1.1-.1 0-.2-.1-.2-1-.2-1.7-.9-2-1.9-.3-1.3.4-1.8 1-2.7.7-1.2-.8-2-.4-3.3.3-1 1.4-1.8 1.4-2.9 0-.5-.3-.9-.5-1.3-.7-1.4-.5-2.8.8-3.8.1-.1 0-.2-.1-.1-1.2.8-1.7 2.3-1.1 3.7.2.5.7 1 .7 1.6 0 .6-.3 1.1-.6 1.5-.4.6-.9 1.2-.9 1.9-.1 1.2 1.2 1.5.4 2.9-.3.6-.8.9-.9 1.6-.1.6 0 1.2.4 1.8.3.6.8.8 1.3 1.2.1.1.1.1.2.1 0 0-.1.1-.1.3-.1.2-.3.5-.4.8-.2.7-.3 1.5 0 2.1.4 1 1.6 1.5 1.5 2.6-.1.9-.7 1.6-.8 2.5 0 .5.1.8.4 1.2.5.6 1.1 1 1.2 1.9.1.7-.4 1.5-.5 2.2 0 .5 0 1.1.3 1.5.2.4.8.6.8.8 0 .2-.7 1.1-.8 1.4-.2.4-.3.8-.3 1.2-.1.5 0 1 .2 1.5.3.7.6.7.6 1.7 0 .9-.4 1.2-.6 1.9-.1.3-.1.6-.1 1 .2 1.4 1.9 3 .7 4.4-.1.1 0 .2.1.1.5-.5.6-1.1.5-1.8-.1-.5-.3-.9-.5-1.3-.2-.5-.6-1.2-.6-1.8 0-.5.3-1 .6-1.5.4-.7.4-1.3 0-2-.5-.9-.8-1.6-.5-2.6.1-.9.6-1.7 1-2.4zm-17 2.5c-.1 0-.1.2 0 .2 1.1-.4 1.1-1.5.8-2.5-.2-.8-.7-1.6-.2-2.5.5-.8.7-.5 1.2-1 .3-.3.4-.5.3-1-.2-.9-.9-1.5-.9-2.5 0-1.4.9-1.8 1.7-2.7.7-.8.5-1.6 0-2.5-.3-.6-.7-1.1-1-1.7-.2-.6-.4-1.2-.1-1.8.2-.4.7-.7 1-1 .7-.7.4-1.4-.1-2.1-.5-.6-1-1.1-.6-2 .2-.4.5-.7.8-.9.4-.3.8-.6 1-1.1.1-.3.2-.6.1-.9.1-.2 0-.2-.2-.4-.6-1-.6-2.1.7-2.6.1 0 .1-.2 0-.1-.9.2-1.4 1.2-1.2 2.1.2.9 1.2 1.6.3 2.5-.4.4-1 .8-1.3 1.2-.6.8-.2 1.5.3 2.2.6.7.8 1.4.1 2.2-.2.2-.5.4-.7.6-.3.4-.4.8-.4 1.2.1 1.3 1.2 2.2 1.6 3.4.3 1.3-.6 1.6-1.3 2.4-.4.5-.6 1-.7 1.7-.1.6 0 1.2.2 1.8l.3.6c.3.8.1 1.3-.5 1.5-.2.2-.3.2-.6.5-1 1.5 1.4 4.5-.6 5.2zM43 80.5c.1 0 .1-.1.1-.2-.3-1-.6-2.1-.4-3.1.3-1.2 1.4-2.5 2.8-1.8.1 0 .2 0 .2-.1-.3-.9-.5-1.8-.5-2.7 0-.5.1-1.1.4-1.5.5-.8 1.2-.7 1.9-1.1.5-.3.6-.7.7-1.2.2-1 .2-2 .6-3 .5-1.1 1.4-1.8 2.2-2.7.4-.4.6-.9.6-1.5s-.3-1.2-.5-1.8c-.2-1 .2-1.4.9-2.2l.5-.5c.8-1.6-1.3-3.5.6-4.7 1.2-.8 2.4-.7 2.4-2.5 0-1-.3-2 .5-2.9.5-.6 1.3-1 2-1.3 1.1-.5 2.3-1.1 2.8-2.2.4-.9.3-2 .6-2.9.5-1.4 1.8-1.5 3-1.9.5-.2 1-.4 1.3-.8.2-.3.3-.6.3-1v-.8c0-1.1.5-1.5 1.6-1.2 0 0 .1 0 .1-.1-.4-.6-1.2-.3-1.6.2-.3.4-.2.9-.3 1.4-.2 1.6-1.2 1.8-2.5 2.2-1.2.3-2.1.8-2.3 2.1-.2.8-.1 1.7-.5 2.5-.4.9-1.2 1.4-2 1.8-1 .6-2.3 1-3 2-1 1.4.3 3.3-1.2 4.5-.9.7-2.2.5-2.4 2-.1.6.1 1.1.2 1.7.1.5.3 1.1.1 1.5-.2.6-.9.9-1.3 1.3-.7.9 0 2 .2 2.9.4 1.5-.7 2-1.6 2.9-.5.6-.9 1.2-1.2 1.9-.3.7-.4 1.4-.5 2.2-.1.9-.2 1.4-1.1 1.8-.3.2-.7.2-1 .4-.9.7-1 1.9-.9 3 0 .2.5 1.6.4 1.7-.1 0-1-.1-1.2 0-1.2.4-1.7 1.6-1.7 2.8 0 .6.6 2 .3 2.4-.1.1-1.2.4-1.4.6-.9.6-1.5 1.7-1.6 2.8-.1.6 0 1.2.2 1.7.3.8 0 .5-.7.9-1.2.6-1.8 2-1.5 3.4.3 1.4 1.2 2.6 0 3.8-.5.5-1.1.7-1.3 1.5-.3.9.1 1.8 0 2.7-.1 1.5-.7 2.7-1.7 3.8-.1.1 0 .2.1.1.9-.9 1.6-2 1.8-3.3.1-.7 0-1.3 0-1.9-.1-.7-.1-1.4.5-2 .2-.3.5-.4.8-.6.8-.8.9-1.5.6-2.5-.2-.7-.6-1.4-.6-2.1-.1-1.5 1.1-2.7 2.5-2.8.1 0 .2-.1.1-.2-1.3-2.1.1-5.2 2.6-5.4zM92.8 32c-1.2.4-2-1.5-3 0-.6.9-.5 1.9-1.8 2.3-.7.2-1.5.2-2.2.5-.4.2-.6.5-.9.8-.1.1-.2.3-.2.4-.6.3-1.1.2-1.6-.2-.3-.1-.3-.2-.6-.2-1-.2-2 .4-2.4 1.3 0 .1.1.1.2.1.7-1.2 1.8-1.3 3-.7.4.2.6.4 1.1.3.3-.1.5-.5.7-.7.6-.9 1.3-.9 2.3-1.1.9-.2 1.7-.3 2.2-1.2.2-.3.2-.7.4-1 .1-.7.7-.9 1.6-.6.1.1.3.2.4.2.4.1.5.3 1 .1 0-.1-.1-.3-.2-.3zm16-.8c-.4-.6-.3-1.2-1-1.6-.5-.3-1.1-.3-1.6-.1-.4.1-.8.3-1.1.5-.1.1-.7.6-.8.6 0 0-.4-.9-.6-1-.5-.4-1.1-.6-1.7-.6-1.6.1-2.5 1.7-3.2 2.9 0 .1.1.2.1.1.5-.9 1-1.9 2-2.5 1.2-.6 3.1-.2 3.1 1.4 0 .1.1.1.2.1.7-.6 1.6-1.4 2.6-1.3.8 0 1.2.7 1.6 1.4.1.1.1.3.2.4.6.8 1.7.2 2.5.6.1 0 .2-.1.1-.1-.7-.6-1.9 0-2.4-.8zM136.2 49c.3 1.3 1.1 1.6 2.3 1.6.6 0 1.2 0 1.7.2.7.3 1.1 1 1.4 1.7.6 1.1 1.1 2.3 1.7 3.4.1.1.2 0 .2-.1-.4-.9-.8-1.7-1.2-2.6-.4-.8-.7-1.8-1.4-2.3-1.5-1.2-4 .5-4.5-2.2-.2-1.3-.5-2.1-1.9-2.3-1-.1-2.1.1-2.8-.8-.6-.7-.2-2-.5-2.8-1.1-2.3-4.2-.1-6-.7-1.7-.5-.8-3-2.3-3.8-1.2-.6-2.5-.1-3.7.2-2.6.7-2.2-2.6-4.1-3.4-1.2-.4-2.5-.1-3.2.9-.1.1 0 .2.1.1 1.4-1.8 3.7-1 4.5.8.4.9.8 2 1.9 2 1.7.1 3.7-1.7 5 .2.7 1 .2 2.5 1.5 3.1 2.4 1 5.9-2.3 6.3 2 .1.9.2 1.8 1.2 2.2.6.2 1.2.2 1.7.2.8.1 1.4.3 1.8 1.1.3.3.2.8.3 1.3zm5.1 75.7c0-.7.2-1.3.3-2 0-.4 0-.6-.2-1-.6-1-1.2-.6-1-2.4.1-.6.4-1.1.3-1.8 0-.6-.2-1.2-.4-1.8-.5-1.6-1.3-3.8.4-4.9.1-.1.1-.2 0-.2-2.8-.6 0-4.6.1-6.1 0-.7-.2-1.1-.6-1.6-.5-.6-.5-.5-.5-1.4 0-.7 0-.7.3-1.2.2-.4.4-.8.5-1.2.2-.8-.1-1.5-.4-2.2-.5-1.5-.4-2.5.3-3.9.5-1.1.9-2.3-.1-3.2-.5-.4-1.3-.9-1.2-1.8 0-.4.5-1 .7-1.4.3-.6.5-1.2.3-1.9s-.8-1.2-1.1-1.9c-.7-1.3 0-2.2.7-3.3.7-1 .9-1.9-.2-2.7-.9-.8-.9-1.4-.4-2.5.1-.4.3-.7.4-1.1.1-.7-.1-1.3-.5-1.9-.3-.4-1.9-1.5-1.9-1.9 0-.1.5-.5.7-.7.2-.3.4-.7.5-1.1.4-1.7-.8-3.1-2.4-3.5-.1 0-.1.1 0 .1 2.5.6 3.1 3.7.8 5.1-.1 0-.1.2 0 .2 1.5 1 3 2.2 2.3 4.2-.3.8-.9 1.6-.4 2.4.1.2.3.4.5.5.9.8 1 1.4.4 2.5-.4.7-1 1.4-1.1 2.2-.1.8.3 1.4.7 2 .3.5.7 1 .8 1.6.1.9-.4 1.6-.7 2.3-.2.5-.4 1-.2 1.5.1.3.3.5.5.7.3.2.7.4 1 .7.5.6.4 1.1.2 1.7-.3 1-.9 1.8-1 2.8-.1 1 .4 1.9.6 2.9.5 1.6-.7 2.2-.9 3.6-.2 1 .6 1.4 1 2.1 1.2 2.1-1.9 4.3-.7 6.6.1.2.8.8.8.8s-.5.6-.6.8c-.2.3-.2.7-.3 1.1-.1 1.3.4 2.4.7 3.6.2.6.2 1.1.2 1.8-.1.6-.3 1.1-.4 1.7 0 .3-.1.6 0 .9.2.5.7.8 1 1.2.5.7.2 1.4 0 2.2-.2 1.2.2 2.3.9 3.2.1.1.4 0 .3-.1-.6-.7-.9-1.5-1-2.3zm8.5-6.6c-.6-1.3-1.2-2.1-.8-3.6.4-1.3 1.2-2.7.7-4.1-.2-.6-.6-.8-1.1-1.1-1.2-.7-1.2-1.5-.7-2.7.4-.8 1-1.7.9-2.6-.2-1.4-2-1.2-2.5-2.3-.8-2 1.9-4.4.4-6.3-.3-.4-.8-.6-1.3-.8-1.7-.8-1.3-2.2-.6-3.6.4-.9 1-2.2.3-3.2-.3-.4-.7-.5-1.1-.6-1.7-.6-1.3-2.2-.5-3.4.6-1 1.7-2.1 1.4-3.4-.1-.4-.3-.7-.6-1-.5-.4-.7-.4-1.2-1-.6-.6-.7-.6-.4-1.3.1-.3.3-.7.5-1 .5-.8 1.2-2 .5-2.9-.5-.7-1.6-.5-2-1.2-.5-.9.5-2.2.7-3 .3-1.1-.1-2.1-.9-2.8-.6-.5-1.1-.5-1.8-.7-.5-.1-.4.1-.2-.6.1-.5.3-.9.4-1.4.2-1.2-.2-2.8-1.5-3.3-.3-.1-.6-.1-.8-.1-1.8-.6-1-1.8-.5-2.7.3-.5.7-1.2.4-1.8-.2-.7-1.2-1.1-1.7-.5 0 .1 0 .2.1.1h1.1v1.7c-.1.2-.3.5-.4.7-.2.3-.3.6-.4 1-.1.5-.1 1.1.3 1.5.6.6 1.6.2 2.3.8 1.4 1.3.6 3.4.1 4.8 0 .1.1.2.2.2 1.1-.3 2.3.3 2.9 1.3.6 1 .2 1.9-.2 2.9-.3.8-.6 1.6-.2 2.4.2.3.4.4.7.6.6.4 1.2-.7 1.5 1.1.1.4-.2 1-.3 1.4-.4.8-1.2 1.7-1 2.7.3 1.2 1.9 1.1 2.4 2.2.6 1.3-1.3 3-1.8 4.1-.3.7-.5 1.5-.2 2.2.1.3.3.5.6.7.3.2.4.1.7.3 1.1.4 1.4 1.1 1.1 2.2-.4 1.7-2.4 3.9 0 5.1.7.3 1.4.5 1.7 1.2.2.6.2 1.2 0 1.7-.2.9-.6 1.8-.8 2.8-.1.6-.1 1.3.3 1.8.8 1 2.6.8 2.2 2.5-.2 1.2-1.8 2.9-1 4.2.5.7 1.4.7 1.8 1.4.5.9.2 2.1-.2 3-.5 1.3-.9 2.4-.3 3.7.4.9 1 1.6 1 2.6 0 .8-.3 1.6-.5 2.3-.3 1.1-.5 2.1.2 3.1.1.1.3 0 .2-.1-1-1.6.2-3.3.4-5-.1-1.1-.2-1.7-.5-2.2zm7.6 1.8c-.9-1-.2-1.8-.5-2.9-.3-1.4-2-1.7-1.7-3.4.2-1.2 1-2.2 1.3-3.4.2-.8.1-1.5-.4-2.1-.2-.3-.5-.4-.7-.7-.8-1.1-.4-1.8.1-2.8.3-.6.6-1.1.7-1.8 0-.4 0-.9-.3-1.3-.4-.5-.9-.4-1.4-.7-1.7-1.2.1-3.6.3-5 .1-.8-.1-1.6-.8-2-.6-.4-1.2-.1-1.8-.9-.3-.4-.3-.9-.3-1.4 0-.9.4-1.7.6-2.6.2-.9.4-2-.3-2.8-.3-.4-.7-.6-1.1-.9-1-.8-1-1.7-.7-2.8.3-.9.8-1.9.8-2.9-.1-1.1-1-1.2-1.8-1.7-2.2-1.3.9-4.7-1.1-6.2-.5-.4-1.2-.5-1.7-.8-1.4-.8-.9-2-.7-3.2.1-1.1-.1-1.8-1-2.4-.6-.4-1.4-.6-1.9-1.1-.9-1 .3-2.1.4-3.1.1-1.1-.5-2-1.4-2.5-.1-.1-.2.1-.1.1 1.2.7 1.5 2 1 3.2-.2.5-.6.9-.5 1.5.1.8.8 1.2 1.4 1.5.6.3 1.4.6 1.7 1.3.5.9 0 1.9-.1 2.8-.1.8.1 1.5.8 2 .5.3 1.2.4 1.7.7.9.5 1 1.5.8 2.4-.1.9-.5 1.9-.3 2.8.2 1.1 1 1.1 1.8 1.6 1.4.9.3 2.7 0 3.8-.2.8-.4 1.6.1 2.3.2.3.5.5.8.7.4.3.9.5 1.2 1.1.4.7.2 1.6 0 2.3-.3 1.1-.8 2.1-.6 3.3.1.4.2.8.5 1.1.4.4.9.4 1.4.6 3 1.6-1.6 5.2.9 7.2.7.5 1.4-.4 1.6 1.4.1.5-.2 1.1-.4 1.6s-.6 1-.7 1.6c-.4 1.7 1.2 1.8 1.6 3.2.6 2.1-2.5 4.3-1 6.3.2.3.5.5.7.7.4.5.7 1.1.7 1.7 0 .6-.2 1.2.1 1.8.1.2.3.3.4.5.7.9.6 1.5.5 2.5-.1 1-.3 2-.4 3 0 .1.2.2.2 0 .2-1 .3-1.9.4-2.9.1-.5.3-1.2.2-1.7-.3-.1-.6-.3-1-.6zm15.4-10c-.2-.7-.5-1.3-.5-2 0-.8.4-1.4.5-2.2 0-.6-.1-.8-.5-1.1.1.1.2.5.1 1.4 0 .3-.2.6-.3.9-.6 2.1 2.3 5.8-.2 7.2-.2.1 0 .3.1.2 1.7-.9 1.2-2.9.8-4.4zm-.6-5.3-.1-.1c-.5-.5-.9.6-1.1-1 0-.2.1-.6.2-.8.1-.3.2-.6.2-1 0-.7-.3-1.1-.8-1.6-.7-.5-1.3-1-1-2 .1-.5.4-.9.7-1.4.3-.5.6-1.1.5-1.8-.1-.7-.6-1-1.2-1.3-.7-.4-1.3-.5-1.6-1.4-.2-.6-.1-1.4-.1-2 0-.8-.1-1.4-.7-2-.7-.7-1.2-1.2-1-2.3.1-.5.2-1 .1-1.5-.2-.8-1-1.1-1.3-1.8-.6-1 .1-2.3.2-3.3.1-.7-.1-1.3-.6-1.8s-1.3-.8-1.5-1.7c-.2-.7.1-1.4.3-2 .2-.7.3-1.4-.2-2-.3-.3-.7-.4-1-.6-.9-.5-1.3-1.1-1.7-2.1-.3-.8-.7-1.6-1.4-2.1-.2-.2-.8-.2-1-.4-.5-.4-.3-2.2-.3-2.7 0-.1-.1-.1-.1-.1-1.4.1-2.5-.9-2.8-2.2-.3-1 0-1.8 0-2.8 0-.8-.2-1.4-1.1-1.5-1.2-.2-3.2.9-3.7-1-.2-1 .2-2.3-.7-3.2-1-1-2.8-.4-3.2-2.1-.2-1 .1-2.1-.4-3.1-.3-.7-.9-.9-1.6-.9-.3 0-.6.1-.9.2-1.1.1-1.6-.5-1.9-1.3-.3-1-.5-2-.8-3l-.1-.1c-2 0-3.6-1.6-3.6-3.7 0-.1-.1-.2-.2-.1-.7.3-1.5.7-2.2.6-.5 0-.8-.1-1.1-.5-.6-.3-.8-.8-.7-1.5-.1-.4-.2-.7-.6-.9-1.5-1-3.1 1.2-4.6 0-.9-.7-1.2-2-2.4-2.3-.9-.2-1.8.4-2.7.2-1.4-.3-2.3-1.6-2.4-2.9 0-.1-.1-.1-.1-.1-.5.2-1.1.4-1.6.5-.7.1-.4.2-.7-.3-.2-.6-.3-1.1-.8-1.5-1.1-.9-2.6-.6-3.5.4-.1.1 0 .2.1.1 1.5-1.7 4.2-.5 3.9 1.7 0 .1.1.1.1.1.4-.1 1.6-.8 2-.6.4.1.3.5.5.9.3.9 1.1 1.7 2 2 1.2.4 2.7-.5 3.7.2.8.6 1.1 1.6 1.9 2.1.8.5 1.6.2 2.5-.1 1.2-.4 1.7-.5 2.5 1.1.2.5.2.9.7 1.3.5.4 1.2.5 1.8.4.2 0 1.4-.5 1.6-.5.2.1.3.9.4 1.2.3.9 1 1.7 1.9 2.1.3.2.7.2 1 .4.4.2.3-.2.7.4.3.4.3 1.2.4 1.6.2.7.3 1.9 1 2.3 1.1.7 2.6-.9 3.5.4.9 1.4-.3 3.5 1.2 4.5.4.2.8.3 1.2.5 1.1.3 1.6.8 1.8 2 .1.8-.1 1.8.5 2.4.5.6 1.4.5 2.1.4 1.2-.2 2-.5 2.2 1.5 0 .6-.1 1.1 0 1.7.1 1.1.6 2.1 1.5 2.7.3.2 1.1.3 1.4.5.6.5.3 2.1.3 2.7 0 .1.1.1.1.1 2.3-.2 2.2 3.2 3.7 4.2.6.4 1.3.5 1.6 1.2.2.5 0 1.2-.2 1.6-.2.7-.4 1.4-.2 2 .2.7.8 1 1.2 1.4 1.2 1.1.7 2.2.5 3.6-.1.6-.1 1.1.1 1.6.1.2.3.4.5.6.7.7 1 1.4.8 2.4-.1.6-.2 1.1 0 1.7.1.3.4.5.6.7.7.6.9 1.2 1 2.1 0 1.6-.1 2.6 1.5 3.4.6.3 1.2.5 1.4 1.2.2.6-.2 1.2-.4 1.7-.3.6-.7 1.2-.8 1.9 0 .4.1.8.3 1.1.2.2.4.4.7.6.8.7 1 1.2.8 2.2-.1.5-.4 1.1-.1 1.6.1.2.3.3.5.4.5.8.8.5.9.6zm-5.3 12.9c-.5-.4-1.2-1-1.2-1.8 0-.4.4-.9.5-1.3.4-1.1.2-2-.4-3-.4-.6-.8-1.1-1.1-1.7-.5-1 .2-1.7.5-2.7.1-.4.1-.8-.1-1.2l-.6-.6c-.6-.7-.7-1.4-.5-2.2.3-1.1 1.1-2.4.5-3.5-.2-.4-.5-.6-.9-.8-.6-.3-1.2-.3-1.5-1.1-.2-.6.1-1.4.3-2 .5-1.1 1.3-2.3.5-3.5-.9-1.4-2.9-1.4-2.7-3.5.1-1 .8-2.3.1-3.2-.6-.8-1.7-.7-2.6-.7-.5 0-.8 0-1.2-.4-.3-.4-.1-.5 0-1 .2-.6.4-1.3.3-2-.1-1-.8-1.5-1.7-1.7-.7-.2-.9-.1-1.4-.7-.5-.6-.4-.8-.2-1.5.2-.5.5-1.1.5-1.7 0-1.5-1.7-1.2-2.3-2.3-.7-1.3 1.1-2.5.8-3.8-.4-1.5-2.7-.8-2.7-2.7 0-1 .7-2.3.1-3.2-.2-.3-.5-.3-.9-.5-.8-.4.3.7-1-.8-.7-.8-.7-.6-.4-1.4.1-.2.2-.5.2-.7.1-.7-.2-1.6-1-1.5-.1 0-.1.1 0 .1 1.8-.2-.1 3.1.5 4 .2.4.6.3 1 .5.7.2 1.5.2 1.6 1.1 0 .3-.1.7-.1 1-.1.8-.5 1.9 0 2.6.3.5.8.5 1.3.7 1.6.7 1.1 1.6.6 2.8-.3.8-.7 1.6 0 2.3.5.6 1.5.6 1.9 1.3.4.8-.2 1.7-.4 2.5s-.2 1.5.6 2c.9.5 2.3.1 2.7 1.4.3 1-.2 2.2-.7 3v.2c.6.9 1.6.7 2.5.7 1.5 0 2 .9 1.7 2.3-.1.6-.3 1.2-.3 1.9.1 1.3 1.3 1.7 2.2 2.4 2 1.6-.4 3.6-.4 5.5 0 .4.1.8.3 1 .6.8 1.7.5 2.1 1.5.6 1.7-1.1 3.1-.5 4.8.1.2.2.4.3.5.6.7.7.4.8 1.5.1.9 0 .7-.3 1.5-.1.3-.2.6-.2.9.1 1.2 1.1 2.1 1.6 3.1.6 1.2 0 2.1-.3 3.3-.2.5-.2 1 0 1.5.4.7 1.4 1 1.9 1.7.9 1.1 1.2 2.5 1 3.9 0 .2.2.3.3.1.2-1.3 0-2.6-.7-3.7-.1-.4-.5-.8-.9-1.2z" fill="#ffffff" stroke-width="none" opacity="1"></path></g><g id="svga-group-glasses-single-move" transform="matrix(1,0,0,1,0,0)"><g id="svga-group-glasses-single"><path id="SvgjsPath16408" d="M80.93 77.47c-3.14-.04-7.54.66-10.02 3.49-2.48 2.83-2.93 6.38-2.43 10.27.51 3.9 2.23 6.63 5.67 8.8 3.44 2.18 9.06 2.07 10.68 1.47 1.62-.61 5.36-1.42 8.15-6.48 2.78-5.06 1.52-9.06.61-11.03s-4.77-6.41-12.66-6.52z" fill="url(#SvgjsLinearGradient16409)" opacity="1"></path><path id="SvgjsPath16412" d="M118.76 77.47c3.14-.04 7.54.66 10.02 3.49 2.48 2.83 2.93 6.38 2.43 10.27-.51 3.9-2.23 6.63-5.67 8.8-3.44 2.18-9.06 2.07-10.68 1.47-1.62-.61-5.36-1.42-8.15-6.48-2.78-5.06-1.52-9.06-.61-11.03.92-1.96 4.76-6.41 12.66-6.52z" fill="url(#SvgjsLinearGradient16413)" opacity="1"></path><path id="SvgjsPath16416" d="M135.47 79.4s-4.64-.16-7.84-1.44-7.12-1.76-11.27-1.36c-4.16.4-6.59 2.12-7.42 2.61-.96.57-3.15 1.59-5.01 1.32-2.03-.3-3.16-.34-3.16-.34h-1.85s-1.12.03-3.16.34c-1.86.28-4.06-.75-5.01-1.32-.83-.49-3.26-2.22-7.42-2.61-4.16-.4-8.08.08-11.27 1.36-3.2 1.28-7.84 1.44-7.84 1.44-.16.56.08 3.44.08 3.68 0 .24 2.24-.16 2.56 2.56.32 2.72.08 8.72 4 12.63 3.92 3.92 7.62 4.76 11.93 4.43 4.63-.36 8.22-3.23 10.54-6.75 2.32-3.52 3.67-7.81 3.67-9.33 0 0-1.78-.89-1.35-2.26.39-1.22 3.28-1.2 3.28-1.2h1.85s2.89-.02 3.28 1.2c.44 1.37-1.35 2.26-1.35 2.26 0 1.52 1.35 5.81 3.67 9.33 2.32 3.52 5.91 6.39 10.54 6.75 4.31.33 8.01-.51 11.93-4.43s3.68-9.91 4-12.63c.32-2.72 2.56-2.32 2.56-2.56-.02-.25.22-3.12.06-3.68zM90.12 97.87c-2.08 2-6.08 4.16-10.71 3.36-4.64-.8-8.4-3.28-9.83-7.68s-.88-8.96 1.36-11.67c2.24-2.72 5.68-4.08 10.47-3.92 2.32.08 3.92.24 6.96 2s5.44 4.16 5.76 8.32c.31 4.15-1.93 7.59-4.01 9.59zm39.99-4.32c-1.44 4.4-5.2 6.88-9.83 7.68-4.64.8-8.64-1.36-10.71-3.36-2.08-2-4.32-5.44-4-9.59.32-4.16 2.72-6.56 5.76-8.32 3.04-1.76 4.64-1.92 6.96-2 4.79-.17 8.24 1.2 10.47 3.92 2.23 2.71 2.79 7.27 1.35 11.67z" fill="#000000" stroke-width="none" opacity="1"></path></g></g></g></g></g><rect id="svga-credit-rect" width="200" height="15" x="0" y="185" fill="#ecf0f1" opacity="0.5" style="display: none;"></rect><text id="svga-credit-text" font-family="Avenir Next, Roboto, Helvetica, Arial, sans-serif" font-size="10px" text-anchor="start" font-weight="400" size="10px" anchor="start" weight="400" fill="#333333" x="33.40447998046875" y="182.60824704170227" style="display: none;"><tspan id="SvgjsTspan16192" dy="13" x="33.40447998046875">Created on AvatarMaker.com</tspan></text></g><defs id="SvgjsDefs16144"><linearGradient id="SvgjsLinearGradient16409" x1="81.4811" y1="77.4731" x2="81.4811" y2="101.8875" gradientUnits="userSpaceOnUse" class="svga-on-canvas-glasses-gradient-single-0-null"><stop id="SvgjsStop16410" stop-opacity="1" stop-color="#ffffff" offset="0.0708" ></stop><stop id="SvgjsStop16411" stop-opacity="0" stop-color="#ffffff" offset="1" ></stop></linearGradient><linearGradient id="SvgjsLinearGradient16413" x1="38.4811" y1="77.4731" x2="38.4811" y2="101.8875" gradientTransform="matrix(-1 0 0 1 156.6823 0)" gradientUnits="userSpaceOnUse" class="svga-on-canvas-glasses-gradient-single-1-null"><stop id="SvgjsStop16414" stop-opacity="1" stop-color="#ffffff" offset="0.0708" ></stop><stop id="SvgjsStop16415" stop-opacity="0" stop-color="#ffffff" offset="1" ></stop></linearGradient></defs></svg>